<svg xmlns="http://www.w3.org/2000/svg" xmlns:xlink="http://www.w3.org/1999/xlink" viewBox="0 0 207.29 259.86"><defs><style>.cls-1,.cls-20,.cls-41,.cls-46,.cls-48,.cls-51,.cls-52,.cls-54,.cls-55,.cls-56,.cls-57,.cls-69,.cls-70,.cls-81{fill:none;}.cls-2{isolation:isolate;}.cls-3{fill:#d3d3d3;}.cls-3,.cls-44{opacity:0.36;}.cls-4{fill:#1b2246;}.cls-5{fill:#d1d3d4;}.cls-6{clip-path:url(#clip-path);}.cls-7{fill:#e6e7e8;}.cls-12,.cls-16,.cls-18,.cls-23,.cls-32,.cls-36,.cls-38,.cls-8{fill:#fff;}.cls-9{fill:#f1f2f2;}.cls-10{fill:url(#linear-gradient);}.cls-11{fill:url(#linear-gradient-2);}.cls-12{font-size:6.18px;letter-spacing:0.02em;}.cls-12,.cls-16,.cls-32,.cls-36{font-family:AmericanTypewriter-Condensed, American Typewriter;}.cls-13{letter-spacing:-0.02em;}.cls-14{letter-spacing:-0.03em;}.cls-15{letter-spacing:-0.05em;}.cls-16{font-size:3.27px;letter-spacing:-0.01em;}.cls-17{letter-spacing:0.05em;}.cls-18{font-size:5.34px;letter-spacing:0.03em;}.cls-18,.cls-38{font-family:Abel-Regular, Abel;}.cls-19{fill:#c4c4c4;}.cls-20{stroke:#a9a9a9;}.cls-20,.cls-41,.cls-46,.cls-48,.cls-51,.cls-54,.cls-56,.cls-69,.cls-70,.cls-81{stroke-miterlimit:10;}.cls-21{fill:#bcbec0;}.cls-22,.cls-43{opacity:0.5;}.cls-22{fill:url(#linear-gradient-3);}.cls-23{opacity:0.9;}.cls-24,.cls-25{opacity:0.3;}.cls-24{fill:url(#linear-gradient-4);}.cls-25{fill:url(#linear-gradient-5);}.cls-26{fill:#ae256d;}.cls-27{clip-path:url(#clip-path-2);}.cls-28,.cls-29{opacity:0.59;}.cls-28{fill:url(#linear-gradient-6);}.cls-29{fill:url(#linear-gradient-7);}.cls-30{fill:url(#linear-gradient-8);}.cls-31{fill:url(#linear-gradient-9);}.cls-32{font-size:6.16px;letter-spacing:0.03em;}.cls-33{letter-spacing:-0.02em;}.cls-34{letter-spacing:-0.03em;}.cls-35{letter-spacing:-0.05em;}.cls-36{font-size:3.26px;letter-spacing:-0.01em;}.cls-37{letter-spacing:0.05em;}.cls-38{font-size:5.32px;letter-spacing:0.03em;}.cls-39{fill:#fec813;}.cls-40{fill:#ff585b;}.cls-41{stroke:#d6aa2d;}.cls-42{fill:#fcdd99;}.cls-43{fill:url(#linear-gradient-10);}.cls-44{fill:url(#linear-gradient-11);}.cls-45{opacity:0.84;fill:url(#linear-gradient-12);}.cls-46{stroke:#f1f2f2;stroke-width:5px;}.cls-47{fill:#ffb692;}.cls-48,.cls-54,.cls-55{stroke:#1b2246;}.cls-48,.cls-51,.cls-52,.cls-54,.cls-55,.cls-56,.cls-57,.cls-69,.cls-70,.cls-81{stroke-width:0.5px;}.cls-49{fill:#d1b3ff;}.cls-50{fill:url(#linear-gradient-13);}.cls-51,.cls-52{stroke:#ae256d;}.cls-51,.cls-52,.cls-54,.cls-55,.cls-56,.cls-57{opacity:0.4;}.cls-52,.cls-55,.cls-57{stroke-linecap:round;stroke-linejoin:round;}.cls-53{fill:#383f82;}.cls-56,.cls-57{stroke:#ea7dc5;}.cls-58{fill:url(#linear-gradient-14);}.cls-59{fill:#39296b;}.cls-60,.cls-61,.cls-64,.cls-73,.cls-74,.cls-75,.cls-82,.cls-83{mix-blend-mode:multiply;}.cls-60{fill:url(#linear-gradient-15);}.cls-61{fill:url(#linear-gradient-16);}.cls-62{opacity:0.24;}.cls-63{fill:url(#linear-gradient-17);}.cls-64{fill:url(#linear-gradient-18);}.cls-65{fill:#ba5427;}.cls-66{fill:#7060cc;}.cls-67{fill:#899aef;}.cls-68{fill:url(#linear-gradient-19);}.cls-69{stroke:#ae246c;}.cls-70{stroke:#ba5320;}.cls-71{fill:url(#linear-gradient-20);}.cls-72{fill:url(#linear-gradient-21);}.cls-73{fill:url(#linear-gradient-22);}.cls-74{fill:url(#linear-gradient-23);}.cls-75{fill:url(#linear-gradient-24);}.cls-76{fill:url(#linear-gradient-25);}.cls-77{fill:url(#radial-gradient);}.cls-78{fill:url(#radial-gradient-2);}.cls-79{fill:#ae246c;}.cls-80{fill:#ba5320;}.cls-81{stroke:#000;}.cls-82{fill:url(#linear-gradient-26);}.cls-83{opacity:0.1;}</style><clipPath id="clip-path"><path class="cls-1" d="M108.7,120.53l7.75-56.29a4,4,0,0,0-3.4-4.48l-94.49-13a4,4,0,0,0-4.48,3.4L6.33,106.44c-.3,2.18.82,3.52,2.39,3.79l94.49,13C106.39,124.22,108.4,122.7,108.7,120.53Z"/></clipPath><linearGradient id="linear-gradient" x1="227" y1="479.98" x2="260.3" y2="424.01" gradientTransform="matrix(0.99, 0.14, -0.14, 0.99, -138.58, -394.58)" gradientUnits="userSpaceOnUse"><stop offset="0" stop-color="#555" stop-opacity="0"/><stop offset="0.03" stop-color="#5d5d5d" stop-opacity="0.04"/><stop offset="0.22" stop-color="#8d8d8d" stop-opacity="0.27"/><stop offset="0.4" stop-color="#b6b6b6" stop-opacity="0.46"/><stop offset="0.58" stop-color="#d6d6d6" stop-opacity="0.61"/><stop offset="0.74" stop-color="#ececec" stop-opacity="0.71"/><stop offset="0.88" stop-color="#fafafa" stop-opacity="0.78"/><stop offset="0.98" stop-color="#fff" stop-opacity="0.8"/></linearGradient><linearGradient id="linear-gradient-2" x1="284.29" y1="420.46" x2="272.95" y2="462.44" gradientTransform="matrix(0.99, 0.14, -0.14, 0.99, -138.58, -394.58)" gradientUnits="userSpaceOnUse"><stop offset="0" stop-color="#fff" stop-opacity="0"/><stop offset="0.15" stop-color="#fff" stop-opacity="0.24"/><stop offset="0.32" stop-color="#fff" stop-opacity="0.47"/><stop offset="0.48" stop-color="#fff" stop-opacity="0.66"/><stop offset="0.63" stop-color="#fff" stop-opacity="0.81"/><stop offset="0.77" stop-color="#fff" stop-opacity="0.91"/><stop offset="0.89" stop-color="#fff" stop-opacity="0.98"/><stop offset="0.98" stop-color="#fff"/></linearGradient><linearGradient id="linear-gradient-3" x1="217.98" y1="428.56" x2="229.65" y2="433.87" gradientTransform="matrix(0.99, 0.14, -0.14, 0.99, -138.58, -394.58)" gradientUnits="userSpaceOnUse"><stop offset="0.32" stop-color="#fff" stop-opacity="0"/><stop offset="0.33" stop-color="#fff" stop-opacity="0.03"/><stop offset="0.44" stop-color="#fff" stop-opacity="0.28"/><stop offset="0.55" stop-color="#fff" stop-opacity="0.5"/><stop offset="0.65" stop-color="#fff" stop-opacity="0.68"/><stop offset="0.75" stop-color="#fff" stop-opacity="0.82"/><stop offset="0.84" stop-color="#fff" stop-opacity="0.92"/><stop offset="0.93" stop-color="#fff" stop-opacity="0.98"/><stop offset="1" stop-color="#fff"/></linearGradient><linearGradient id="linear-gradient-4" x1="60.68" y1="52.94" x2="60.51" y2="62.63" gradientUnits="userSpaceOnUse"><stop offset="0.31" stop-color="#1b2246" stop-opacity="0"/><stop offset="0.47" stop-color="#1b2246" stop-opacity="0.34"/><stop offset="0.67" stop-color="#1b2246" stop-opacity="0.7"/><stop offset="0.85" stop-color="#1b2246" stop-opacity="0.92"/><stop offset="1" stop-color="#1b2246"/></linearGradient><linearGradient id="linear-gradient-5" x1="118.33" y1="76.02" x2="107.31" y2="76.97" xlink:href="#linear-gradient-4"/><clipPath id="clip-path-2"><path class="cls-1" d="M112.93,122.1V65.48a4,4,0,0,0-4-4h-95a4,4,0,0,0-4,4V122.1c0,2.19,1.29,3.36,2.88,3.42h95C111.16,126.07,112.93,124.29,112.93,122.1Z"/></clipPath><linearGradient id="linear-gradient-6" x1="69.43" y1="51.36" x2="60.4" y2="124.18" gradientUnits="userSpaceOnUse"><stop offset="0.33" stop-color="#ae246c" stop-opacity="0"/><stop offset="0.46" stop-color="#822361" stop-opacity="0.3"/><stop offset="0.67" stop-color="#4a2352" stop-opacity="0.68"/><stop offset="0.86" stop-color="#272249" stop-opacity="0.92"/><stop offset="1" stop-color="#1b2246"/></linearGradient><linearGradient id="linear-gradient-7" x1="2744.06" y1="47.93" x2="2754.04" y2="104.99" gradientTransform="matrix(-1, 0, 0, 1, 2812.67, 0)" xlink:href="#linear-gradient-6"/><linearGradient id="linear-gradient-8" x1="25.05" y1="125.48" x2="58.23" y2="69.7" gradientUnits="userSpaceOnUse"><stop offset="0" stop-color="#ae246c" stop-opacity="0"/><stop offset="0.09" stop-color="#ba4482" stop-opacity="0.06"/><stop offset="0.36" stop-color="#d895b8" stop-opacity="0.21"/><stop offset="0.6" stop-color="#edcfdf" stop-opacity="0.31"/><stop offset="0.82" stop-color="#faf3f7" stop-opacity="0.38"/><stop offset="0.98" stop-color="#fff" stop-opacity="0.4"/></linearGradient><linearGradient id="linear-gradient-9" x1="82.14" y1="66.17" x2="70.84" y2="108" gradientUnits="userSpaceOnUse"><stop offset="0" stop-color="#fff" stop-opacity="0"/><stop offset="0.07" stop-color="#fff" stop-opacity="0.07"/><stop offset="0.29" stop-color="#fff" stop-opacity="0.26"/><stop offset="0.5" stop-color="#fff" stop-opacity="0.41"/><stop offset="0.69" stop-color="#fff" stop-opacity="0.51"/><stop offset="0.86" stop-color="#fff" stop-opacity="0.58"/><stop offset="0.98" stop-color="#fff" stop-opacity="0.6"/></linearGradient><linearGradient id="linear-gradient-10" x1="16.07" y1="74.68" x2="27.7" y2="79.97" gradientTransform="matrix(1, 0, 0, 1, 0, 0)" xlink:href="#linear-gradient-3"/><linearGradient id="linear-gradient-11" x1="12.16" y1="84.87" x2="84.57" y2="106.71" gradientTransform="matrix(1, 0, 0, 1, 0, 0)" xlink:href="#linear-gradient-3"/><linearGradient id="linear-gradient-12" x1="71.27" y1="76.64" x2="113.58" y2="96.75" xlink:href="#linear-gradient-4"/><linearGradient id="linear-gradient-13" x1="161.8" y1="198.12" x2="158.4" y2="173.3" gradientUnits="userSpaceOnUse"><stop offset="0.55" stop-color="#ba5320" stop-opacity="0"/><stop offset="0.61" stop-color="#ba5320" stop-opacity="0.14"/><stop offset="0.73" stop-color="#ba5320" stop-opacity="0.38"/><stop offset="0.84" stop-color="#ba5320" stop-opacity="0.56"/><stop offset="0.93" stop-color="#ba5320" stop-opacity="0.66"/><stop offset="0.99" stop-color="#ba5320" stop-opacity="0.7"/></linearGradient><linearGradient id="linear-gradient-14" x1="121.9" y1="224.47" x2="122.93" y2="168.32" xlink:href="#linear-gradient-13"/><linearGradient id="linear-gradient-15" x1="-57.58" y1="171.81" x2="171.08" y2="103.71" gradientUnits="userSpaceOnUse"><stop offset="0.37" stop-color="#383f82" stop-opacity="0"/><stop offset="0.49" stop-color="#383f82" stop-opacity="0.11"/><stop offset="0.72" stop-color="#383f82" stop-opacity="0.39"/><stop offset="1" stop-color="#383f82" stop-opacity="0.8"/></linearGradient><linearGradient id="linear-gradient-16" x1="93.6" y1="230.96" x2="15.67" y2="210.31" gradientUnits="userSpaceOnUse"><stop offset="0.55" stop-color="#fff" stop-opacity="0"/><stop offset="1" stop-opacity="0.8"/></linearGradient><linearGradient id="linear-gradient-17" x1="128.73" y1="50.02" x2="125.03" y2="33.26" xlink:href="#linear-gradient-13"/><linearGradient id="linear-gradient-18" x1="217.12" y1="107.45" x2="104.76" y2="60.91" xlink:href="#linear-gradient-15"/><linearGradient id="linear-gradient-19" x1="124.42" y1="38.47" x2="134.25" y2="50.15" xlink:href="#linear-gradient-13"/><linearGradient id="linear-gradient-20" x1="162.8" y1="58.9" x2="142.94" y2="60.37" xlink:href="#linear-gradient-13"/><linearGradient id="linear-gradient-21" x1="74.18" y1="88.59" x2="120.71" y2="61.79" xlink:href="#linear-gradient-13"/><linearGradient id="linear-gradient-22" x1="123.12" y1="64.71" x2="103.26" y2="37.93" gradientUnits="userSpaceOnUse"><stop offset="0.56" stop-color="#383f82" stop-opacity="0"/><stop offset="0.56" stop-color="#383f82" stop-opacity="0"/><stop offset="0.7" stop-color="#383f82" stop-opacity="0.35"/><stop offset="0.83" stop-color="#383f82" stop-opacity="0.59"/><stop offset="0.93" stop-color="#383f82" stop-opacity="0.75"/><stop offset="1" stop-color="#383f82" stop-opacity="0.8"/></linearGradient><linearGradient id="linear-gradient-23" x1="122.9" y1="64.01" x2="104.73" y2="56.48" xlink:href="#linear-gradient-22"/><linearGradient id="linear-gradient-24" x1="167.71" y1="63.7" x2="137.17" y2="51.05" xlink:href="#linear-gradient-22"/><linearGradient id="linear-gradient-25" x1="106.08" y1="102.16" x2="106.08" y2="102.16" gradientTransform="matrix(1, 0, 0, 1, 0, 0)" xlink:href="#linear-gradient-3"/><radialGradient id="radial-gradient" cx="131.71" cy="26.67" r="6.53" gradientUnits="userSpaceOnUse"><stop offset="0" stop-color="#ffa273"/><stop offset="0.78" stop-color="#ffb692" stop-opacity="0"/></radialGradient><radialGradient id="radial-gradient-2" cx="122.7" cy="26.67" r="6.53" xlink:href="#radial-gradient"/><linearGradient id="linear-gradient-26" x1="135.05" y1="127.04" x2="159.7" y2="112.81" gradientUnits="userSpaceOnUse"><stop offset="0.37" stop-color="#383f82" stop-opacity="0"/><stop offset="0.54" stop-color="#383f82" stop-opacity="0.02"/><stop offset="0.66" stop-color="#383f82" stop-opacity="0.09"/><stop offset="0.76" stop-color="#383f82" stop-opacity="0.21"/><stop offset="0.85" stop-color="#383f82" stop-opacity="0.37"/><stop offset="0.93" stop-color="#383f82" stop-opacity="0.58"/><stop offset="1" stop-color="#383f82" stop-opacity="0.8"/></linearGradient></defs><title>cc_home_illustration</title><g class="cls-2"><g id="Layer_2" data-name="Layer 2"><g id="Layer_1-2" data-name="Layer 1"><path class="cls-3" d="M200.47,123.31l-27.75-42-5.35,3.13c-.32-.24-5.52-4.15-9.2-6.43,0-.63-.07-1.26-.14-1.85-.46-4.25-10.34-23.56-10.34-23.56h0s-3.13-8.11-6.13-10.31a12.32,12.32,0,0,0-1.61-1,16.29,16.29,0,0,0,.21-2.78c.08-7.46-4.67-6.6-5.55-12.65-.55-3.79.42-7.35.77-11,.07-.78.12-1.57.12-2.38A11.9,11.9,0,0,0,128.74,2,17.72,17.72,0,0,0,108,5.22c-1,1-1.56,2.27-2.6,3.27a7.14,7.14,0,0,1-3.78,2c-.63.1-1.28.08-1.91.13a5.84,5.84,0,0,0-4,1.82C94.71,13.6,94.33,15.25,93,16a3.91,3.91,0,0,1-2.54.29c-4.73-.77-9.28-.94-13.79,1a12.91,12.91,0,0,0-6.45,5.62,12.28,12.28,0,0,0-.45,9.45C70.65,35,72,37.64,74.34,39.2a11.31,11.31,0,0,0,2.47,1.2,18.13,18.13,0,0,0,10.91-.14c2.45-.78,5-1.7,7.54-1.38,2.31.29,4.46,1.64,6.54,3a9.39,9.39,0,0,0-3,4.23c-1.36,3.79-3,9.1-3,9.1s-.38,1.75-1,4.45c-.93,4.18-2.32,10.62-3.37,16.57-1.32,7.43-2.13,13.31-4.12,18.06a15.7,15.7,0,0,0,.8-1.44c-.27.82-.55,1.62-.87,2.38-.16.39-.33.77-.51,1.15-2.38,4.95-4.9,16.32-5.94,20.58-.88,3.61-1.74,6.27-2.14,7.44,0,0-2.66-.05-1.76,1.17a2.39,2.39,0,0,0,.95.62,21.36,21.36,0,0,1-2.47,3.67c-21.52.32-49.23,15.13-35.3,21.2,3.37,1.47,15.24-.65,29.76,3.9l-6.52,32-16.82-3.43-9.91-2a10.08,10.08,0,0,0-11.91,7.87L14.71,238.67a10.09,10.09,0,0,0,7.87,11.91l.94.19-.59,2.89,3.88.79.59-2.89,4,.81,8.89,1.81a4.74,4.74,0,0,0,9.39-.87,10.06,10.06,0,0,0,4.62-6.57l12.07-59.19h0L72.76,156a61.38,61.38,0,0,1,7.1,3.13,260.25,260.25,0,0,0,24.29,11.19c1.3.51,2.55,1,3.79,1.44,0,.72.07,1.53.11,2.42.17,3.36.46,7.76,1,12.79.43,4.13,1,8.69,1.83,13.44a289.33,289.33,0,0,1,3.42,34l0,.3a7.32,7.32,0,0,0-1.65,5.93c.28,1.45.83,2.78,1.2,4.38.73,3.08,1.12,12.16,6.61,12.24,3.46,0,1.53-7.22,1.28-11.16-.13-2.08-.26-3.76-.37-5.12-.05-3-.29-5.68-.29-5.68s1.19-15.48,1.7-27.76c.24-5.75.68-12.88,1.07-18.84.41-6.34.78-11.35.83-12,7.93,1.69,14.12,1.88,18.94,1.14.16,1.39.56,4.39,1.37,8.08a67,67,0,0,0,3.91,12.48c4.32,9.86,9.39,22.15,11.12,30.15a9.23,9.23,0,0,0,0,1.46c-2.94,4.34-1.48,7.22-1.48,7.22l3.21,11.06.45-.08-.76-7.12c1.12,1.09,2.77,6.87,9.51,9.17,5.56,1.9,1.54-5.88,0-8.66a12.33,12.33,0,0,0-.56-1.67A150.3,150.3,0,0,1,165.9,224c-1.56-7.44-5.87-40.72-6.74-47.61-.37-2.93-.66-5.08-.91-7l.15-.51a16.91,16.91,0,0,0,2.35-7.73c-.63-2.75-2.55-9.88-5-18.78l4.82-.22,10.23-2.82-.34-1.25,7.77-1.36,9.58-4.3-.43-1,4.69-1.23ZM158.18,88.68,156.82,86a8.91,8.91,0,0,0,.9-2.36l3,3.88Zm-9.36-1.27c.09,1.41.2,2.77.3,3.93L145,92.47l2-5.82C147.67,86.95,148.26,87.2,148.82,87.41Zm1.22.4a10.14,10.14,0,0,0,3,.42l.31,2-3.55,1ZM157,89.16l-3.67,1c0-.63.08-1.29.12-2a4.49,4.49,0,0,0,1.73-.47,3.76,3.76,0,0,0,.91-.7l1.44,2-.51.23Zm-23.43-22.5c-.71-.46-1.24-.82-1.54-1a4.29,4.29,0,0,1-.36-.31c.33.24,1,.72,1.9,1.32Zm7.23,3.52a7.22,7.22,0,0,0,.91-2.85v0a14.1,14.1,0,0,0,.16-1.41l.41.61.51.83h0l3.79,6.13-1.4-.65c-1.59-.62-3.17-1.36-4.67-2.11C140.58,70.54,140.68,70.37,140.77,70.18Zm-36.22,1.23a7,7,0,0,0,.86.8l.35.33a.18.18,0,0,1,.06.09c.26.84.41,1.37.55,1.94,0,.11.05.23.08.34a2,2,0,0,1,0,.2l.05.27c.09.48.18,1,.29,1.67,0,.1,0,.19,0,.29s0,.2,0,.3,0,.23,0,.34c.06.39.1.76.14,1.15h0q0,.33.06.65V80c0,.42,0,.88.06,1.39,0,.24,0,.49,0,.74a18.77,18.77,0,0,1-.17,2.26,8,8,0,0,1-.69,2.25c-2,4-6.86,5.27-10.28,10-.35.48-.67,1-1,1.52.34-1.19.72-2.41,1.21-3.74C98,89.93,103,75.83,104.56,71.41Zm34.35,11.76a15.26,15.26,0,0,1-.55-2.63,41.41,41.41,0,0,0,7.55,5.52c-.49,2.65-.88,5.17-1.08,6.46l-2.94.81c-1.06-3.68-1.9-6.57-2.41-8.3l.06,0C139.41,84.56,139.16,83.9,138.91,83.17Zm28.46,1.23-1.13.66-2.25,1h0l-3.24,1.45c-.85-1.77-1.8-3.67-2.74-5.37a22.26,22.26,0,0,0,.19-3.09ZM146.68,53.32l.94-.71ZM91.14,111.25c-.65,4.34-2.06,11-6.31,15.1a6.8,6.8,0,0,0-1.15-.67A116.79,116.79,0,0,0,91.14,111.25Zm-8.39,16,.9.06a12.23,12.23,0,0,1-1.47.94A11.18,11.18,0,0,1,82.75,127.29Z"/><path class="cls-4" d="M146.73,38.49c0,3.28-.43,5.29-3.34,7.39-5.83,4.21-13.73,4.6-20.67,2.73a50.88,50.88,0,0,1-11.12-4.68c-3.08-1.69-6.25-4.6-9.77-5-2.56-.32-5.08.59-7.54,1.38a18.13,18.13,0,0,1-10.91.14,11.32,11.32,0,0,1-2.47-1.2c-2.38-1.56-3.69-4.22-4.53-6.85a12.28,12.28,0,0,1,.45-9.45,12.91,12.91,0,0,1,6.45-5.62c4.51-2,9.06-1.79,13.79-1A3.91,3.91,0,0,0,99.61,16c1.28-.71,1.66-2.36,2.61-3.49a5.84,5.84,0,0,1,4-1.82c.64-.05,1.28,0,1.91-.13a7.14,7.14,0,0,0,3.78-2c1-1,1.6-2.29,2.6-3.27A17.72,17.72,0,0,1,135.31,2a11.9,11.9,0,0,1,6.76,10.43c0,.8,0,1.59-.12,2.38-.35,3.68-1.32,7.24-.77,11C142.05,31.88,146.8,31,146.73,38.49Z"/><path d="M146.73,38.49c0,3.28-.43,5.29-3.34,7.39-5.83,4.21-13.73,4.6-20.67,2.73a50.88,50.88,0,0,1-11.12-4.68c-3.08-1.69-6.25-4.6-9.77-5-2.56-.32-5.08.59-7.54,1.38a18.13,18.13,0,0,1-10.91.14c-.86-2.86-1.38-7.33,2.39-10,5.87-4.13,10.27-4.13,22.4-2s11.87-7.07,12.27-7.6,14.95,6.79,14.95,6.79a19.08,19.08,0,0,0,6.39-12,4.25,4.25,0,0,1,.17-.81c-.35,3.68-1.32,7.24-.77,11C142.05,31.88,146.8,31,146.73,38.49Z"/><path class="cls-5" d="M108.76,120.08l7.75-56.29a4,4,0,0,0-3.4-4.48l-94.49-13a4,4,0,0,0-4.48,3.4L6.39,106c-.3,2.18.76,3.51,2.39,3.79l94.49,13C106.46,123.78,108.46,122.26,108.76,120.08Z"/><g class="cls-6"><path class="cls-7" d="M6,80.41S49.06,79,69.86,103.07s31.09,21.81,50.8,18.43L129.54,57,10,40.54Z"/><path class="cls-8" d="M107.34,97a27.14,27.14,0,1,0,23.19,30.59A27.14,27.14,0,0,0,107.34,97Zm-6.68,48.52a21.83,21.83,0,1,1,24.61-18.65A21.83,21.83,0,0,1,100.67,145.54Z"/><path class="cls-9" d="M131.18,71.57s-22.5,29-74.18,4.65S3.44,90.28,3.44,90.28,8.94,39.65,9,39.18,134.4,60.57,134.4,60.57Z"/><path class="cls-10" d="M7.09,84.94s40.4.2,41.68,36.91L0,118.79,6,85.52"/><path class="cls-11" d="M49.5,45.72s9.84,36.42,77,19.36l3.28-13.19Z"/></g><text class="cls-12" transform="translate(18.96 83.8) rotate(7.83)">5325 <tspan class="cls-13" x="14.67" y="0">7</tspan><tspan class="cls-14" x="17.66" y="0">1</tspan><tspan x="20.55" y="0">00 0000 00</tspan><tspan class="cls-15" x="49.89" y="0">0</tspan><tspan x="52.7" y="0">1</tspan></text><text class="cls-16" transform="translate(18.16 93.11) rotate(7.83)">V<tspan class="cls-17" x="1.67" y="0">ALID THRU</tspan></text><text class="cls-18" transform="translate(35.84 96.11) rotate(7.83)">1/24</text><circle class="cls-19" cx="93.87" cy="70.45" r="5.9" transform="translate(11.28 153.84) rotate(-82.17)"/><rect class="cls-20" x="26.28" y="62.5" width="4" height="4" transform="translate(-39.48 83.73) rotate(-82.17)"/><rect class="cls-21" x="22.03" y="56.18" width="13.17" height="16.68" rx="2.19" ry="2.19" transform="translate(-39.2 84.08) rotate(-82.17)"/><line class="cls-20" x1="28.54" y1="62.62" x2="29.1" y2="58.56"/><line class="cls-20" x1="27.42" y1="70.74" x2="27.98" y2="66.68"/><line class="cls-20" x1="26.23" y1="64.37" x2="21.11" y2="63.67"/><line class="cls-20" x1="35.42" y1="65.64" x2="30.29" y2="64.93"/><polyline class="cls-20" points="30.54 62.8 32.66 61.41 35.94 61.87"/><polyline class="cls-20" points="26.01 66.19 23.89 67.57 20.6 67.12"/><polyline class="cls-20" points="26.55 62.25 24.88 60.34 21.59 59.89"/><polyline class="cls-20" points="29.99 66.74 31.66 68.64 34.95 69.1"/><path class="cls-22" d="M31,58.27,24.78,70.64l-3.15-.43a2.19,2.19,0,0,1-1.87-2.47L21,59a2.19,2.19,0,0,1,2.47-1.87l7.35,1Z"/><path class="cls-23" d="M28.63,105.41l-8.34-1.15a2.16,2.16,0,0,1-1.85-2.44h0A2.16,2.16,0,0,1,20.89,100l8.34,1.15a2.16,2.16,0,0,1,1.85,2.44h0A2.16,2.16,0,0,1,28.63,105.41Z"/><path class="cls-24" d="M13.76,56.3l-4,24.63,92.37-14.7,6.23-1.91c4.74-3.45,1.37-4.25,1.37-4.25Z"/><path class="cls-25" d="M110.25,60.38s2.69.1,2.71,4.25-.49,23.77-.49,23.77l-3.29,4.75H103l2.35-31.27Z"/><path class="cls-26" d="M112.93,122.1V65.48a4,4,0,0,0-4-4h-95a4,4,0,0,0-4,4V122.1c0,2.19,1.23,3.37,2.88,3.42h95C111.16,126.07,112.93,124.29,112.93,122.1Z"/><g class="cls-27"><path class="cls-28" d="M6.1,96.44s42.31-7.21,66.12,13.7,33.66,17.31,52.65,11.3V56.53H4.66Z"/><path class="cls-29" d="M128.48,70.72S110.2,102.45,55.87,85.38s-51,21.16-51,21.16S3.46,55.81,3.46,55.33s126.7,4.09,126.7,4.09Z"/><path class="cls-30" d="M7.79,100.77s39.91-5.29,46.16,30.77L5.38,135.15l1.44-33.66"/><path class="cls-31" d="M44.33,56.29S59,90.91,122.95,64.95l1.44-13.46Z"/></g><text class="cls-32" transform="translate(19.26 98.48)">5325 <tspan class="cls-33" x="14.62" y="0">7</tspan><tspan class="cls-34" x="17.59" y="0">1</tspan><tspan x="20.48" y="0">00 0000 00</tspan><tspan class="cls-35" x="49.72" y="0">0</tspan><tspan x="52.52" y="0">1</tspan></text><text class="cls-36" transform="translate(19.73 107.78)">V<tspan class="cls-37" x="1.67" y="0">ALID THRU</tspan></text><text class="cls-38" transform="translate(37.59 108.34)">1/24</text><circle class="cls-39" cx="91.48" cy="75.13" r="5.88"/><circle class="cls-40" cx="98.81" cy="75.13" r="5.88"/><rect class="cls-41" x="23.93" y="76.17" width="3.99" height="3.99"/><rect class="cls-42" x="17.95" y="71.58" width="16.62" height="13.12" rx="2.18" ry="2.18"/><line class="cls-41" x1="25.93" y1="76.27" x2="25.93" y2="72.19"/><line class="cls-41" x1="25.93" y1="84.44" x2="25.93" y2="80.36"/><line class="cls-41" x1="23.88" y1="78.32" x2="18.74" y2="78.32"/><line class="cls-41" x1="33.13" y1="78.32" x2="27.97" y2="78.32"/><polyline class="cls-41" points="27.92 76.17 29.83 74.52 33.13 74.52"/><polyline class="cls-41" points="23.91 80.14 22.01 81.8 18.7 81.8"/><polyline class="cls-41" points="23.91 76.17 22.01 74.52 18.7 74.52"/><polyline class="cls-41" points="27.92 80.14 29.83 81.8 33.13 81.8"/><path class="cls-43" d="M27.79,71.64,23.3,84.7H20.13A2.18,2.18,0,0,1,18,82.52V73.76a2.18,2.18,0,0,1,2.18-2.18h7.39Z"/><path class="cls-23" d="M31.83,118.51H23.45a2.15,2.15,0,0,1-2.15-2.15h0a2.15,2.15,0,0,1,2.15-2.15h8.39A2.15,2.15,0,0,1,34,116.35h0A2.15,2.15,0,0,1,31.83,118.51Z"/><path class="cls-44" d="M10.81,66.12v55.44c0,2.14,1.2,3.3,2.82,3.35H48L69.11,62.59l-.34-.36H14.7A3.88,3.88,0,0,0,10.81,66.12Z"/><path class="cls-45" d="M96.81,62l-.52,2.32c-.88,4-2,9.31-2.86,14.24C92.12,86,91.31,91.88,89.32,96.64c-.16.39-.33.77-.51,1.15-1.84,3.83-3.76,11.51-5,16.76h8.54c.39-.86.74-1.7,1-2.51,2.77-7.33,3-10.89,4.95-16.23,1.66-4.48,6.66-18.57,8.23-23L107.74,62Z"/><path class="cls-46" d="M80.26,126.3a28.82,28.82,0,0,1,28.82-28.82"/><path class="cls-4" d="M127.43,235.77s.4,2.2.92,10.3c.25,3.94,2.18,11.21-1.28,11.16-5.5-.08-5.89-9.16-6.61-12.24-.38-1.59-.92-2.92-1.2-4.38-.66-3.36,1.6-6.68,3.56-7.41C125.67,232.15,127.43,235.77,127.43,235.77Z"/><path class="cls-4" d="M177,240.63s7.35,11.91.6,9.61-8.39-8.08-9.51-9.17l.76,7.12-.45.08-3.21-11.06s-1.89-3.72,2.94-9.07a24,24,0,0,0,3.53,11.31c2.9,4.38,6.66,6.21,6,3.11A12.9,12.9,0,0,0,177,240.63Z"/><path class="cls-47" d="M138.19,13.52c0,1-.08,2-.15,3.06a34.82,34.82,0,0,1-1.77,8.85c-.24.68-.54,1.41-.88,2.17-1.62,3.49-4.37,7.3-8.26,7.3-2.26,0-4.38-1.49-6.12-3.8-.27-.35-.53-.73-.78-1.12-2.39-3.73-3.52-9.65-3.52-14.22,0-8.15,4.44-10.36,10.41-10.36,3.15,0,7.62-.78,9.76,2.2C138.09,9.27,138.23,11.53,138.19,13.52Z"/><path class="cls-47" d="M111.6,70.06s-6.73,19-8.71,24.35-2.18,8.91-4.95,16.24-9.5,18-9.5,18l-3.37-3.56A81.82,81.82,0,0,0,87.45,117c1-4.26,3.56-15.64,5.94-20.58.18-.37.35-.75.51-1.15,2-4.76,2.8-10.63,4.12-18.06,1.75-9.86,4.4-22,4.4-22l6.6,1.19Z"/><path class="cls-4" d="M127.24,2.1l-.16.05A44.23,44.23,0,0,0,118.95,6c-3.34,2-8.09,5.34-8,9.73a6.54,6.54,0,0,0,.27,2,2.22,2.22,0,0,0,1.38,1.44c1.16.33,3-.42,4.18-.71,1.33-.33,2.68-.54,4-.75A69.63,69.63,0,0,0,131,15.6c9.49-3,6.83-9.66,6.83-9.66Z"/><path class="cls-47" d="M172.44,241.79a34.35,34.35,0,0,1-5.17-9.13,10.78,10.78,0,0,1-.64-4.12c-1.73-8-6.79-20.29-11.12-30.15a67,67,0,0,1-3.91-12.48,80.79,80.79,0,0,1-1.45-8.91v-2.79s11.29-12.89,13.39-12.78c.19,0,.3.12.33.36a.74.74,0,0,0,0,.08c.56,5,1,7.67,1.85,14.51s5.19,40.16,6.74,47.61A150.42,150.42,0,0,0,177,239.91C179.4,245.77,175.61,245.63,172.44,241.79Z"/><path class="cls-48" d="M157.7,74.85s-1.86-.27-3.22,3c-1.5,3.58-3.22,15.58-3.22,15.58"/><path class="cls-48" d="M157.7,75.16s-1.87.19-2.39,3.68c-.58,3.84.7,15.9.7,15.9"/><path class="cls-48" d="M157.7,74.85s-1.48,1.15-.08,4.39c1.54,3.56,9,13.12,9,13.12"/><polygon class="cls-49" points="207.04 123.31 198.63 130.25 181.95 134.61 158.09 93.78 179.29 81.27 207.04 123.31"/><path class="cls-50" d="M151.8,185.09a62.74,62.74,0,0,1-1.65-8.28v-2.6s12.78-12,15.16-11.88l.38.33a.58.58,0,0,0,0,.07C165.79,163.74,166.62,175.77,151.8,185.09Z"/><line class="cls-51" x1="201.68" y1="123.53" x2="175.63" y2="83.34"/><polyline class="cls-52" points="172.11 85.47 198.63 130.25 201.68 123.53 207.04 123.31 179.29 81.27"/><polygon class="cls-53" points="194.37 132.43 184.79 136.73 167.39 139.77 148.06 96.17 173.08 84.95 194.37 132.43"/><polyline class="cls-54" points="170.56 86.07 189.54 130.79 184.84 136.57"/><polygon class="cls-26" points="177.36 139.33 167.13 142.15 150.75 142.9 144.26 94.5 163.54 89.16 177.36 139.33"/><polyline class="cls-55" points="173.08 84.95 194.37 132.43 189.54 130.79"/><line class="cls-56" x1="167.13" y1="142.15" x2="157.3" y2="91"/><polyline class="cls-57" points="163.54 89.16 177.36 139.33 172.84 136.8"/><polyline class="cls-56" points="160.79 90.02 172.84 136.8 167.13 142.15"/><line class="cls-54" x1="184.79" y1="136.73" x2="167.12" y2="87.62"/><path class="cls-47" d="M131.3,176.63s-.39,5.26-.83,12c-.39,6-.83,13.1-1.07,18.84-.52,12.28-1.7,27.76-1.7,27.76S129,250.06,126.06,250c-4,.52-5.19-15.66-5.19-15.66a289.32,289.32,0,0,0-3.42-34c-.81-4.75-1.4-9.31-1.83-13.44-1.22-11.52-1.21-19.76-1.21-19.76l5.3-2.25Z"/><path class="cls-58" d="M131.3,176.45s-.39,4.89-.83,11.19A20.73,20.73,0,0,1,115.62,186a177.82,177.82,0,0,1-1.21-18.37l5.3-2.09Z"/><path class="cls-59" d="M167.32,161.15s0,31.38-56.59,9.13a260.25,260.25,0,0,1-24.29-11.19c-18.82-9.76-35.59-6.2-39.71-8-14-6.09,14-21,35.6-21.21,14.47-.13,15.18-18.41,15.89-22.17a28.37,28.37,0,0,1,4.45-11.07c3.41-4.71,8.31-5.94,10.28-10a8.92,8.92,0,0,0,.8-3.12,18.36,18.36,0,0,0,.06-2.13,27.2,27.2,0,0,0-.26-3.4c0-.11,0-.23,0-.34l-.09-.59c-.11-.66-.2-1.19-.29-1.67l-.05-.27c0-.07,0-.14,0-.2s0-.23-.08-.34c-.14-.57-.29-1.1-.55-1.94a.18.18,0,0,0-.06-.09,8.24,8.24,0,0,1-3.11-6.14,12.94,12.94,0,0,1,.14-1.93A12.31,12.31,0,0,0,105.62,58l0,0a26.78,26.78,0,0,0-2.14-2l-.38-.31-.52-.4-.13-.1s1.63-5.31,3-9.1c2.2-6.1,8.28-6.69,12-7.39a24.17,24.17,0,0,0,.27,2.68c.64,3.93,2.6,8.95,8.41,9.35,8.38.59,10.06-7.19,10.43-12.3,3,1.09,7.72,1,11.56,3.79,3,2.21,6.13,10.31,6.13,10.31-1.09.75-6.95,5.47-6.95,5.47,2.2,6.86.75,11.07-.25,12.66A62.72,62.72,0,0,1,138,65.15l-3,3.16a88,88,0,0,0,9.82,10.06,17.22,17.22,0,0,0,.77,5C146.73,87,165.09,151.44,167.32,161.15Z"/><path class="cls-49" d="M147,70.63l-.12.23a19.79,19.79,0,0,0-2.05,9.55A90.52,90.52,0,0,1,135,69.82l3.33-4.37A79,79,0,0,0,147,70.63Z"/><path class="cls-60" d="M118.63,137.74c-7.17,5.72-11.7,3.47-15.75,10.53-2.66,4.63-1.38,10.53,3.27,15.76a37.37,37.37,0,0,1,4.57,6.24,260.25,260.25,0,0,1-24.29-11.19c-18.82-9.76-35.59-6.2-39.71-8-14-6.09,14-21,35.6-21.21,14.47-.13,15.18-18.41,15.89-22.17a28.37,28.37,0,0,1,4.45-11.07c3.41-4.71,8.31-5.94,10.28-10a8.92,8.92,0,0,0,.8-3.12,1.11,1.11,0,0,0,.25-.71h0a35.38,35.38,0,0,0-.46-4.82c0-.11,0-.23,0-.34s0-.2,0-.3,0-.2,0-.29c-.11-.66-.2-1.19-.29-1.67l-.05-.27c0-.07,0-.14,0-.2s0-.23-.08-.34c-.13-.61-.29-1.2-.51-2,0,0,1.59,1.21,6.73,2.21,2.19.43,2.27.69.94,2.89-1.59,2.62-6,14-2.45,27.33C119.67,112.51,129,129.48,118.63,137.74Z"/><path class="cls-47" d="M136.58,38.46c-.37,5.39-2,13.57-10.43,13a7.84,7.84,0,0,1-4.36-1.62h0c-2.53-2-3.6-5.37-4-8.23a26.73,26.73,0,0,1-.27-2.83,19.34,19.34,0,0,0,2.14-.56c2.17-.7,2.22-4.72,2.08-6.26a10.89,10.89,0,0,0,2.68,2.25,5.88,5.88,0,0,0,2.74.71c3.06,0,5-2.13,6.5-4.11a21.3,21.3,0,0,0,0,3.85A4.09,4.09,0,0,0,136.58,38.46Z"/><rect class="cls-4" x="74.39" y="138.42" width="2.98" height="53.93" transform="translate(34.59 -11.83) rotate(11.53)"/><path class="cls-53" d="M72.89,187.55,60.81,246.74a10.1,10.1,0,0,1-11.91,7.87l-11-2.24-8.78-1.79a10.09,10.09,0,0,1-7.87-11.91l10.05-49.29a10.08,10.08,0,0,1,11.91-7.87l9.91,2Z"/><path class="cls-61" d="M53.24,183.63a10.09,10.09,0,0,0-11.91,7.87L31.28,240.79a10.08,10.08,0,0,0,6.64,11.57l-8.78-1.79a10.09,10.09,0,0,1-7.87-11.91l10.05-49.29a10.08,10.08,0,0,1,11.91-7.87l9.91,2Z"/><g class="cls-62"><path d="M28.37,245.16c-.26,1.26-.14,2.35.26,2.43s.94-.88,1.19-2.14l11.54-56.57c.26-1.26.14-2.35-.26-2.43s-.94.88-1.19,2.14Z"/><path d="M25,244.47c-.26,1.26-.14,2.35.26,2.43s.94-.88,1.19-2.14L38,188.2c.26-1.26.14-2.35-.26-2.43s-.94.88-1.19,2.14Z"/><path d="M40.46,247.62c-.26,1.26-.14,2.35.26,2.43s.94-.88,1.19-2.14l11.54-56.57c.26-1.26.14-2.35-.26-2.43s-.94.88-1.19,2.14Z"/><path d="M37.08,246.93c-.26,1.26-.14,2.35.26,2.43s.94-.88,1.19-2.14l11.54-56.57c.26-1.26.14-2.35-.26-2.43s-.94.88-1.19,2.14Z"/><path d="M47.19,249c-.26,1.26-.14,2.35.26,2.43s.94-.88,1.19-2.14l11.54-56.57c.26-1.26.14-2.35-.26-2.43s-.94.88-1.19,2.14Z"/><path d="M43.81,248.31c-.26,1.26-.14,2.35.26,2.43s.94-.88,1.19-2.14L56.8,192c.26-1.26.14-2.35-.26-2.43s-.94.88-1.19,2.14Z"/><path d="M53.92,250.37c-.26,1.26-.14,2.35.26,2.43s.94-.88,1.19-2.14L66.92,194.1c.26-1.26.14-2.35-.26-2.43s-.94.88-1.19,2.14Z"/><path d="M50.54,249.68c-.26,1.26-.14,2.35.26,2.43s.94-.88,1.19-2.14l11.54-56.57c.26-1.26.14-2.35-.26-2.43s-.94.88-1.19,2.14Z"/><path d="M58,247.13c-.26,1.26-.14,2.35.26,2.43s.94-.88,1.19-2.14l10.75-52.66c.26-1.26.14-2.35-.26-2.43s-.94.88-1.19,2.14Z"/></g><rect class="cls-4" x="30.25" y="250.62" width="2.97" height="3.96" transform="translate(-222.12 233.2) rotate(-78.47)"/><path class="cls-4" d="M51.46,258.93A5.67,5.67,0,1,1,57,254.39a5.73,5.73,0,0,1-5.55,4.54Z"/><path class="cls-8" d="M51.45,248.52a4.74,4.74,0,1,1-4.64,3.79,4.76,4.76,0,0,1,4.64-3.79m0-1.86a6.6,6.6,0,1,0,1.32.13,6.62,6.62,0,0,0-1.32-.13Z"/><rect class="cls-4" x="5" y="216.12" width="70.32" height="1.68" transform="translate(-180.45 212.97) rotate(-78.48)"/><path class="cls-47" d="M138.59,22a4.32,4.32,0,0,1-1.6,2.75c-.26.15-1.21.72-.1-3.18.46-1.62.67-2.73,1.16-2.75C139.06,18.82,139,20.39,138.59,22Z"/><path class="cls-47" d="M115.67,22.9a4.08,4.08,0,0,0,1.54,2.81c.27.16,1.27.76.35-3.18-.38-1.64-.53-2.76-1.06-2.79C115.39,19.67,115.34,21.24,115.67,22.9Z"/><path class="cls-63" d="M133.61,30.76s-.49,3.71-5.21,7c-3.65,2.51-7.61,3-10.66,3.83a26.73,26.73,0,0,1-.27-2.83,19.34,19.34,0,0,0,2.14-.56c2.17-.7,2.22-4.71,2.08-6.25a6.69,6.69,0,0,0,.66.7c1.74,1.59,3,2.26,4.76,2.26C130.17,34.88,132.18,32.73,133.61,30.76Z"/><path class="cls-64" d="M129.74,68.11s2.68,1.21,3.66,1.81c1.33.82,2.25,2.63,2.94,4.62.57,1.64,3.22,5.65,8.82,9.73,0,0-.81-5.43-.39-7.17L135,66.79Z"/><path class="cls-65" d="M130.38,56.52A14.89,14.89,0,0,1,135,60.46c2.11,2.71-3.3,3.88-3.3,3.88l-3.37-5.29.23-2.21Z"/><path class="cls-66" d="M133.78,66.6l-6.17.72a.7.7,0,0,1-.76-.53l-3.14-13a.7.7,0,0,1,.6-.86l6.17-.72a.7.7,0,0,1,.76.53l3.14,13A.7.7,0,0,1,133.78,66.6Z"/><path class="cls-47" d="M139.06,66a4.21,4.21,0,0,1-1.59-1.63c-1.53-2.92-3.24-4.92-4.43-5.61a15.52,15.52,0,0,0-5.24-1.06,10.26,10.26,0,0,0-4,.65c-1.17.34-.23,1.76,1.83,1.35,1.72-.34,4.31.22,4.5,1s-2.89.22-4.44.75-1.62,1.32-1.43,1.7a.75.75,0,0,0,.63.37c.34,0,.5-.23.89-.31a10.1,10.1,0,0,1,3.58.55,25.48,25.48,0,0,0-3.22.08,1.22,1.22,0,0,0-.77.92c-.09.4,0,.78.45.82.27,0,.2-.16.53-.13a20,20,0,0,1,3.23.64,4.87,4.87,0,0,1-2.56.2c-.81-.36-1,.61-.46,1a3,3,0,0,0,1.72.68,6.61,6.61,0,0,1,2.37.51c2.39,1,3.21.83,4.18,1.66.49.42.77.79,1.4.56C138.33,69.84,140.33,68.55,139.06,66Z"/><ellipse class="cls-67" cx="127.67" cy="54.91" rx="0.49" ry="0.59" transform="translate(33.05 156.71) rotate(-70.37)"/><path class="cls-47" d="M161.72,87.73c-2.25,1.21-8,.73-16.94-7.32a86,86,0,0,1-10-10.37l3.5-4.59A79,79,0,0,0,147,70.63c1.53.78,3.15,1.53,4.77,2.17l1.4.65-3.79-6.13h0l-.94-1.53c-.23-2.25-.6-3.46-1.89-7.2,0,0,6.67-5.23,7.75-6,0,0,9.88,19.31,10.34,23.56S164.71,86.13,161.72,87.73Z"/><path class="cls-47" d="M83.94,138.53s1.33-.57,1.54-.31c.45.52-1,1.47-1,1.47H83.35v-.75Z"/><path class="cls-68" d="M136.58,38.46c-.37,5.39-2,13.57-10.43,13a7.84,7.84,0,0,1-4.36-1.62c2.52,1.46,6.69,1.92,9.58-.09C136,46.51,136.58,38.46,136.58,38.46Z"/><path class="cls-47" d="M81.3,139.25c1.13.62,2.49.19,2.69.73s-1.77,1.15-3.94.57c-2.77-.75-3.83-2.91-2.82-5,.62-1.31,1.16-2.06,3.23-3.94a21.13,21.13,0,0,0,4.85-7.16L88.24,128l-3.31,4.9Z"/><circle class="cls-4" cx="81.3" cy="137.34" r="2.05" transform="translate(-69.51 189.57) rotate(-78.47)"/><circle class="cls-4" cx="86.97" cy="138.5" r="2.05" transform="translate(-66.11 196.04) rotate(-78.47)"/><rect class="cls-4" x="81.25" y="135.88" width="5.79" height="4.09" transform="translate(29.26 -14.03) rotate(11.53)"/><path class="cls-47" d="M89.47,127.07a15.44,15.44,0,0,0-2.24,6c-.48,2.69-2.6,3.18-3,4s0,1.67-.59,2.54-2.11.69-1.91,0a8.52,8.52,0,0,0,.38-3.6,8.56,8.56,0,0,1,1.28-4.29l1.11-4.11Z"/><path class="cls-69" d="M84.14,137c-.44.79,0,1.67-.59,2.54s-2.11.69-1.91,0A8.52,8.52,0,0,0,82,136a3.92,3.92,0,0,1,1-3.09"/><path class="cls-70" d="M153.12,73.45s2.41,1,3.71,1.35,4.38.88,6.09,3"/><path class="cls-48" d="M157.42,74.82a23.13,23.13,0,0,1,5.33,2c3.46,1.75,11.2,7.58,11.2,7.58"/><path class="cls-48" d="M157.48,74.9A8.55,8.55,0,0,1,162,78.06c1.57,1.93,3.67,6,5.36,9.47"/><path class="cls-48" d="M157.48,74.9s1.91.41,2.5,3.88c.4,2.34.13,7.54-.11,11.4"/><path class="cls-71" d="M149.08,66.88l-.79-1.19c-.35-3.51-1.13-4.85-1.8-7.18,0,0,6.68-5.15,7.77-5.94C154.26,52.57,148.8,60.33,149.08,66.88Z"/><path class="cls-72" d="M104.87,57.25s-2.27,9.55-4.17,17.43S96,91.07,94,94.3c2-4.76,2.8-10.63,4.12-18.06,1.75-9.86,4.41-21.08,4.41-21.08s.83.64,1.4,1.18Z"/><path class="cls-73" d="M117.72,41.48s-5.73,1.26-9,4.57c-1.7,1.72-3.84,11.2-3.84,11.2l-2.45-2,3-8.77c2.2-6.43,8.28-7,12-7.79A26.75,26.75,0,0,0,117.72,41.48Z"/><path class="cls-74" d="M110.93,52.41s-1.75,6.18-3.14,8.22a12.08,12.08,0,0,1,1.54,4l0,.37s1.55-7.72,1.84-9.11A10,10,0,0,0,110.93,52.41Z"/><path class="cls-75" d="M145,50.56s1.11,4.75,3.28,6.6l-1.79,1.48s-1.38-3.76-1.69-4.85A8.73,8.73,0,0,1,145,50.56Z"/><path class="cls-76" d="M106.08,102.16"/><path class="cls-48" d="M120.08,23.28c0,.26,2,1.56,4.51.39"/><path class="cls-4" d="M119.24,21.63a4.16,4.16,0,0,1,3.06-.41,5.05,5.05,0,0,1,1.46.58,4.31,4.31,0,0,1,1.18,1l-1.43-.48a14,14,0,0,0-1.38-.38A13.74,13.74,0,0,0,119.24,21.63Z"/><path class="cls-4" d="M134.07,22.12a13.75,13.75,0,0,0-2.91.13,14,14,0,0,0-1.41.29l-1.46.38a4.31,4.31,0,0,1,1.25-.93,5.05,5.05,0,0,1,1.5-.48A4.16,4.16,0,0,1,134.07,22.12Z"/><path class="cls-4" d="M128.63,9.36s3,.71,3.24,2.79c.33,3.25,3.21,3,3.46,5.15.42,3.56,1.39,4.41,1.81,3.72a13.75,13.75,0,0,0,.85-2.93s1.74-9.14,1.58-9.3-4.81-.6-4.81-.6Z"/><path class="cls-4" d="M117,20.39s.52,2.31.87,1.56c.62-1.35,0-7.48,1-9,1.43-2.28-1.22-2.2-1.22-2.2l-2.45,1.84,1.22,4.81.3,1.19Z"/><circle class="cls-77" cx="131.42" cy="28.12" r="2.66"/><circle class="cls-78" cx="122.41" cy="28.12" r="2.66"/><path class="cls-79" d="M85.31,124.42a4,4,0,0,0-1.41.72c-.07.07,0,.1,0,0s0-.08.11,0a.55.55,0,0,0,.17.09l.26.1a24.88,24.88,0,0,0,3,.69c1.06.2,2.16.4,3.18.54l.36,0h.16c.05,0,0,0,.07,0s0,0,0,.05a.39.39,0,0,0,0,.21c0,.17.09.08,0,0a6.86,6.86,0,0,0-1.08-1.24,3.61,3.61,0,0,1,1.8.57.93.93,0,0,1,.4.73.89.89,0,0,1-.22.59,1.22,1.22,0,0,1-.34.27,2,2,0,0,1-.34.15l-.26.07a4.28,4.28,0,0,1-.49.09,11.57,11.57,0,0,1-3.59-.15,9.26,9.26,0,0,1-3.45-1.29,3.2,3.2,0,0,1-.44-.38,1.65,1.65,0,0,1-.37-.57,1.28,1.28,0,0,1-.06-.85,1,1,0,0,1,.57-.59,2.14,2.14,0,0,1,1-.1A3.67,3.67,0,0,1,85.31,124.42Z"/><path class="cls-79" d="M140.13,66.63a1.37,1.37,0,0,1,1,.37,3.32,3.32,0,0,1,.7.9,6,6,0,0,1,.61,2.12,9.28,9.28,0,0,1-.56,4.28,6.9,6.9,0,0,1-1.13,2,4.12,4.12,0,0,1-1,.84,2,2,0,0,1-1.58.26,1.89,1.89,0,0,1-1.16-1,3.44,3.44,0,0,1-.35-1.14,5.13,5.13,0,0,1,.2-2.12,11,11,0,0,0,.73,1.83c.26.54.74,1,.89.86a1.79,1.79,0,0,0,.76-.74,7.88,7.88,0,0,0,.76-1.53A15.32,15.32,0,0,0,140.9,70a8.23,8.23,0,0,0,0-1.82A2,2,0,0,0,140.13,66.63Z"/><path class="cls-80" d="M125.53,25.39c-.07.53-.15,1-.18,1.56a2.82,2.82,0,0,0,.19,1.4.69.69,0,0,0,.45.36,1,1,0,0,0,.64,0,2,2,0,0,0,1-1,1.71,1.71,0,0,1-.84,1.41,1.28,1.28,0,0,1-.91.07,1.16,1.16,0,0,1-.76-.57A2.55,2.55,0,0,1,125,26.9,5.16,5.16,0,0,1,125.53,25.39Z"/><ellipse class="cls-4" cx="122.23" cy="24.4" rx="0.54" ry="0.41"/><path class="cls-48" d="M133.27,23.28c0,.26-2,1.56-4.51.39"/><ellipse class="cls-4" cx="131.12" cy="24.4" rx="0.54" ry="0.41"/><path class="cls-79" d="M124.59,30.15c.93-.11,1.72-.1,2.5-.18a9.89,9.89,0,0,0,1.14-.18c.39-.08.75-.22,1.22-.37a2.18,2.18,0,0,1-.9,1.08,3.22,3.22,0,0,1-1.36.46,3.81,3.81,0,0,1-1.39-.14A2.86,2.86,0,0,1,124.59,30.15Z"/><path class="cls-79" d="M125.74,30.53a4.14,4.14,0,0,1,1.11-.21,4.36,4.36,0,0,1,1.11.17,1.1,1.1,0,0,1-1.1.83A1.11,1.11,0,0,1,125.74,30.53Z"/><path class="cls-53" d="M146.11,85s-8.6,3.59-16.9,3.66a36.4,36.4,0,0,1-11.95-2,25.82,25.82,0,0,1-3.19-1.34s-.16-4.95-.38-6.2a20.76,20.76,0,0,0,5.2,2.06,40.4,40.4,0,0,0,25-1.52l.86.73A24.51,24.51,0,0,0,146.11,85Z"/><path d="M118.89,81.22a49.22,49.22,0,0,0-1.62,5.47,35.79,35.79,0,0,1-3.76-1.58,19.45,19.45,0,0,0,.17-6A20.44,20.44,0,0,0,118.89,81.22Z"/><path class="cls-81" d="M147.07,70.65a7.06,7.06,0,0,0,1.18-3.32c.4-3.64-1.49-7.85-2.83-11.6a44.6,44.6,0,0,1-1.65-6"/><path class="cls-81" d="M145.17,49.72a10.37,10.37,0,0,0-.2,4.68"/><path class="cls-81" d="M111.6,50.55a43.75,43.75,0,0,1-.7,6.74c-.71,3.74-2,7.78-1.63,10,.54,3.05,2.19,5.72,7,6.77"/><path class="cls-81" d="M110.64,51.37a12.53,12.53,0,0,1,.63,3.54"/><polygon class="cls-82" points="148.46 93.33 137.71 94.5 144.2 142.9 162.22 142.38 148.46 93.33"/><polygon class="cls-83" points="148.46 93.33 151.27 92.56 165.69 142.15 162.22 142.38 148.46 93.33"/></g></g></g></svg>