<svg xmlns="http://www.w3.org/2000/svg" xmlns:xlink="http://www.w3.org/1999/xlink" viewBox="0 0 336.73 412.91"><defs><style>.cls-1,.cls-25,.cls-36,.cls-44,.cls-45,.cls-48,.cls-5,.cls-51,.cls-7{fill:none;}.cls-2{fill:#96654d;}.cls-3{isolation:isolate;}.cls-4{fill:#eb9f75;}.cls-5,.cls-50,.cls-51,.cls-7{stroke:#ba5320;}.cls-36,.cls-45,.cls-48,.cls-5,.cls-7{stroke-miterlimit:10;}.cls-5,.cls-51{stroke-width:0.5px;}.cls-6{fill:url(#linear-gradient);}.cls-50,.cls-7{stroke-width:0.62px;}.cls-8{fill:#ecf4fd;}.cls-9{fill:#fec813;}.cls-10{fill:url(#linear-gradient-2);}.cls-11{fill:url(#linear-gradient-3);}.cls-12{opacity:0.25;fill:url(#linear-gradient-4);}.cls-13{fill:url(#linear-gradient-5);}.cls-14{fill:url(#linear-gradient-6);}.cls-15{fill:#38447a;}.cls-16{fill:#ef4858;}.cls-17{fill:#ff996c;}.cls-18{fill:#1b2246;}.cls-19,.cls-20,.cls-31,.cls-37,.cls-52,.cls-53,.cls-54{mix-blend-mode:multiply;}.cls-19{fill:url(#linear-gradient-7);}.cls-20{fill:url(#linear-gradient-8);}.cls-21{fill:#da946c;}.cls-22{fill:#3b2451;}.cls-23{clip-path:url(#clip-path);}.cls-24{fill:#fff;}.cls-25{stroke:#efefef;stroke-width:0.75px;}.cls-25,.cls-44,.cls-50,.cls-51{stroke-linecap:round;stroke-linejoin:round;}.cls-26{fill:url(#linear-gradient-9);}.cls-27{fill:url(#linear-gradient-10);}.cls-28{fill:url(#linear-gradient-11);}.cls-29{fill:#422959;}.cls-30{fill:#0055a0;}.cls-31{fill:url(#linear-gradient-12);}.cls-32{fill:url(#linear-gradient-13);}.cls-33{fill:url(#linear-gradient-14);}.cls-34{fill:url(#linear-gradient-15);}.cls-35{fill:url(#linear-gradient-16);}.cls-36{stroke:#1b2246;}.cls-37{fill:url(#linear-gradient-17);}.cls-38{fill:url(#linear-gradient-18);}.cls-39{fill:url(#linear-gradient-19);}.cls-40{opacity:0.68;fill:url(#linear-gradient-20);}.cls-41{fill:#ff585b;}.cls-42{fill:url(#linear-gradient-21);}.cls-43{clip-path:url(#clip-path-2);}.cls-44{stroke:#7fd4e3;stroke-width:1.24px;}.cls-45{stroke:#231530;}.cls-46{fill:url(#linear-gradient-22);}.cls-47{fill:url(#linear-gradient-23);}.cls-48{stroke:#87670e;stroke-width:2px;opacity:0.42;}.cls-49{fill:url(#linear-gradient-24);}.cls-50{fill:#f0b08a;}.cls-53{fill:url(#linear-gradient-25);}.cls-54{fill:url(#linear-gradient-26);}.cls-55{fill:#ba5320;}.cls-56{clip-path:url(#clip-path-3);}.cls-57{fill:url(#linear-gradient-27);}</style><linearGradient id="linear-gradient" x1="97.56" y1="99.9" x2="128.21" y2="99.9" gradientUnits="userSpaceOnUse"><stop offset="0" stop-color="#da946c" stop-opacity="0"/><stop offset="0.02" stop-color="#d8926a" stop-opacity="0.03"/><stop offset="0.27" stop-color="#c78159" stop-opacity="0.37"/><stop offset="0.5" stop-color="#b8734a" stop-opacity="0.64"/><stop offset="0.71" stop-color="#ae6940" stop-opacity="0.84"/><stop offset="0.88" stop-color="#a8633a" stop-opacity="0.96"/><stop offset="0.99" stop-color="#a66138"/></linearGradient><linearGradient id="linear-gradient-2" x1="-82.05" y1="-137.51" x2="-54.87" y2="-137.51" gradientTransform="translate(139.83 273.52) rotate(23.19)" xlink:href="#linear-gradient"/><linearGradient id="linear-gradient-3" x1="283.08" y1="111.69" x2="283.08" y2="155.38" gradientUnits="userSpaceOnUse"><stop offset="0" stop-color="#b6d4f7" stop-opacity="0.7"/><stop offset="1" stop-color="#b6d4f7" stop-opacity="0"/></linearGradient><linearGradient id="linear-gradient-4" x1="202.05" y1="233.26" x2="202.05" y2="319.32" gradientUnits="userSpaceOnUse"><stop offset="0" stop-color="#52519d"/><stop offset="1" stop-color="#b6d4f7" stop-opacity="0.1"/></linearGradient><linearGradient id="linear-gradient-5" x1="261.25" y1="312.69" x2="262.1" y2="312.69" gradientTransform="translate(0.46 0.8) rotate(-0.02)" gradientUnits="userSpaceOnUse"><stop offset="0.01" stop-color="#1b2246" stop-opacity="0.1"/><stop offset="1" stop-color="#1b2246" stop-opacity="0.2"/></linearGradient><linearGradient id="linear-gradient-6" x1="284.26" y1="358.42" x2="285.32" y2="358.42" xlink:href="#linear-gradient-5"/><linearGradient id="linear-gradient-7" x1="248.3" y1="103.97" x2="201.66" y2="148.06" gradientUnits="userSpaceOnUse"><stop offset="0.01" stop-color="#38447a" stop-opacity="0"/><stop offset="0.06" stop-color="#38447a" stop-opacity="0.07"/><stop offset="0.36" stop-color="#38447a" stop-opacity="0.47"/><stop offset="0.63" stop-color="#38447a" stop-opacity="0.76"/><stop offset="0.85" stop-color="#38447a" stop-opacity="0.94"/><stop offset="0.99" stop-color="#38447a"/></linearGradient><linearGradient id="linear-gradient-8" x1="226.3" y1="206.15" x2="223.04" y2="209.23" xlink:href="#linear-gradient-7"/><clipPath id="clip-path"><path class="cls-1" d="M264.22,311.27s6.44.83,8.18-7.31c.74-3.46-1.19-2.42-2.37-4.24a26.15,26.15,0,0,1-2.58-6.94s4,1.51,7.23,3,7.66,3.41,9.23,7.46,6.3,16,6.26,25.06-6.58,15.28-12,8.33c-2.16-2.78-3.8-12.07-7.69-18.87C267.58,312.63,263.92,310.4,264.22,311.27Z"/></clipPath><linearGradient id="linear-gradient-9" x1="162.75" y1="274.5" x2="196.5" y2="274.5" xlink:href="#linear-gradient"/><linearGradient id="linear-gradient-10" x1="165.46" y1="251.98" x2="208.42" y2="251.98" gradientUnits="userSpaceOnUse"><stop offset="0" stop-color="#231530" stop-opacity="0"/><stop offset="0.31" stop-color="#231530" stop-opacity="0.52"/><stop offset="0.64" stop-color="#231530"/></linearGradient><linearGradient id="linear-gradient-11" x1="190.7" y1="275.71" x2="229.13" y2="275.71" xlink:href="#linear-gradient"/><linearGradient id="linear-gradient-12" x1="115.33" y1="176.97" x2="188.71" y2="176.97" xlink:href="#linear-gradient-7"/><linearGradient id="linear-gradient-13" x1="208.43" y1="277.63" x2="281.06" y2="277.63" xlink:href="#linear-gradient-10"/><linearGradient id="linear-gradient-14" x1="169.42" y1="173.42" x2="233.25" y2="173.42" gradientUnits="userSpaceOnUse"><stop offset="0.38" stop-color="#d8926a" stop-opacity="0.15"/><stop offset="0.48" stop-color="#cd875f" stop-opacity="0.34"/><stop offset="0.64" stop-color="#bc774e" stop-opacity="0.62"/><stop offset="0.79" stop-color="#b06b42" stop-opacity="0.83"/><stop offset="0.91" stop-color="#a9643b" stop-opacity="0.95"/><stop offset="0.99" stop-color="#a66138"/></linearGradient><linearGradient id="linear-gradient-15" x1="278.77" y1="-417.93" x2="262.12" y2="-422.1" gradientTransform="matrix(1.14, -0.23, 0.2, 0.98, -35.4, 578.12)" gradientUnits="userSpaceOnUse"><stop offset="0.22" stop-color="#f1c312" stop-opacity="0"/><stop offset="0.31" stop-color="#edb819" stop-opacity="0.19"/><stop offset="0.53" stop-color="#e39f2a" stop-opacity="0.62"/><stop offset="0.69" stop-color="#dd8f35" stop-opacity="0.89"/><stop offset="0.77" stop-color="#db8939"/></linearGradient><linearGradient id="linear-gradient-16" x1="332.83" y1="326.67" x2="348.83" y2="326.67" gradientTransform="matrix(1, 0.09, -0.09, 1, -157.61, -250.18)" xlink:href="#linear-gradient-15"/><linearGradient id="linear-gradient-17" x1="166.37" y1="184.46" x2="239.35" y2="184.46" xlink:href="#linear-gradient-7"/><linearGradient id="linear-gradient-18" x1="227.64" y1="155.91" x2="240.85" y2="155.91" xlink:href="#linear-gradient"/><linearGradient id="linear-gradient-19" x1="212.32" y1="137.38" x2="237.29" y2="137.38" xlink:href="#linear-gradient"/><linearGradient id="linear-gradient-20" x1="203.69" y1="123.6" x2="223.79" y2="103.51" gradientUnits="userSpaceOnUse"><stop offset="0.26" stop-color="#d79269" stop-opacity="0.05"/><stop offset="0.35" stop-color="#d69168" stop-opacity="0.2"/><stop offset="0.49" stop-color="#d48f66" stop-opacity="0.42"/><stop offset="0.57" stop-color="#c9845b" stop-opacity="0.56"/><stop offset="0.74" stop-color="#b67148" stop-opacity="0.8"/><stop offset="0.89" stop-color="#aa653c" stop-opacity="0.95"/><stop offset="0.99" stop-color="#a66138"/></linearGradient><linearGradient id="linear-gradient-21" x1="127.04" y1="184.44" x2="136.31" y2="184.44" gradientUnits="userSpaceOnUse"><stop offset="0.22" stop-color="#231530" stop-opacity="0"/><stop offset="0.48" stop-color="#231530" stop-opacity="0.52"/><stop offset="0.77" stop-color="#231530"/></linearGradient><clipPath id="clip-path-2"><path class="cls-1" d="M270.23,370.5s6.68,5,11-.44a8.26,8.26,0,0,0,1.86-7.5c-.7-4.64-3.36-5.8-3.36-5.8s3.67,2.89,6.57,5.47,6.88,6.08,7.19,10.82.86,18.87-2.14,28.28-12.29,11.47-14.8,4.71c-1.34-3.62-.83-13.71-1.84-22.23A36.76,36.76,0,0,0,270.23,370.5Z"/></clipPath><linearGradient id="linear-gradient-22" x1="161.14" y1="267.85" x2="161.14" y2="267.85" xlink:href="#linear-gradient"/><linearGradient id="linear-gradient-23" x1="163.34" y1="126.95" x2="169.77" y2="126.95" xlink:href="#linear-gradient"/><linearGradient id="linear-gradient-24" x1="229.14" y1="135.73" x2="229.14" y2="135.73" xlink:href="#linear-gradient"/><linearGradient id="linear-gradient-25" x1="227.81" y1="137.77" x2="363.89" y2="208.39" xlink:href="#linear-gradient-7"/><linearGradient id="linear-gradient-26" x1="202.08" y1="187.35" x2="338.15" y2="257.97" xlink:href="#linear-gradient-7"/><clipPath id="clip-path-3"><path class="cls-2" d="M150,85.64c.15,0,2.59,6.56,7.9,4.58,4.11-1.54,3.72-6.57,3.72-6.57a57.55,57.55,0,0,1-11.67,2.06"/></clipPath><linearGradient id="linear-gradient-27" x1="39.53" y1="188.79" x2="39.53" y2="224.86" xlink:href="#linear-gradient-3"/></defs><title>pl_benefits_illustration</title><g class="cls-3"><g id="Layer_2" data-name="Layer 2"><g id="Layer_1-2" data-name="Layer 1"><path class="cls-4" d="M118.57,80.06c1.76,5,3,0-6-22.94-2.94-7.48-10.9-29.47-11.55-31.8-1.37-4.93-11.36-8.07-12.12,2s6.79,54.22,11.73,63.39,10.48,11.52,10.48,11.52S118.14,107,118.57,80.06Z"/><path class="cls-4" d="M101.31,25.79s-1.84-4.58-1-7.64,2.5-8.5,2-11.63S99.87-.5,97.08.05c0,0-12.5.31-16.78,2.69-5.12,2.85-.52,9.66-.52,9.66,2.36,1.15.12-.1.12-.1s-.31,6.19,3.71,8.47,4.56,4,5.66,10.27S104.86,37.35,101.31,25.79Z"/><path class="cls-5" d="M92.16,20.62s-3.23-7.18.86-10,4.09-2.48,4.09-2.48S92.05,11.18,92,7a17.85,17.85,0,0,1,3.34-3,6.56,6.56,0,0,1,5.86-1"/><path class="cls-5" d="M91.83,1.68S87,3.83,86.4,6.25s3.51,3.73,2.51,5.47c0,0,1.74,1,3.08-1.43"/><path class="cls-5" d="M85.3,2.82S82.92,4.59,83.65,7s2.16,5.13,1.82,5.83,0,.69,0,.69,5.13-2.16,3.41-1.78"/><path class="cls-5" d="M81.38,4.33s-1.6.38-.88,3.81S81.61,14,81.61,14s4.42-.74,3.61-2.64"/><path class="cls-4" d="M136.7,91.77s-8.58-8.94-11.13-11.07-11.18-18-19.49-5.11-2.86,19-2.72,19.57,15.11,19.66,19,22.42S146.06,106.68,136.7,91.77Z"/><path class="cls-6" d="M112.76,98.05a98.13,98.13,0,0,0-8.89-9.36,42.73,42.73,0,0,1-6.31-6.64,45.79,45.79,0,0,0,3,8.43A39.08,39.08,0,0,0,102.71,94c.28.52.5.83.52.94.13.58,15.11,19.66,19,22.42,1.08.77,3.4.26,6-1.2Z"/><path class="cls-7" d="M119.67,73.88s-5.26-4.34-9.63-1.74"/><path class="cls-8" d="M39.47,275.57c-16.82-11.58-26.74-34.67-28-54.21-1.51-23,12.24-44,29.79-57.75s40.19-17.05,60.17-25.9c17.08-7.56,30.38-19.9,37.05-37.52,9.43-24.92,16.94-44.76,46.28-49.74,33.25-5.65,65.11,4.73,91,25.93,14,11.5,25.41,26.72,30.39,44.17,5,17.62,3.35,36.56-1.16,54.32-3.65,14.39-9.29,28.78-9,43.84s9,24.27,19.24,34c11.91,11.3,19.94,25.22,21.32,41.88,1.64,19.88-6.66,40.57-22.5,52.93-17.66,13.78-48,18.45-69.67,18.4-27.46-.07-55-8.29-77.47-24.21-23.74-16.83-40.36-38.93-69.29-47.4C78.31,288.63,56.42,287.24,39.47,275.57Z"/><path class="cls-9" d="M160.93,105.56s-2.59-4.46-9.87-7.58c-4.12-1.77-11.69-8-13.34-8.71s-8.84-.64-14.56,11.95-4,16.13-4,16.13a100,100,0,0,0,9.25,7.85c6.17,4.64,8.4,3.95,8.07,10.8S152,102.79,160.93,105.56Z"/><path class="cls-10" d="M120.54,111s7.4,12.48,16,9.81a108.94,108.94,0,0,0,10.49-3.54s-10.36,11.1-10.36,15c0,0-14.73-14-18.8-15A16,16,0,0,1,120.54,111Z"/><path class="cls-11" d="M324.95,144.36h-.18a9.09,9.09,0,0,0-.39-1.36h0c-.06-.15-.12-.3-.19-.45l-.08-.19c-.06-.14-.13-.27-.2-.4l-.11-.21-.22-.37-.14-.22-.24-.35-.16-.21-.26-.32-.18-.21-.27-.3-.2-.2q-.23-.22-.48-.43l-.31-.26-.27-.19-.3-.21-.28-.17-.32-.19-.28-.15-.35-.17-.29-.12-.37-.14-.29-.1-.4-.12-.28-.07-.46-.09-.24,0c-.24,0-.48-.07-.72-.08A15.2,15.2,0,0,0,298,125.4a21.89,21.89,0,0,0-5.19-7.66l0,0a22,22,0,0,0-1.71-1.47l-.07-.06a21.89,21.89,0,0,0-1.83-1.26l-.11-.07a21.78,21.78,0,0,0-1.94-1l-.15-.07-.92-.4-.1,0-1-.39-.17-.06-.89-.28-.19-.06-1-.27-.18,0-.91-.18-.26,0-1.07-.15h-.13l-1-.08-.29,0c-.37,0-.74,0-1.11,0a21.76,21.76,0,0,0-15,6,10,10,0,0,0-4-.84l-.55,0H258l-.4,0-.16,0a10,10,0,0,0-1.06.19l-.14,0-.4.11-.13,0a10,10,0,0,0-1,.38l-.09,0-.41.2-.08,0a10.07,10.07,0,0,0-.94.55l0,0-.41.29,0,0a10.13,10.13,0,0,0-.86.72h0l-.39.39v0a10.06,10.06,0,0,0-2.6,5.12,15.2,15.2,0,0,0,2.13,30.24h74a5.51,5.51,0,0,0,0-11Z"/><path class="cls-12" d="M336.52,294.91A60.65,60.65,0,0,0,325,264.14a20.88,20.88,0,0,0-2,7.93c-.94-6.13-12.13-6.33-11.94,1.67-5.44-10.83-21.84-10.46-24.87-1.43a4.38,4.38,0,0,0-8-1.09c-.1-5.55-4.67-8.1-9.35-8.1a10.13,10.13,0,0,1-8.2-4.34,46.55,46.55,0,0,1-8.86-24.52,1.1,1.1,0,0,0-.19-.54h0a1.1,1.1,0,0,0-1.9.15l-.13.27c-.77,11.78-3.39,19-6,24.3-1.45,2.93-3,6.66-6.25,7.18-4.62.74-8.73,4-8,9.47a4.38,4.38,0,0,0-7.72,2.34c-4.41-8.44-20.67-6.22-24.33,5.33-1.07-7.93-12.09-6-12.05.23-2.17-9.37-8.68-15.75-17.7-7.89-3.66-8.63-17.87-15.8-27.15-7.32-1-5.26-7.72-4.55-8.71-.62,3.06-12.16-20.47-11.27-14.9,1.85-1.59-3.75-8.38-3.39-8.51,2-10.51-6.91-23.41,2.41-25.66,11.51-8-5-13.08-1.49-15.18,4.95,10.09,2.55,20.49,4.32,30.23,7.17,16.72,4.9,29.32,14.34,41.57,24.69l197.44-15.66A61.13,61.13,0,0,0,336.52,294.91Z"/><path class="cls-13" d="M262.65,313.56a2.82,2.82,0,0,0-.85-.31A1.72,1.72,0,0,0,262.65,313.56Z"/><path class="cls-14" d="M284.83,358.56l1.06,1.14A4.17,4.17,0,0,0,284.83,358.56Z"/><path class="cls-15" d="M168.9,93a21.26,21.26,0,0,1,14.4-16.72l.6-.18c9.65-2.76,30,0,36.52,27.56s10.68,92.67,10.68,92.67-11.37,14.12-41.34,12.06C189.75,208.42,162.51,129.76,168.9,93Z"/><path class="cls-16" d="M234.9,213.48c-.82,8.14,2.82,16.67,4.52,18.64l.81-2.64c.84,4.72,6.61,11.85,10.53,15.22l-6-33.49Z"/><path class="cls-16" d="M254.7,208.95c3.54,7.14,3.1,16.6,2.21,19.17L255.26,226c.84,4.72-2,13.83-4.51,18.67l-6-33.49Z"/><path class="cls-17" d="M238.51,212.65c-.52,5.17,1.79,10.58,2.87,11.84l.51-1.68c.53,3,4.19,7.52,6.69,9.67l-3.78-21.27Z"/><path class="cls-17" d="M251.08,209.77c2.25,4.53,2,10.54,1.4,12.17l-1-1.32c.53,3-1.29,8.78-2.86,11.85l-3.78-21.27Z"/><path class="cls-18" d="M258,196.36c1.35.3,4.82,7.23,3.44,8.61s-9.3,9.3-32.38,7.23c0,0,3-6,2.18-8S248.65,194.29,258,196.36Z"/><path class="cls-15" d="M200.59,93A21.26,21.26,0,0,1,215,76.31l.6-.18c9.65-2.76,30,0,36.52,27.56,5.54,23.32,9.35,73.54,10.39,88.43a8.73,8.73,0,0,1-3.52,7.65c-4.85,3.57-14.61,8.68-30.82,8.85a9,9,0,0,1-8.71-6.25C213.26,183.25,195.27,123.61,200.59,93Z"/><path class="cls-19" d="M239.35,174c12.75.34,3.44-28.94,1.38-32s4.13-2.76,4.13-2.76-1.72-2.07-4.48-9.3.34-26.18-12.75-34.1c-10.87-6.58-16-6.06-21.64-6.67a2.07,2.07,0,0,1-1.65-2.93,14.5,14.5,0,0,1,3.3-4.87c-7.68-4.91-13.14-2.64-17,2.2a8,8,0,0,1-13.79-2.12,6.26,6.26,0,0,1-.4-1.83c-2.93,69.09,51,128.66,51.16,128.89h1.5c19.41,0,9.87-21,9.87-21S233.72,173.82,239.35,174Z"/><path class="cls-20" d="M227.64,208.45h0C210.69,208.42,227.64,208.45,227.64,208.45Z"/><path class="cls-21" d="M176.9,76.13s1.59,11,3.81,16.54,3.81,24.46-6.66,27.9-20,2.07-20.94-8.61-1.33-13.59-1.33-13.59S165.48,64.77,176.9,76.13Z"/><path class="cls-4" d="M192.58,296.1s6.47,4.13,21.26,4.43,57.51,12.88,57.51,12.88,12.82-8.66,2.29-16.51c0,0-11.71-3-49-15.74-19.92-6.79-33-4-33.65-3.82C183.64,279.74,192.58,296.1,192.58,296.1Z"/><path class="cls-22" d="M172,290.68l91.14,22.44s9.57-6.33,2.94-20.53l-76.55-21.45Z"/><path class="cls-18" d="M264.22,311.27s4,1.19,6.52-3.62c1.5-2.82.68-6.61-1.36-9.38-1.58-2.14-2.2-3.28-3.09-3.9,0,0,6.55,1.35,8.52,1.74a13,13,0,0,1,9.23,7.46c1.57,4,5.92,16.21,5.88,25.23s-7.57,13.36-11.61,8.16c-2.16-2.78-4.48-11.72-7.69-18.87C267.83,311.86,264.22,311.27,264.22,311.27Z"/><g class="cls-23"><path class="cls-24" d="M277.09,296.8s3.87,1.76,6.88,10.93,5.66,19.79,3.16,25.76c-1.12,2.69-4.72.05-6.5,2.59-2.61,3.73,5.33,3.73,5.17,4s1,.37,1,.37,4.22-4.4,4.4-4.72,2.76-28,2.8-29-9.62-12.87-10.14-13.3S277.09,296.8,277.09,296.8Z"/></g><line class="cls-25" x1="269.87" y1="311.84" x2="276.25" y2="311.67"/><line class="cls-25" x1="270.58" y1="314.15" x2="275.55" y2="309.36"/><line class="cls-25" x1="271.2" y1="315.71" x2="277.58" y2="315.54"/><line class="cls-25" x1="272.11" y1="317.96" x2="277.15" y2="313.27"/><line class="cls-25" x1="273.27" y1="319.69" x2="279.65" y2="319.52"/><line class="cls-25" x1="273.92" y1="322.15" x2="278.62" y2="317.02"/><path class="cls-26" d="M162.75,270.33s20.25,14.75,32.75,11.6c0,0,1.36-9.14.9-13.71S162.75,270.33,162.75,270.33Z"/><path class="cls-22" d="M209.66,301.92,206.94,276l-10.79,1.4-4.48-71.07s-42-12.06-40-2.41c0,0,1.81,6.18,3,18.6,1.14,12.19,4,44.89,5.17,55.87h0s-.34,20,19.41,20.22l36.63,5.77Z"/><path class="cls-27" d="M202.23,300.79l-2.72-25.9-10.79,1.4-4.48-71.07s-10.33-2.77-18.78-4.52c3.19,8.84,9.85,33.58,2.74,59.59,0,0-6,20.16,2.86,36.57.33,0,3.89,1.39,3.89,1.39l33.47,5Z"/><path class="cls-4" d="M189.08,262.85s4.38,21,7.67,31,25.91,26.73,31.23,10c2.41-7.58.61-66-1.38-73C222.82,217.37,184,231.15,189.08,262.85Z"/><path class="cls-28" d="M190.7,273.18s16.85,16,38.43,10.76c0,0-.45-17-.45-17.48S190.7,273.18,190.7,273.18Z"/><path class="cls-4" d="M199.19,298.77s.89,7.13,13.29,17.81,61.66,59.25,61.66,59.25,15.16.69,11.71-13.44c0,0-13.52-8.34-32.73-39.62-12.06-19.64-28.56-31.07-29.28-31.35C215.93,288.34,199.19,298.77,199.19,298.77Z"/><path class="cls-29" d="M225,194.29s1.29,4.82,2.58,22,3.55,67.18,3.55,67.18a36.78,36.78,0,0,1-23.22,10.33c-14.19.69-19-3.36-19-3.36s-5.78-58.65-7.39-61.75-4.51-1.38-5.8-20C175,200.26,218.51,189.47,225,194.29Z"/><path class="cls-15" d="M188.37,179.83c-.31.14-50.84,22.14-54.91,21.6-2.56-.34-16.44-2.15-16.4-3.69.08-3.08-1.9-11.82-1.72-12.4.31-1,51.33-16.88,53.05-19.29s21.36-1.38,21.36,1.38S191.47,178.45,188.37,179.83Z"/><path class="cls-30" d="M115.34,185.68s16.54,2.76,17.57,2.76c0,0,1.38,11.71,1,12.75-.45,1.34-17.13-2.36-17.22-3.44C116,190.16,115.34,185.68,115.34,185.68Z"/><path class="cls-31" d="M188.71,166.39s-54.77,22.74-55.81,22.39c-1.46-.49-17.22-3.1-17.57-3.44s55.77-19.45,59.42-19.84S185.27,164.67,188.71,166.39Z"/><path class="cls-29" d="M280.86,352l-45-55.32s-4.4-5.47-4.88-15.87l-42.16,9s-.69,10.68,16.54,26.53l60.93,54.2S283.08,373.34,280.86,352Z"/><path class="cls-32" d="M235.84,296.53s-4.4-5.47-4.88-15.87c-.49-10.65-2.31-49.64-3.42-64.45-1.29-17.22-2.58-22-2.58-22-1.77-1.33-6.34-1.47-12-.81a96.65,96.65,0,0,1,.5,45.27c-2.15,9.28-5.7,18.52-4.9,28,.91,10.73,7.31,20.22,14.55,28.19s15.57,15,21.77,23.82c6.56,9.33,10.51,20.3,17.18,29.55,4.5,6.24,10.91,11.76,18,14.09a24.92,24.92,0,0,0,.76-10.43Z"/><path class="cls-9" d="M181.82,93.7s-2.58,19.12-14.47,27.56c0,0-8.61,1-12.4-10.68s-10.11-5.85-10.11-5.85-4.62,29.7,1.24,57.94c5.57,26.86,1.26,33.31,2,42.64.16,2,3.08,3.73,4.56,4.68A49,49,0,0,0,164,215.17,55.22,55.22,0,0,0,178.74,218c10.37.43,20.68-2.69,30.36-6.09,9.46-3.32,18.43-7.1,24.15-15.5a117.38,117.38,0,0,1-6.9-23.69c-2.41-13.44-9-38.66-8.7-53.47s2.85-15.43,2.85-15.43S189.75,89.57,181.82,93.7Z"/><path class="cls-18" d="M150.92,93.85a71.4,71.4,0,0,0-7.4,24.63,152.8,152.8,0,0,0-.41,18.58,91.58,91.58,0,0,0,1.12,12.06h0s-8.76-7.24-9-30.66c-.19-19,6.38-25,6.38-25S147.88,92.33,150.92,93.85Z"/><path class="cls-33" d="M200.42,129.87s17.57,41.34-4.48,57.87-26.53,16.54-26.53,16.54,2.74,8.13,4,8.37S184.63,218,184.63,218l13.78-2.72c.5-.07,1.69-.53,2.19-.63,6.32-1.3,8.5-2.79,8.5-2.79s18.29-4.82,24.15-15.5a159.15,159.15,0,0,0-10.78-26.18c-6.63-12.2-9-41.34-9-41.34L199,131.6"/><path class="cls-34" d="M173.21,115.41s10.05-5.44,19.15-.57c0,0,.13-17.17-6.06-21.24L179.22,96S178,109.89,173.21,115.41Z"/><path class="cls-9" d="M179.41,88.19s8.1,1.21,10.16,11.88,1.72,13.78,1.72,13.78-4-5.34-16-1.55C175.28,112.3,180.44,99.56,179.41,88.19Z"/><path class="cls-35" d="M158.37,116.81s-5.82-4.35-11.73-.41-4.12-.39-4.12-.39a74,74,0,0,1,6.72-16.32c4.54-7.88,4.84-3.3,4.84-3.3S153.5,109.78,158.37,116.81Z"/><path class="cls-9" d="M151.11,92.77s-5.84,3.26-9.17,24.05c0,0,4.79-6.82,14.58-4.17,0,0-2.52-11.83-2-17.66S151.11,92.77,151.11,92.77Z"/><path class="cls-18" d="M142.41,43.07a26.31,26.31,0,0,0-2.13,24.56s7.43,2.61,7.33-20.45C147.61,47.18,146.06,39.43,142.41,43.07Z"/><path class="cls-21" d="M172.61,46s-20.19-8.83-28.6,4.21-2.1,50.48,14.3,49.64S179.34,79.7,181,69.6,178.5,47.73,172.61,46Z"/><path class="cls-36" d="M157.9,62.07s1.66-3.3,7.43-.3"/><path class="cls-36" d="M142.74,63.45s1.19-2.94,6.27-.19"/><path class="cls-15" d="M239,187.4c-.31.14-45.29,21.22-54.77,22.39-2.56.32-16.54-3-16.54-3.36,0-3.08-1.49-12.76-1.32-13.34.31-1,50.93-17.06,52.65-19.48s21.36-1.38,21.36,1.38S242.11,186,239,187.4Z"/><path class="cls-37" d="M239.35,174s-54.74,22.61-55.81,22.39c-1.72-.34-16.83-2.92-17.17-3.26s50.69-19.91,54.34-20.29S235.91,172.25,239.35,174Z"/><path class="cls-4" d="M235.22,134s4.82,24.11,5.51,31.69-13.44,15.5-17.22,6.89S211.79,139.86,210.41,133,228.67,116.44,235.22,134Z"/><path class="cls-4" d="M229.36,155.37A147.82,147.82,0,0,0,210.41,165,155.46,155.46,0,0,1,188,175.69s-7.51,11.79,4.13,10.33c13.78-1.72,42.77-6.17,46.7-15S229.36,155.37,229.36,155.37Z"/><path class="cls-38" d="M227.64,133.32S239,173.74,228,178.5c0,0,11.4-3.1,12.77-11.77C241.8,160,235.22,134,235.22,134Z"/><path class="cls-39" d="M212.32,140.21s21.53-3.71,25,4.52l-2.42-12.44S223.18,123.67,212.32,140.21Z"/><path class="cls-9" d="M224.63,105.49s7.58,2.76,9.23,16.56c2,16.43,3.63,20,3.63,20s-17.18-6-26.56,3.58a47,47,0,0,1-5-19.33C205.66,115.62,202.24,94.81,224.63,105.49Z"/><path class="cls-40" d="M229.94,140.23a38.75,38.75,0,0,1,7.53,1.61s-1.67-3.58-3.63-20c-1.65-13.8-9.23-16.56-9.23-16.56a41.29,41.29,0,0,0-4.13-1.72h0s-30.75-14.2-38.67-10.07a52.24,52.24,0,0,1-1.51,6.71c7.42.73,33.34,3.82,41.57,12C221.86,112.25,225.9,116.14,229.94,140.23Z"/><path class="cls-41" d="M168.2,176.38s-.16-.69,1.34-.76c2.18-.1,5.26-.62,5.7.42s0,5.51,0,5.51h-7Z"/><path class="cls-42" d="M135.32,184s2.24.47,0,1c-1.38.34-8.61,1-8.27-.69C127.33,182.87,128.58,183.61,135.32,184Z"/><path class="cls-41" d="M128.24,174.22a1.37,1.37,0,0,1,1.34-1.53c2.18-.21,5.39-.44,5.7.84.39,1.63.15,7.59,0,10,0,.61-.28,1.07-.58,1.07h-5.92c-.32,0-.58-.52-.58-1.17Z"/><path class="cls-4" d="M191.32,174.39a7.35,7.35,0,0,1-4-.08c-1.72-.69-4.82-3.79-7.92-3.44s-8.27,2.07-10,1.72-1.72,3.44,3.1,3.1,5.17-.34,5.51.69c.79,2.38-3.44,3.79-6.55,3.44a3.33,3.33,0,0,1-2.88-1.61,2.15,2.15,0,0,0-2.07-1.15c-1,.07-1.95.66-1.95,2.76,0,4.13-.34,7.92,2.41,12.06,0,0,2.41,2.07,10,1.72s8.61-7.58,17.23-7.84Z"/><path class="cls-18" d="M211.79,92s-9.3,11-7.92,25.49,6.89,23.08,6.89,23.08l2.77,6.24s-16.65-5.58-17.93-29c-1-18.95,6.89-25.84,6.89-25.84S208.69,90.6,211.79,92Z"/><path class="cls-18" d="M270.36,372.05s2.76,3.1,7.58-.69a9.56,9.56,0,0,0,4.16-9c-.52-4.13-3.12-5.43-3.12-5.43a65,65,0,0,1,7.33,5.33c2.9,2.58,6.88,6.08,7.19,10.82s.86,18.87-2.14,28.28-12.29,11.47-14.8,4.71c-1.34-3.62-.83-13.71-1.84-22.23A24.8,24.8,0,0,0,270.36,372.05Z"/><g class="cls-43"><path class="cls-24" d="M288.47,364.13s3.46,3.11,3.6,13.67-.59,22.53-5.15,27.94c-2.06,2.44-4.95-1.5-7.64.57-4,3,4.34,5.64,4.08,5.87s1,.73,1,.73,5.85-3.21,6.14-3.48,12.07-28.3,12.46-29.4-5.82-16.6-6.22-17.22S288.47,364.13,288.47,364.13Z"/></g><line class="cls-25" x1="276" y1="377.47" x2="282.72" y2="379.39"/><path class="cls-44" d="M283.08,383.93"/><path class="cls-44" d="M276.36,382"/><path class="cls-44" d="M283.49,388.62"/><path class="cls-44" d="M276.78,386.7"/><line class="cls-25" x1="275.98" y1="380.11" x2="282.74" y2="376.75"/><line class="cls-25" x1="275.79" y1="381.94" x2="282.51" y2="383.86"/><line class="cls-25" x1="276.32" y1="384.6" x2="283.13" y2="381.35"/><line class="cls-25" x1="276.78" y1="386.69" x2="283.5" y2="388.61"/><line class="cls-25" x1="276.84" y1="389.56" x2="283.43" y2="385.75"/><path class="cls-45" d="M212.48,212.9s1.38,9,13.09,4.13"/><path class="cls-46" d="M161.14,267.85"/><path class="cls-47" d="M163.56,120.57c-.78-1,.69,13.78.69,13.78l1.25-10a3.2,3.2,0,0,1,.78-1.73l3.47-3S164.94,122.3,163.56,120.57Z"/><path class="cls-48" d="M175.28,112.3c-3.1,6.2-6,7.58-7.66,8.61s-8.53.34-10.94-8.27"/><path class="cls-49" d="M229.14,135.73"/><path class="cls-50" d="M224,157.95a36.43,36.43,0,0,0-5,2.26"/><path class="cls-51" d="M165.11,177.93c0,1.31.35,4.23,1.72,4.89S173.9,184,173.9,184"/><path class="cls-51" d="M164.43,181.72s.34,2.76,1.38,3.66c1.57,1.38,7.23,1.22,8.27,1.33"/><path class="cls-51" d="M164.77,186.2a3.41,3.41,0,0,0,2.87,2.79c2.09.31,6.77.66,6.77.66"/><path class="cls-51" d="M165.46,189a3.81,3.81,0,0,0,2.77,2.41c2.4.34,6.53.69,6.53.69"/><path class="cls-45" d="M221.78,228.4s2.41,36.17,3.79,37.89,0,5.32,0,5.32"/><path class="cls-18" d="M254.85,206.35l1.72,5.13s-11,6.92-22.74,4.28l-.34-5.28Z"/><g class="cls-52"><path class="cls-53" d="M262.43,191.88s-.69-10-1.37-18.29-5.18-60.26-10.56-75.38S235,78.56,235,78.56c15.66,12.07,19.14,72.67,19.48,99.2a48.41,48.41,0,0,1-2.2,16.24A23.63,23.63,0,0,1,241,207.21h0l-.2.07.17,0-.3.16s10.57,0,17.65-4.82c1.07-.67,1.38.34,2.41,2.07.76.57,1-.05,1-.69a5.39,5.39,0,0,0-.26-1.65L260,198.77A8.29,8.29,0,0,0,262.43,191.88Z"/><path class="cls-54" d="M240.78,207.27l-.4.11Z"/></g><path class="cls-18" d="M150.82,85.09l-3.44.34,3.57.31A2,2,0,0,1,150.82,85.09Z"/><path class="cls-21" d="M153.18,68.46A14.83,14.83,0,0,1,151.43,75s-.44,2.62,3.49,2.18"/><path class="cls-55" d="M153.18,68.46a9.56,9.56,0,0,1-.08,3.49,10.43,10.43,0,0,1-1.25,3.31l.06-.16A1.64,1.64,0,0,0,152,76a1.52,1.52,0,0,0,.65.68,3.48,3.48,0,0,0,1,.38c.38.08.78.12,1.19.18a4,4,0,0,1-2.52.08,2.12,2.12,0,0,1-1.13-.89,2.27,2.27,0,0,1-.32-1.46v-.07l0-.09A26.44,26.44,0,0,0,153.18,68.46Z"/><ellipse class="cls-18" cx="145.22" cy="67.6" rx="1.21" ry="1.38"/><ellipse class="cls-18" cx="160.73" cy="67.6" rx="1.21" ry="1.38"/><path class="cls-18" d="M182.75,46.44c-.41-2.14-.63-4.42-1.79-6.31a9.07,9.07,0,0,0-7.73-4.5l-.25,0-.37-.16a.63.63,0,0,1-.17-.51c0-1.71-1-3.09-3.13-4a26.51,26.51,0,0,0-4-1.19,27.16,27.16,0,0,1-6.15-1.87l-1-.54-.29.07v2.34a3,3,0,0,1-.53-.2c-1.61-1-3.25-2.07-4.82-3.14-.91-.63-1.06-.69-2.12-.15a10.63,10.63,0,0,0-4.76,5.2,14.14,14.14,0,0,0-.69,1.69l-2.65-1.06a13.58,13.58,0,0,0-3.42,3.79h0l0,.07a11.54,11.54,0,0,0-1.64,4.92s0,.35,0,.93a13.69,13.69,0,0,0,.12,2.22c.22,2.52.83,5.83,2.42,7.1l1.39-2.95a25.36,25.36,0,0,0,6,1.39c.84.1,1.63,0,2.48.08A58.52,58.52,0,0,0,165,47.46c5.47-1.81,9.82,5.13,8.7,14.23a29.67,29.67,0,0,0,1.06,9.84c.51,1.81.78.84,2.18.37,2.19-.72,4-4,5.84-9.08a23.42,23.42,0,0,0,1.15-8.36,46.57,46.57,0,0,0-1.16-7.86Z"/><path class="cls-21" d="M176.36,68.83s3.57-8,7.21-2.6-1.91,15.88-5.42,12.21S175.27,70.83,176.36,68.83Z"/><path class="cls-18" d="M147.46,83.79a13.82,13.82,0,0,0,2.48-1.6,13.85,13.85,0,0,1,8.92-2c4.82.29,12.67,1.33,14.88-4.44,1.14-3,.79-6.5.5-9.6,0,0,3.1,8.61,3.44,13.78s-4.4,17.18-16.07,19.69C149.1,102.31,144.1,88.67,142.21,82A4.27,4.27,0,0,0,147.46,83.79Z"/><path class="cls-2" d="M150,85.64c.15,0,2.59,6.56,7.9,4.58,4.11-1.54,3.72-6.57,3.72-6.57a57.55,57.55,0,0,1-11.67,2.06"/><g class="cls-56"><path class="cls-24" d="M151.34,85.45l.53,1.37s7.72,1,10.46-3.55l-11.4,1.28Z"/></g><path class="cls-21" d="M180.13,68.36a1.83,1.83,0,0,0-.59,1.88c.26,1,1.49,1.27,1.72,2.23s-.48,2-1,2.67"/><path class="cls-55" d="M180.13,68.36A2,2,0,0,0,179.9,70c.15.46.6.72,1.16,1.21a2.15,2.15,0,0,1,.65,1.05,2.07,2.07,0,0,1-.12,1.19,4,4,0,0,1-1.29,1.63,15.68,15.68,0,0,0,.54-1.84,1.56,1.56,0,0,0,0-.74,1.32,1.32,0,0,0-.42-.56c-.2-.2-.48-.41-.73-.69a2,2,0,0,1-.51-1.1A1.77,1.77,0,0,1,180.13,68.36Z"/><path class="cls-57" d="M79,215c0-.23,0-.46,0-.7a10.51,10.51,0,0,0-6.13-9.55,10.51,10.51,0,0,0-16.17-6.7,18.13,18.13,0,0,0-5.9-6.36h0a18,18,0,0,0-2.8-1.5l-.07,0-.51-.21-.13,0-.46-.17-.17-.06-.43-.14-.2-.06-.41-.12-.22-.06-.4-.1-.23-.05-.39-.08-.24,0-.39-.07-.25,0-.39-.05-.25,0-.4,0-.25,0-.44,0H41a18,18,0,0,0-17.83,15.32,10.53,10.53,0,0,0-2.34-.26l-.77,0-.25,0-.5.06L19,204l-.44.08-.31.08-.4.11-.32.1-.38.13-.31.12-.36.15-.31.15-.34.18-.3.17-.16.09h0A10.55,10.55,0,0,0,11.23,210a7.82,7.82,0,1,0-3.41,14.85H68.55A10.51,10.51,0,0,0,79,215.17Z"/><path class="cls-15" d="M237.48,188.07a1.45,1.45,0,0,1,2.14.88l.77-2.8Z"/><path class="cls-30" d="M183.59,196.78a.52.52,0,0,0-.45-.47c-2.39-.35-13.5-2.64-16.45-3.25a.53.53,0,0,0-.64.58c.2,1.86.79,7,1.59,12.65a.85.85,0,0,0,.49.57,159.77,159.77,0,0,0,16.44,2.93C184.89,209.8,183.82,199.07,183.59,196.78Z"/></g></g></g></svg>