<svg xmlns="http://www.w3.org/2000/svg" xmlns:xlink="http://www.w3.org/1999/xlink" viewBox="0 0 261.91 260.04"><defs><style>.cls-1,.cls-19,.cls-22,.cls-24,.cls-27,.cls-37,.cls-40,.cls-42,.cls-56{fill:none;}.cls-2{isolation:isolate;}.cls-3{opacity:0.3;}.cls-4{fill:#ffd0c0;}.cls-5{fill:#ff8547;}.cls-6{fill:#f9b298;}.cls-7{fill:#8e4123;}.cls-8{fill:#f2f2f2;}.cls-9{fill:#5ed4ef;}.cls-10{fill:#3ac6dd;}.cls-11{fill:#d67447;}.cls-12{fill:#b35529;}.cls-13{fill:#7a3a1c;}.cls-13,.cls-14{opacity:0.32;}.cls-14,.cls-15,.cls-38{fill:#ffb692;}.cls-15{opacity:0.11;}.cls-16,.cls-47{fill:#fff;}.cls-17{fill:url(#linear-gradient);}.cls-18{fill:url(#linear-gradient-2);}.cls-19,.cls-24{stroke:#ffb692;}.cls-19,.cls-22,.cls-24,.cls-27,.cls-37,.cls-42,.cls-56{stroke-miterlimit:10;}.cls-19{stroke-width:0.25px;opacity:0.29;}.cls-20{fill:#ffd5bf;}.cls-21{fill:#8a5239;}.cls-22{stroke:#f2f2f2;stroke-width:3px;}.cls-23{opacity:0.39;fill:url(#linear-gradient-3);}.cls-23,.cls-25,.cls-28,.cls-33,.cls-34,.cls-45{mix-blend-mode:multiply;}.cls-24{stroke-width:2px;}.cls-25{fill:url(#linear-gradient-4);}.cls-26{opacity:0.5;}.cls-27{stroke:#fff;}.cls-27,.cls-37,.cls-42,.cls-56{stroke-width:0.5px;}.cls-28{fill:url(#linear-gradient-5);}.cls-29{fill:#1c1b1c;opacity:0.1;}.cls-30{fill:#231f20;}.cls-31{fill:#1b2246;}.cls-32{fill:#005894;}.cls-33{fill:url(#linear-gradient-6);}.cls-34{fill:url(#linear-gradient-7);}.cls-35{fill:#0079c9;}.cls-36{fill:#ff585b;}.cls-37{stroke:#053e4f;}.cls-39{fill:#fefefe;}.cls-40,.cls-42{stroke:#ba5320;}.cls-40{stroke-linecap:round;stroke-linejoin:round;stroke-width:0.62px;}.cls-41{fill:url(#linear-gradient-8);}.cls-43{fill:#ef9e11;}.cls-44{fill:#fec813;}.cls-45{fill:url(#linear-gradient-9);}.cls-46{fill:#da946c;}.cls-47{fill-rule:evenodd;}.cls-48{fill:#1a2146;}.cls-49{fill:#ba5427;}.cls-50{fill:url(#linear-gradient-10);}.cls-51{fill:url(#linear-gradient-11);}.cls-52{fill:url(#linear-gradient-12);}.cls-53{fill:url(#linear-gradient-13);}.cls-54{fill:url(#linear-gradient-14);}.cls-55{fill:url(#linear-gradient-15);}.cls-56{stroke:#ae246c;}.cls-57{fill:#43c59e;}.cls-58{clip-path:url(#clip-path);}.cls-59{fill:url(#linear-gradient-16);}.cls-60{clip-path:url(#clip-path-2);}.cls-61{fill:url(#linear-gradient-17);}.cls-62{clip-path:url(#clip-path-3);}.cls-63{fill:url(#linear-gradient-18);}.cls-64{clip-path:url(#clip-path-4);}.cls-65{opacity:0.6;fill:url(#linear-gradient-19);}</style><linearGradient id="linear-gradient" x1="64.48" y1="166.17" x2="139.08" y2="122.06" gradientUnits="userSpaceOnUse"><stop offset="0.56" stop-color="#ffb692" stop-opacity="0"/><stop offset="0.63" stop-color="#ffb692" stop-opacity="0.17"/><stop offset="0.72" stop-color="#ffb692" stop-opacity="0.39"/><stop offset="0.81" stop-color="#ffb692" stop-opacity="0.57"/><stop offset="0.89" stop-color="#ffb692" stop-opacity="0.7"/><stop offset="0.95" stop-color="#ffb692" stop-opacity="0.77"/><stop offset="1" stop-color="#ffb692" stop-opacity="0.8"/></linearGradient><linearGradient id="linear-gradient-2" x1="63.73" y1="136.55" x2="136.22" y2="96.47" xlink:href="#linear-gradient"/><linearGradient id="linear-gradient-3" x1="208.42" y1="149.38" x2="179.13" y2="196.86" gradientUnits="userSpaceOnUse"><stop offset="0" stop-color="#ae246c" stop-opacity="0"/><stop offset="0.18" stop-color="#ae246c" stop-opacity="0.21"/><stop offset="0.44" stop-color="#ae246c" stop-opacity="0.46"/><stop offset="0.67" stop-color="#ae246c" stop-opacity="0.65"/><stop offset="0.87" stop-color="#ae246c" stop-opacity="0.76"/><stop offset="1" stop-color="#ae246c" stop-opacity="0.8"/></linearGradient><linearGradient id="linear-gradient-4" x1="172.19" y1="123.54" x2="139.48" y2="135.15" gradientUnits="userSpaceOnUse"><stop offset="0.01" stop-color="#9e9e9e"/><stop offset="0.1" stop-color="#9e9e9e" stop-opacity="0.97"/><stop offset="0.21" stop-color="#9d9d9d" stop-opacity="0.87"/><stop offset="0.33" stop-color="#9b9b9b" stop-opacity="0.71"/><stop offset="0.46" stop-color="#999" stop-opacity="0.48"/><stop offset="0.6" stop-color="#969696" stop-opacity="0.2"/><stop offset="0.68" stop-color="#949494" stop-opacity="0"/></linearGradient><linearGradient id="linear-gradient-5" x1="123.83" y1="191.11" x2="204.91" y2="199.68" xlink:href="#linear-gradient-4"/><linearGradient id="linear-gradient-6" x1="192.85" y1="158.36" x2="215.22" y2="158.36" gradientUnits="userSpaceOnUse"><stop offset="0" stop-color="#231f20" stop-opacity="0"/><stop offset="0.03" stop-color="#231f20" stop-opacity="0.04"/><stop offset="0.61" stop-color="#231f20" stop-opacity="0.6"/><stop offset="1" stop-color="#231f20" stop-opacity="0.8"/></linearGradient><linearGradient id="linear-gradient-7" x1="189.19" y1="147.93" x2="198.64" y2="93.54" xlink:href="#linear-gradient-6"/><linearGradient id="linear-gradient-8" x1="158.61" y1="64.51" x2="201.89" y2="62.86" gradientUnits="userSpaceOnUse"><stop offset="0.56" stop-color="#88898a" stop-opacity="0"/><stop offset="0.58" stop-color="#88898a" stop-opacity="0.05"/><stop offset="0.71" stop-color="#88898a" stop-opacity="0.37"/><stop offset="0.83" stop-color="#88898a" stop-opacity="0.61"/><stop offset="0.93" stop-color="#88898a" stop-opacity="0.75"/><stop offset="1" stop-color="#88898a" stop-opacity="0.8"/></linearGradient><linearGradient id="linear-gradient-9" x1="201.31" y1="230.13" x2="215.07" y2="144.76" xlink:href="#linear-gradient-6"/><linearGradient id="linear-gradient-10" x1="175.96" y1="79.68" x2="157.76" y2="82.68" gradientUnits="userSpaceOnUse"><stop offset="0.18" stop-color="#0079c9" stop-opacity="0"/><stop offset="0.38" stop-color="#0669aa" stop-opacity="0.28"/><stop offset="0.64" stop-color="#0b588b" stop-opacity="0.56"/><stop offset="0.85" stop-color="#0f4e77" stop-opacity="0.74"/><stop offset="1" stop-color="#104a70" stop-opacity="0.8"/></linearGradient><linearGradient id="linear-gradient-11" x1="182.92" y1="114.34" x2="162.27" y2="118.71" xlink:href="#linear-gradient-10"/><linearGradient id="linear-gradient-12" x1="241.99" y1="87.04" x2="209.2" y2="74.08" gradientUnits="userSpaceOnUse"><stop offset="0.56" stop-color="#07566e" stop-opacity="0"/><stop offset="0.61" stop-color="#07536a" stop-opacity="0.14"/><stop offset="0.77" stop-color="#084c61" stop-opacity="0.5"/><stop offset="0.91" stop-color="#08485b" stop-opacity="0.72"/><stop offset="1" stop-color="#084659" stop-opacity="0.8"/></linearGradient><linearGradient id="linear-gradient-13" x1="171.69" y1="79.55" x2="183.77" y2="69.68" xlink:href="#linear-gradient-10"/><linearGradient id="linear-gradient-14" x1="212.24" y1="65.18" x2="198.8" y2="62.53" xlink:href="#linear-gradient-10"/><linearGradient id="linear-gradient-15" x1="212.75" y1="79.99" x2="195.06" y2="76.49" xlink:href="#linear-gradient-10"/><clipPath id="clip-path"><path class="cls-1" d="M148.57,137.13s22.13,15,21.9,49.56,0,64.55,0,64.55h-3.92s3-36,1.84-44.26-4-8.14-8.88-11.07.81-8.76-2.42-12.45-5.07-1.61-3.46-10.84-6.84-8.76-7.22-16.6S149.72,145.43,148.57,137.13Z"/></clipPath><linearGradient id="linear-gradient-16" x1="14208.08" y1="162.91" x2="14188.71" y2="170.53" gradientTransform="translate(-14032.47)" gradientUnits="userSpaceOnUse"><stop offset="0.32" stop-color="#43c59e" stop-opacity="0"/><stop offset="0.4" stop-color="#42bd98" stop-opacity="0.19"/><stop offset="0.53" stop-color="#41b190" stop-opacity="0.48"/><stop offset="0.67" stop-color="#3fa889" stop-opacity="0.7"/><stop offset="0.79" stop-color="#3fa184" stop-opacity="0.87"/><stop offset="0.9" stop-color="#3e9d81" stop-opacity="0.97"/><stop offset="0.99" stop-color="#3e9c80"/></linearGradient><clipPath id="clip-path-2"><path class="cls-1" d="M199.82,157.53s.39,13.23-5.66,17.87-3.35,6.67-3.46,9.37a9.65,9.65,0,0,1-4.41,7.55c-2.71,1.62,1.23,6.4-7.17,12.45s-5.67,23.43-4.85,31.4l-1.71.18s-1.79-22.17,1.34-35.65c3.2-13.77,7-23.75,15.92-32S199.82,157.53,199.82,157.53Z"/></clipPath><linearGradient id="linear-gradient-17" x1="-10628.38" y1="178.33" x2="-10639.39" y2="184.92" gradientTransform="matrix(-1, 0, 0, 1, -10451.7, 0)" xlink:href="#linear-gradient-16"/><clipPath id="clip-path-3"><path class="cls-1" d="M129.63,176a10.9,10.9,0,0,1,3.83,5.63c1,3.55,2.41,6.54,4.78,7.55,6.65,2.83,2.16,6.9,7.2,10.39,2.71,1.88,4.43,3.36,5.19,6.48,1,4,1.87,5.24,5.17,7,.65.35,4.79-.68,6.81,3.34,2.77,5.5,3.49,16.6,3.46,18.26h1.52a74.21,74.21,0,0,0-5.4-26.43C155.93,193.56,143.22,178.86,129.63,176Z"/></clipPath><linearGradient id="linear-gradient-18" x1="-10595.49" y1="199.45" x2="-10601.6" y2="193.89" gradientTransform="matrix(-1, 0, 0, 1, -10451.7, 0)" xlink:href="#linear-gradient-16"/><clipPath id="clip-path-4"><path class="cls-1" d="M165.72,251.18h9.57a7.78,7.78,0,0,0,7.63-6.24L186.75,226a3.62,3.62,0,0,0-3.54-4.33H157.48a3.36,3.36,0,0,0-3.29,4l3.9,19.26A7.78,7.78,0,0,0,165.72,251.18Z"/></clipPath><linearGradient id="linear-gradient-19" x1="-10631.92" y1="222.92" x2="-10603.31" y2="252.63" gradientTransform="matrix(-1, 0, 0, 1, -10451.7, 0)" gradientUnits="userSpaceOnUse"><stop offset="0.04" stop-color="#2fb5be" stop-opacity="0"/><stop offset="0.07" stop-color="#58348c" stop-opacity="0.11"/><stop offset="0.25" stop-color="#744ea7" stop-opacity="0.41"/><stop offset="0.41" stop-color="#8862bb" stop-opacity="0.63"/><stop offset="0.49" stop-color="#9069c3" stop-opacity="0.72"/><stop offset="0.63" stop-color="#9d75cf" stop-opacity="0.84"/><stop offset="0.77" stop-color="#a77ed8" stop-opacity="0.93"/><stop offset="0.9" stop-color="#ad84de" stop-opacity="0.98"/><stop offset="0.99" stop-color="#af86e0"/></linearGradient></defs><title>hl_home_illustration</title><g class="cls-2"><g id="Layer_2" data-name="Layer 2"><g id="Layer_1-2" data-name="Layer 1"><g class="cls-3"><polygon class="cls-4" points="182.44 158.98 46.68 158.98 46.68 66.37 103.97 8.03 163.24 66.36 182.44 66.37 182.44 158.98"/><polygon class="cls-5" points="182.44 66.37 158.49 66.36 102.38 7.4 46.68 66.37 51.68 4.28 177.43 4.28 182.44 66.37"/><polygon class="cls-6" points="100.35 14.61 146.08 64.75 153.5 64.82 103.84 10.99 100.35 14.61"/><rect class="cls-7" x="42.27" y="158.98" width="146.59" height="7.74"/><polygon class="cls-8" points="40.2 66.57 103.75 0 167.76 66.45 155.09 66.45 103.84 10.99 51.1 66.45 40.2 66.57"/><path class="cls-8" d="M114.94,41.37a9.91,9.91,0,0,1-8.51,9.81,10,10,0,0,1-1.41.1,9.91,9.91,0,1,1,9.92-9.92Z"/><path class="cls-9" d="M113.52,41.37a8.49,8.49,0,0,1-7.29,8.41,8.59,8.59,0,0,1-1.21.09,8.49,8.49,0,1,1,8.5-8.5Z"/><path class="cls-10" d="M113.52,41.37a8.49,8.49,0,0,1-7.29,8.41,8.5,8.5,0,0,0-5-16,8.5,8.5,0,0,1,12.28,7.6Z"/><rect class="cls-6" x="82.91" y="94.19" width="4.03" height="64.81"/><rect class="cls-6" x="79.39" y="92.76" width="8.44" height="6.13"/><rect class="cls-8" x="80.87" y="91.51" width="47.32" height="6.13"/><rect class="cls-8" x="85.25" y="94.19" width="4.03" height="64.81"/><polygon class="cls-11" points="96.54 4.29 49.5 32.33 47.23 59.08 99.66 4.28 96.54 4.29"/><rect class="cls-12" x="89.24" y="97.39" width="33.16" height="61.62"/><polygon class="cls-13" points="95.19 123.69 93.62 124.94 93.62 100.3 95.19 101.64 95.19 123.69"/><polygon class="cls-14" points="95.16 101.64 93.67 100.3 118.31 100.3 116.81 101.76 95.16 101.64"/><polygon class="cls-15" points="117.06 152.05 118.31 153.62 93.67 153.62 95.18 152.16 117.06 152.05"/><polygon class="cls-13" points="95.19 152.32 93.62 153.61 93.62 128.61 95.19 129.99 95.19 152.32"/><rect class="cls-16" x="120.12" y="94.06" width="4.03" height="64.67"/><rect class="cls-17" x="95.19" y="129.99" width="23.04" height="22.42"/><rect class="cls-18" x="95.19" y="101.76" width="23.04" height="22.06"/><line class="cls-19" x1="91.65" y1="126.59" x2="114.98" y2="126.59"/><path class="cls-20" d="M151.7,6.82v4.32a.94.94,0,0,1-.94.94h-3.44l2.77-.51a1.31,1.31,0,0,0,1.06-1.09Z"/><path class="cls-20" d="M157.13,6.82v4.32a.94.94,0,0,1-.94.94h-3.44l2.77-.51a1.31,1.31,0,0,0,1.06-1.09Z"/><path class="cls-20" d="M162.4,6.82v4.32a.94.94,0,0,1-.94.94H158l2.77-.51a1.31,1.31,0,0,0,1.06-1.09Z"/><path class="cls-20" d="M167.61,6.91v4.32a.94.94,0,0,1-.94.94h-3.44l2.77-.51a1.31,1.31,0,0,0,1.06-1.09Z"/><path class="cls-20" d="M146,6.82v4.32a.94.94,0,0,1-.94.94h-3.44l2.77-.51a1.31,1.31,0,0,0,1.06-1.09Z"/><path class="cls-20" d="M140.54,6.82v4.32a.94.94,0,0,1-.94.94h-3.44l2.77-.51A1.31,1.31,0,0,0,140,10.47Z"/><path class="cls-20" d="M135.47,6.82v4.32a.94.94,0,0,1-.94.94h-3.44l2.77-.51a1.31,1.31,0,0,0,1.06-1.09Z"/><path class="cls-20" d="M129.81,6.82v4.32a.94.94,0,0,1-.94.94h-3.44l2.77-.51a1.31,1.31,0,0,0,1.06-1.09Z"/><path class="cls-20" d="M163.84,12.94v4.32a.94.94,0,0,1-.94.94h-3.44l2.77-.51a1.31,1.31,0,0,0,1.06-1.09Z"/><path class="cls-20" d="M159,12.94v4.32a.94.94,0,0,1-.94.94h-3.44l2.77-.51a1.31,1.31,0,0,0,1.06-1.09Z"/><path class="cls-20" d="M154.2,12.94v4.32a.94.94,0,0,1-.94.94h-3.44l2.77-.51a1.31,1.31,0,0,0,1.06-1.09Z"/><path class="cls-20" d="M149.13,12.94v4.32a.94.94,0,0,1-.94.94h-3.44l2.77-.51a1.31,1.31,0,0,0,1.06-1.09Z"/><path class="cls-20" d="M144.09,12.94v4.32a.94.94,0,0,1-.94.94h-3.44l2.77-.51a1.31,1.31,0,0,0,1.06-1.09Z"/><path class="cls-20" d="M159.76,19.65V24a.94.94,0,0,1-.94.94h-3.44l2.77-.51a1.31,1.31,0,0,0,1.06-1.09Z"/><path class="cls-20" d="M165.19,19.65V24a.94.94,0,0,1-.94.94h-3.44l2.77-.51a1.31,1.31,0,0,0,1.06-1.09Z"/><path class="cls-20" d="M170.46,19.65V24a.94.94,0,0,1-.94.94h-3.44l2.77-.51a1.31,1.31,0,0,0,1.06-1.09Z"/><path class="cls-20" d="M154,19.65V24a.94.94,0,0,1-.94.94h-3.44l2.77-.51a1.31,1.31,0,0,0,1.06-1.09Z"/><path class="cls-20" d="M148.6,19.65V24a.94.94,0,0,1-.94.94h-3.44l2.77-.51A1.31,1.31,0,0,0,148,23.3Z"/><path class="cls-20" d="M143.53,19.65V24a.94.94,0,0,1-.94.94h-3.44l2.77-.51A1.31,1.31,0,0,0,143,23.3Z"/><path class="cls-20" d="M137.87,19.65V24a.94.94,0,0,1-.94.94h-3.44l2.77-.51a1.31,1.31,0,0,0,1.06-1.09Z"/><path class="cls-20" d="M167,32v4.32a.94.94,0,0,1-.94.94h-3.44l2.77-.51a1.31,1.31,0,0,0,1.06-1.09Z"/><path class="cls-20" d="M161.28,32v4.32a.94.94,0,0,1-.94.94H156.9l2.77-.51a1.31,1.31,0,0,0,1.06-1.09Z"/><path class="cls-20" d="M155.85,32v4.32a.94.94,0,0,1-.94.94h-3.44l2.77-.51a1.31,1.31,0,0,0,1.06-1.09Z"/><path class="cls-20" d="M150.78,32v4.32a.94.94,0,0,1-.94.94H146.4l2.77-.51a1.31,1.31,0,0,0,1.06-1.09Z"/><path class="cls-20" d="M145.12,32v4.32a.94.94,0,0,1-.94.94h-3.44l2.77-.51a1.31,1.31,0,0,0,1.06-1.09Z"/><path class="cls-20" d="M171.9,25.77v4.32A.94.94,0,0,1,171,31h-3.44l2.77-.51a1.31,1.31,0,0,0,1.06-1.09Z"/><path class="cls-20" d="M167.06,25.77v4.32a.94.94,0,0,1-.94.94h-3.44l2.77-.51a1.31,1.31,0,0,0,1.06-1.09Z"/><path class="cls-20" d="M162.25,25.77v4.32a.94.94,0,0,1-.94.94h-3.44l2.77-.51a1.31,1.31,0,0,0,1.06-1.09Z"/><path class="cls-20" d="M157.18,25.77v4.32a.94.94,0,0,1-.94.94H152.8l2.77-.51a1.31,1.31,0,0,0,1.06-1.09Z"/><path class="cls-20" d="M152.15,25.77v4.32a.94.94,0,0,1-.94.94h-3.44l2.77-.51a1.31,1.31,0,0,0,1.06-1.09Z"/><path class="cls-20" d="M58.92,4.83V9.15a.94.94,0,0,1-.94.94H54.54l2.77-.51a1.31,1.31,0,0,0,1.06-1.09Z"/><path class="cls-20" d="M64.35,4.83V9.15a.94.94,0,0,1-.94.94H60l2.77-.51A1.31,1.31,0,0,0,63.8,8.48Z"/><path class="cls-20" d="M69.63,4.83V9.15a.94.94,0,0,1-.94.94H65.24L68,9.57a1.31,1.31,0,0,0,1.06-1.09Z"/><path class="cls-20" d="M74.83,4.91V9.23a.94.94,0,0,1-.94.94H70.45l2.77-.51a1.31,1.31,0,0,0,1.06-1.09Z"/><path class="cls-20" d="M80.12,4.91V9.23a.94.94,0,0,1-.94.94H75.74l2.77-.51a1.31,1.31,0,0,0,1.06-1.09Z"/><path class="cls-20" d="M71.07,10.95v4.32a.94.94,0,0,1-.94.94H66.68l2.77-.51a1.31,1.31,0,0,0,1.06-1.09Z"/><path class="cls-20" d="M75.9,10.95v4.32a.94.94,0,0,1-.94.94H71.51l2.77-.51a1.31,1.31,0,0,0,1.06-1.09Z"/><path class="cls-20" d="M66.23,10.95v4.32a.94.94,0,0,1-.94.94H61.84l2.77-.51a1.31,1.31,0,0,0,1.06-1.09Z"/><path class="cls-20" d="M61.42,10.95v4.32a.94.94,0,0,1-.94.94H57l2.77-.51a1.31,1.31,0,0,0,1.06-1.09Z"/><path class="cls-20" d="M56.35,10.95v4.32a.94.94,0,0,1-.94.94H52l2.77-.51A1.31,1.31,0,0,0,55.8,14.6Z"/><path class="cls-20" d="M66.52,17.66V22a.94.94,0,0,1-.94.94H62.13l2.77-.51A1.31,1.31,0,0,0,66,21.31Z"/><path class="cls-20" d="M61.25,17.66V22a.94.94,0,0,1-.94.94H56.87l2.77-.51a1.31,1.31,0,0,0,1.06-1.09Z"/><path class="cls-20" d="M55.82,17.66V22a.94.94,0,0,1-.94.94H51.44l2.77-.51a1.31,1.31,0,0,0,1.06-1.09Z"/><path class="cls-20" d="M53.14,24.08V28.4a.94.94,0,0,1-.94.94H48.75l2.77-.51a1.31,1.31,0,0,0,1.06-1.09Z"/><path class="cls-20" d="M58.34,24.16v4.32a.94.94,0,0,1-.94.94H54l2.77-.51a1.31,1.31,0,0,0,1.06-1.09Z"/><path class="cls-21" d="M71.13,17.9v4.32a.94.94,0,0,1-.94.94H66.75l2.77-.51a1.31,1.31,0,0,0,1.06-1.09Z"/><path class="cls-21" d="M76.57,17.9v4.32a.94.94,0,0,1-.94.94H72.18L75,22.65A1.31,1.31,0,0,0,76,21.56Z"/><path class="cls-21" d="M81.84,17.9v4.32a.94.94,0,0,1-.94.94H77.46l2.77-.51a1.31,1.31,0,0,0,1.06-1.09Z"/><path class="cls-21" d="M73.63,24v4.32a.94.94,0,0,1-.94.94H69.25L72,28.77a1.31,1.31,0,0,0,1.06-1.09Z"/><path class="cls-21" d="M68.56,24v4.32a.94.94,0,0,1-.94.94H64.18L67,28.77A1.31,1.31,0,0,0,68,27.68Z"/><path class="cls-21" d="M63.63,24.16v4.32a.94.94,0,0,1-.94.94H59.25L62,28.91a1.31,1.31,0,0,0,1.06-1.09Z"/><path class="cls-21" d="M54.58,30.2v4.32a.94.94,0,0,1-.94.94H50.19L53,34.94A1.31,1.31,0,0,0,54,33.85Z"/><path class="cls-21" d="M59.41,30.2v4.32a.94.94,0,0,1-.94.94H55l2.77-.51a1.31,1.31,0,0,0,1.06-1.09Z"/><path class="cls-21" d="M64.78,30.51v4.32a.94.94,0,0,1-.94.94H60.4l2.77-.51a1.31,1.31,0,0,0,1.06-1.09Z"/><path class="cls-21" d="M55.68,36.63V41a.94.94,0,0,1-.94.94H51.3l2.77-.51a1.31,1.31,0,0,0,1.06-1.09Z"/><path class="cls-21" d="M61.06,36.94v4.32a.94.94,0,0,1-.94.94H56.68l2.77-.51a1.31,1.31,0,0,0,1.06-1.09Z"/><path class="cls-21" d="M69.42,30.73v4.32a.94.94,0,0,1-.94.94H65l2.77-.51a1.31,1.31,0,0,0,1.06-1.09Z"/><line class="cls-22" x1="105.03" y1="33.52" x2="105.03" y2="50.49"/><line class="cls-22" x1="96.08" y1="41.57" x2="112.33" y2="41.58"/><polygon class="cls-14" points="95.16 129.95 93.62 128.61 118.31 128.61 116.89 129.99 95.16 129.95"/></g><path class="cls-23" d="M196.23,137.13s4.69,28.46,7.07,33.71,5.41,11.77,5.41,11.77-6.8-9-7.76-10.79l-6.12-34.14Z"/><line class="cls-24" y1="242.84" x2="174.64" y2="242.84"/><rect class="cls-5" x="113.21" y="94.98" width="53.76" height="148.25"/><path class="cls-25" d="M166.87,96.75V166c-2.38-9-5.88-28.69-5.88-28.69a12.16,12.16,0,0,1-5.88-2.66c1.94-4.87,2.78-12.68,3.1-20-.49,1-1.06,1.51-1.66,1.31-4.11-1.37-.19-5.46-6-9.12-1.47-.94-2-3.09-2.21-4.91a5.11,5.11,0,0,0-3.21-4.21l-7-2.78,14,.24a20.72,20.72,0,0,1,6.16,5.44c-.06-2.44-.14-4-.14-4Z"/><g class="cls-26"><line class="cls-27" x1="124.16" y1="162.62" x2="142.85" y2="162.62"/><line class="cls-27" x1="124.16" y1="168.23" x2="149.26" y2="168.23"/><line class="cls-27" x1="126.69" y1="162.48" x2="126.69" y2="157.01"/><line class="cls-27" x1="126.83" y1="174.1" x2="126.83" y2="168.63"/><line class="cls-27" x1="142.05" y1="173.84" x2="142.05" y2="168.36"/><line class="cls-27" x1="135.37" y1="162.62" x2="135.37" y2="168.09"/></g><g class="cls-26"><line class="cls-27" x1="145.45" y1="133.56" x2="145.45" y2="128.26"/><line class="cls-27" x1="135.5" y1="139.24" x2="135.5" y2="133.94"/><line class="cls-27" x1="135.76" y1="127.87" x2="135.76" y2="122.57"/><line class="cls-27" x1="122.32" y1="133.56" x2="153.07" y2="133.56"/><line class="cls-27" x1="130.59" y1="127.93" x2="164.51" y2="127.93"/></g><g class="cls-26"><line class="cls-27" x1="126.21" y1="116.39" x2="151.99" y2="116.39"/><line class="cls-27" x1="126.21" y1="122.09" x2="158.51" y2="122.09"/><line class="cls-27" x1="135.57" y1="116.26" x2="135.57" y2="110.69"/><line class="cls-27" x1="135.71" y1="128.06" x2="135.71" y2="122.5"/><line class="cls-27" x1="151.18" y1="127.79" x2="151.18" y2="122.23"/><line class="cls-27" x1="144.39" y1="116.39" x2="144.39" y2="121.96"/></g><path class="cls-28" d="M167,183.22v60H153.46L151.38,233a3.36,3.36,0,0,1,3.29-4h6.91a24.91,24.91,0,0,0-1.78-5.2c-2-4-6.16-3-6.82-3.34-3.3-1.8-4.21-3.07-5.17-7-.75-3.13-2.48-4.6-5.19-6.48-5-3.49-.54-7.57-7.2-10.4-2.36-1-3.78-4-4.78-7.54a10.9,10.9,0,0,0-3.83-5.63c13.59,2.82,26.3,17.51,32.56,32.26a67.58,67.58,0,0,1,4,13.37h2.14c.19-3.24.31-6.41.32-9.11a46,46,0,0,0-.27-5.57c-1.15-8.3-4-8.14-8.87-11.07s.81-8.76-2.42-12.45-5.08-1.61-3.46-10.84-6.85-8.76-7.23-16.6,3.31-10.6,2.15-18.9C145.76,144.44,163.25,156.28,167,183.22Z"/><path class="cls-29" d="M257.09,53.2c1.3-2.12,1.84-5.63,1.06-7.09,0,0-.68-1.53-2-1h0s-.82-1.83-2.4-1.18l-.28.14a2.8,2.8,0,0,0-.76-.94l-.24-.16c.06-.62.21-1.85.45-3.12,1-.33,1.22-.94.56-1.58l-.15-.13.24-.83h0c.44-1.7-.14-1.65-.14-1.65a2.56,2.56,0,0,0-1.24,1h0a3.62,3.62,0,0,0-.33.48l-.11.19a10.72,10.72,0,0,0-2.23-.52,9.35,9.35,0,0,0-2.18,0,2.71,2.71,0,0,0-4.79-1.52h0l-.51-.17a.34.34,0,0,0-.43.22l-.05.16-5-1.62a.51.51,0,1,0-.31,1l.31.1L236.18,36a.35.35,0,0,0,.18.44.34.34,0,0,0,.46-.21l.1-.32a.17.17,0,0,1,.21-.11l.32.1a.17.17,0,0,1,.11.21l-.1.3a.35.35,0,0,0,.18.44.34.34,0,0,0,.46-.21l.37-1.13,2.75.89-.05.16a.34.34,0,0,0,.22.43l.51.17h0a2.71,2.71,0,0,0,.23.89h-.27a.34.34,0,0,0-.33.35v.17l-5.24.14a.52.52,0,0,0-.36.16.51.51,0,0,0,.39.86h.32l0,1.17a.35.35,0,0,0,.32.35.34.34,0,0,0,.36-.35v-.34a.17.17,0,0,1,.16-.17h.34a.17.17,0,0,1,.17.17v.32a.35.35,0,0,0,.32.35.34.34,0,0,0,.36-.35l0-1.19,2.88-.08v.17a.34.34,0,0,0,.35.33h.54a2.71,2.71,0,0,0,5.15-.56l.57.18a11.22,11.22,0,0,0,2.35.39,39,39,0,0,0-1.16,4.25,4.33,4.33,0,0,0-.38.78c-.34-.73-1-1.77-1.79-1-.59.59.29.94-.77,2.89a8.11,8.11,0,0,0,.06,8c-1.87.16-2.27.67-2.27.67h0l-6.86,21.94h0s-19.68-19.18-24.08-22.9S199.39,51.46,196,50.87s-5.66-1.61-6.09-2.62h0a3.3,3.3,0,0,1-.17-.73l.45-.17c4.5-1.76,4.45-6.39,4.28-12.29,0-.73-.06-1.46-.09-2.21-.23-5-1.38-9.54-3.58-12.69,2.73-1,3.6-2.24,3.71-2.66.22-.83.08-3.48-9.38-3.55s-13.92,3.25-14.83,6.5c-.61,2.2,0,7.92.71,12.26a4.54,4.54,0,0,0-.14,2.4A5.09,5.09,0,0,0,172,37.32l0,.14a4.28,4.28,0,0,0,2.44,2.78l.23.61.24.54,0,.08c.21,2.76.34,6.21-.13,7.23h0c-.83,1.76-6.43.83-10.79-.83s-10.48-3.42-13.6.63S131.07,80,129.22,90c-.91,5,5.47,4.83,11.45,5.39,5.24.48,9,1,9.08,1a1.6,1.6,0,0,0,.38.19l2.95,1.56c.05,1.79.54,4.27,2.47,5.71A30.35,30.35,0,0,1,160,108.8s.12.84.22,2.18a.18.18,0,0,0,0,.06v0c.24,15-1.23,21.75-1.25,21.83h0s2.86.71,7.24,1.49c1.23,4.92,2.72,10.67,2.72,10.67l0-.08c3.7,13.91,9.58,33.85,14.32,39.69,2,2.45,5.49,6.69,9.65,11.73l-.37,16.38c-.35,12.81-.63,25.54-.63,25.54.45.2.89.38,1.33.55-.15,3-.51,6.68-.36,7.87.2,1.59,5.65,1.63,5.65,1.63l.16-1.65a15.79,15.79,0,0,0,13,5.16c8.15-.77,6.18-3.72,2.56-5.53-6-3-7.92-4.84-8.54-5.79a17.59,17.59,0,0,0,2.91-.52s.64-9.94,1.37-21.26l.22-1.38c6.8,8.29,12.68,15.56,14.76,18.4a37.23,37.23,0,0,0,3.46-2.25c0,1.3,0,4.94,0,12.44-2.92,2.9-1.44,5.52,1.28,5.36a6,6,0,0,0,4.82-2.65c5.16-7.36,2.79-10.95,2.79-10.95l1.58.8s2.59-5.34,1.38-7.15c-.69-1-2.84-3.34-5-5.65a6.15,6.15,0,0,0,.39-2.07s-16.54-22.12-21.92-29.23l-2.06-2.74.14-2.07c.64-9.56,0-42.76-.3-53.86.69-.18,1-.4.94-.69h0c-2-15.47-4.06-26.08-4.33-35a100.8,100.8,0,0,1,2-23.4s23.93,16,27.57,17.56,5.5.51,10.07-7.53c4.11-7.23,6.23-25.92,6.62-29.57l0-.35a1.18,1.18,0,0,0,0-.27h0A22.09,22.09,0,0,0,257.09,53.2Zm-90.33,57.1c-.37,1.28-3.68,4.6-3.68,4.6s-2.09,1.47-2.61-.13c.52,1.6,2.61.12,2.61.12s3.31-3.31,3.68-4.6-.69-7.42-.69-7.43h0S167.13,109,166.76,110.3ZM157,91.8a1.7,1.7,0,0,0-.15-1.81h0l.11,0a29,29,0,0,0-5-3.14,40.92,40.92,0,0,0-5.43-2.42A69.83,69.83,0,0,1,155.88,72l.54,2.61c.21,1.22,1.16,6.17,2.31,15.5.16,1.26.31,2.55.45,3.86h0C158.3,93,157.55,92.31,157,91.8Zm96.11-52.65.06-.31,0-.07,0-.07A.33.33,0,0,1,253.07,39.14Zm-6.47.17a1.68,1.68,0,0,1-.07.27v0a1.71,1.71,0,0,1-.12.25l-.05.08-.13.17-.07.07a1.65,1.65,0,0,1-.21.18l0,0-.23.13-.09,0-.2.07-.09,0a1.54,1.54,0,0,1-.6,0l-.09,0-.2-.06-.09,0-.24-.12,0,0a1.65,1.65,0,0,1-.22-.17l-.07-.07-.14-.16-.06-.08a1.68,1.68,0,0,1-.14-.24v0a1.63,1.63,0,0,1-.09-.27v-.06a2.69,2.69,0,0,0,3.14-.36l.2.11s0,.09,0,.13Zm-3.54-3,.05-.11.07-.11.07-.1.08-.1.08-.09.09-.09.09-.08.1-.07.11-.07.11-.05.12-.05.12,0,.12,0,.13,0h.37l.12,0,.12,0,.12,0,.12,0,.11.05.11.06.1.07.11.08.09.08.09.09.08.09.08.1.07.11.06.11.05.12,0,.11,0,.12v0a2.68,2.68,0,0,0-3.34.53v-.06a.11.11,0,0,0,0,0,1.69,1.69,0,0,1,0-.28v-.09a1.69,1.69,0,0,1,0-.22l0-.09Zm2.37,2.16-.09,0-.25.1h0l-.26,0h-.4a1.54,1.54,0,0,1-.57-.18l-.08,0-.17-.12-.08-.06,0,0,0,0,.07-.11.07-.09.09-.11.08-.08.1-.09.1-.07.11-.07.11-.06.11-.05.12,0,.12,0,.12,0,.12,0h.37l.12,0,.12,0,.12,0,.08,0a.69.69,0,0,0,0,.89l0,0Zm3.13.79c-.31-.09-.62-.18-.91-.28,0,0,0,0,0,0a2.68,2.68,0,0,0-.41-1.34,2.71,2.71,0,0,0,.07-.4,9.31,9.31,0,0,1,2.16.06,10.34,10.34,0,0,1,2,.45,15.15,15.15,0,0,0-.67,1.51h0l-.05.15-.08.23A13.84,13.84,0,0,1,248.56,39.24Z"/><path class="cls-30" d="M208.92,239.84s-.58,1.87,8.81,6.57c3.62,1.81,5.59,4.75-2.56,5.53a15.79,15.79,0,0,1-13-5.16l-.16,1.65s-5.45,0-5.65-1.63.52-7.7.41-10.49Z"/><path class="cls-30" d="M231.91,233s.05,3.2,0,13c-2.92,2.9-1.44,5.52,1.28,5.36a6,6,0,0,0,4.82-2.65c5.16-7.36,2.79-10.95,2.79-10.95l1.58.8s2.59-5.34,1.38-7.15-6.74-7.33-9-10.28Z"/><path class="cls-31" d="M162.4,132.94a138.32,138.32,0,0,0,30,3.64c14.93-.12,24,0,23.6-1.42s-11.4-13.27-11.4-13.27l-26.42-3L168.73,127Z"/><path class="cls-32" d="M215,132.21s1.15,46,.38,57.5-3.27,50.39-3.27,50.39a26,26,0,0,1-16.73-1.73s.77-35,1.35-47.31S190,120.48,190,120.48s9-3.46,12.88-1.73S215,132.21,215,132.21Z"/><path class="cls-32" d="M168.84,130.86s10.39,44.62,17.89,53.85,36.54,44,41.73,51.16c0,0,10.77-6,10.77-12.12,0,0-16.54-22.12-21.92-29.23S204.42,177.21,201,171.83c0,0-6.35-36.16-7.5-44S168.84,130.86,168.84,130.86Z"/><path class="cls-33" d="M192.85,125c1.15,7.88,8.1,46.86,8.1,46.86,3,4.72,9.17,13.13,14.26,19.92,0,0-7.35-14.61-10.32-18.21s-9.73-42.22-9.73-42.22L192.85,125"/><path class="cls-34" d="M216,135.16s-9.38-2.69-20.75,2.52l-1.11-3.16s-17-.74-21.8,10.58c0,0-4-15.32-4.27-17.32s25.53-10.64,25.53-10.64l16.4,8.14Z"/><path class="cls-31" d="M160.21,90c1,1-.28,3.21-2.15,5s-4.16,2.31-5.12,1.28-.23-3.28,1.64-5S159.25,89,160.21,90Z"/><path class="cls-35" d="M258,56.59s0,.22-.06.63c-.39,3.65-2.51,22.33-6.62,29.57-4.57,8-6.43,9.05-10.07,7.53s-27.57-17.56-27.57-17.56a100.78,100.78,0,0,0-2,23.4c.27,8.93,2.3,19.54,4.33,35a82.17,82.17,0,0,0-18.48-5.3,78.24,78.24,0,0,1-2.49-10.72s-2.36,3.56-3.19,10.23a87.34,87.34,0,0,0-27.9,3.09h0c-.53.14-1,.31-1.56.47,0,0,1.49-6.72,1.25-21.85.05.79.09,1.77.09,2.85,0,2.94,2.73,1,2.73,1s3.31-3.31,3.68-4.6-.69-7.43-.69-7.43c-1.32-2.07-2.6-3.83-3.78-5.32s-2.19-2.65-3.1-3.61c-.14-1.31-.29-2.61-.45-3.86C161,80.8,160,75.85,159.82,74.63L159.28,72a69.82,69.82,0,0,0-9.41,12.48,40.91,40.91,0,0,1,5.43,2.42,29,29,0,0,1,5,3.14,5.41,5.41,0,0,0-4.85,1,6.26,6.26,0,0,0-1.27,1.49c-1.37,2.19.76.66.71,1.86s-1.74,2-1.74,2-3.81-.53-9.08-1c-6-.56-12.37-.44-11.45-5.39,1.86-10,18.16-37.46,21.27-41.51s9.24-2.28,13.6-.63,10,2.59,10.79.83l13.45,0,1.59-.49c.43,1,2.71,2,6.09,2.62s12.85.17,17.26,3.89,24.08,22.9,24.08,22.9l6.86-21.94s.58-.74,3.61-.71c4.79,0,6.69,1.44,6.8,1.53Z"/><path class="cls-36" d="M170.16,110.35c-.37,1.28-3.68,4.6-3.68,4.6s-2.73,1.93-2.73-1c0-1.08,0-2.05-.09-2.84a.16.16,0,0,1,0-.06c0-1.46-.06-3-.12-4.61-.15-4.13-.5-8.38-.94-12.43a59.61,59.61,0,0,1,6.88,8.93S170.53,109.07,170.16,110.35Z"/><path class="cls-37" d="M173.9,49.68a54.1,54.1,0,0,1,1.85,13.88,29.34,29.34,0,0,1,5.42.26s-3.57,3.17-3.83,4c0,0,11,7.8,15.07,25.78"/><path class="cls-37" d="M199,50.91s3.77,7.71,5,11.12a15.29,15.29,0,0,0-3.95,1.43s3.23,1.26,3.77,2.51c0,0-7.17,11.48-9.33,21.88"/><path class="cls-38" d="M192.16,78.13c-3.83-13.65-9.13-22.62-11.95-26.75-1.19-1.74-1.94-2.63-1.94-2.63.83-1.76-.21-10.93-.21-10.93L193,43.16s-.11,4.12.31,5.14c.15,1.43.26,2.86.34,4.26A119.29,119.29,0,0,1,192.16,78.13Z"/><path class="cls-38" d="M193.31,46.78c-4.8.73-8.77,2.92-13.25-2.51a12.21,12.21,0,0,1-1.68-2.83c-.16-.37-.32-.75-.47-1.15-2.53-6.8-2.69-17.37-.66-19.91s10.33-5.74,14.29-2.93a11.09,11.09,0,0,1,2.68,2.75c2.2,3.15,3.35,7.66,3.58,12.69,0,.74.06,1.48.09,2.21C198,41,197.58,46.13,193.31,46.78Z"/><path class="cls-31" d="M180.52,20.89s-3.18,3.78-2.72,7,1.59,9.91,3.71,10.74,6.35-2.73,10.21-3,5.32,1.08,6.16-.59c.17,5.9.23,10.53-4.28,12.29-3.69,1.44-9.06,2.3-13.55-3.12a12.19,12.19,0,0,1-1.68-2.83l-.24-.54-.23-.61a4.28,4.28,0,0,1-2.44-2.78c-.91-2.8-2.65-13.77-1.74-17s5.37-6.58,14.83-6.5,9.68-.76,9.45.07c-.12.42-1.06,5.19-3.79,6.14S187.37,21.59,180.52,20.89Z"/><path class="cls-38" d="M177.43,34.48c.45,2.11,1,3.92.1,4.11s-2.78-1.33-3.24-3.43.73-4,1.59-4.19S177,32.37,177.43,34.48Z"/><path class="cls-39" d="M192.16,78.13c-3.83-13.65-9.13-22.62-11.95-26.75,3.53,1.74,9.72,4.06,13.45,1.18A119.29,119.29,0,0,1,192.16,78.13Z"/><path class="cls-37" d="M192.16,78.13s.8,5.39,1,9.36c.42,9.32,1.23,23.36,1.91,31.65"/><path class="cls-38" d="M170.16,110.35c-.37,1.28-3.68,4.6-3.68,4.6s-2.73,1.93-2.73-1c0-1.08,0-2.05-.09-2.84a.16.16,0,0,1,0-.06c-.09-1.34-.22-2.18-.22-2.18a30.35,30.35,0,0,0-4.48-4.92c-1.93-1.44-2.42-3.93-2.47-5.71l-3.32-1.76a4.9,4.9,0,0,1,2-4.84,3.67,3.67,0,0,1,4.8-.07l-.11-.1a33.26,33.26,0,0,1,2.7,2.54,59.61,59.61,0,0,1,6.88,8.93S170.53,109.07,170.16,110.35Z"/><path class="cls-40" d="M165.31,109a18.68,18.68,0,0,1,0,4.5l-.48,1.9"/><path class="cls-40" d="M166.83,107.28s.53,3.71.2,5a26.25,26.25,0,0,1-.92,2.77"/><path class="cls-40" d="M168.52,105.23s.21,2.55.32,3.89c.16,1.93-1.28,4.65-1.28,4.65"/><path class="cls-31" d="M257.9,57.19c-.28.57-1.24,1.28-4.81.87-5.68-.65-5.48-2.29-5.48-2.29s.58-.74,3.61-.71c4.79,0,6.69,1.44,6.8,1.53h0A1.2,1.2,0,0,1,257.9,57.19Z"/><path class="cls-41" d="M193.32,48.3s-.12,14.34-3.12,23.6c0,0,1.6,5.42,2,6.23,0,0,.45-2.45.88-6.16C193.77,65.63,194.52,55.68,193.32,48.3Z"/><path class="cls-37" d="M159.28,72s3.75-4.11,5.3-5.94"/><path class="cls-37" d="M143.17,82.44s4.85.75,6.71,2.06c0,0-4.39-1.27-8-.29"/><path class="cls-37" d="M239.38,82a32.25,32.25,0,0,1,1.36-4.26,12.67,12.67,0,0,0-3,4.81"/><circle class="cls-39" cx="195.36" cy="92.87" r="0.66"/><circle class="cls-39" cx="196.52" cy="105.31" r="0.66"/><circle class="cls-39" cx="196.82" cy="116.4" r="0.66"/><path class="cls-38" d="M255.82,43.44a32.13,32.13,0,0,1,1-5.58c.7-2.23,0-2.16,0-2.16-2.65.77-4.24,9.71-4.24,9.71l.27,1.1,1.55-.29,1.45-2.79"/><path class="cls-38" d="M256.88,44.15s-.81-1.83-2.4-1.18a4,4,0,0,0-2.4,3.26c-.33,1.43-.16,3.62,1,3.38s.73-1.43,1.51-3.06A5.66,5.66,0,0,1,256.88,44.15Z"/><path class="cls-38" d="M259.54,45.15s-.81-1.83-2.4-1.18a4,4,0,0,0-2.4,3.26c-.33,1.43-.16,3.62,1,3.38s.73-1.43,1.51-3.05A5.66,5.66,0,0,1,259.54,45.15Z"/><path class="cls-38" d="M261.55,46.16s-.69-1.55-2-1a3.36,3.36,0,0,0-2,2.75c-.27,1.2-.14,3.06.82,2.85s.62-1.2,1.27-2.58A4.77,4.77,0,0,1,261.55,46.16Z"/><path class="cls-38" d="M250.59,44.17c-.59.59.29.94-.77,2.89s-1.87,5,.51,8.85a7.21,7.21,0,0,1-.18,1.6,21.37,21.37,0,0,0,4.19.68,5.12,5.12,0,0,0,3.13-.49,1.38,1.38,0,0,0,.56-1.11,22,22,0,0,0,2.46-3.34c1.3-2.12,1.84-5.63,1.06-7.09S254,44.9,254,44.9l-1.34.86S251.73,43,250.59,44.17Z"/><path class="cls-42" d="M256.77,44.06s-.71-1.75-2.29-1.09a4,4,0,0,0-2.4,3.26c-.33,1.43-.16,3.62,1,3.38s.73-1.43,1.51-3.06A3.92,3.92,0,0,1,255.68,45"/><path class="cls-42" d="M259.54,45.15s-.81-1.83-2.4-1.18a4,4,0,0,0-2.4,3.26c-.33,1.43-.16,3.62,1,3.38s.73-1.43,1.51-3.05a8,8,0,0,1,1-1.44"/><path class="cls-42" d="M261.55,46.16s-.69-1.55-2-1a3.36,3.36,0,0,0-2,2.75c-.27,1.2-.14,3.06.82,2.85s.62-1.2,1.27-2.58"/><path class="cls-42" d="M259.79,47s-.1.8-.2,1.2,1.09-.68,1.09-1.28"/><path class="cls-42" d="M252.73,49.55s1.77,1.18,1.91,2.52"/><path class="cls-43" d="M240.88,36.48l.1-.3a.17.17,0,0,0-.11-.21l-.32-.1a.17.17,0,0,0-.21.11l-.1.32a.34.34,0,0,1-.46.21.35.35,0,0,1-.18-.44l.46-1.41,1.94.63-.46,1.43a.34.34,0,0,1-.46.21A.35.35,0,0,1,240.88,36.48Z"/><path class="cls-44" d="M239.33,34.59a.51.51,0,0,1,.62-.72l5.17,1.68-.31,1-5.17-1.68A.52.52,0,0,1,239.33,34.59Z"/><path class="cls-43" d="M245.3,37.22l-.51-.17a.34.34,0,0,1-.22-.43l.42-1.29a.34.34,0,0,1,.43-.22l.51.17Z"/><path class="cls-44" d="M245.59,38.26a2.72,2.72,0,1,0-.16-2.07A2.72,2.72,0,0,0,245.59,38.26Zm3.19.28a1.7,1.7,0,1,1,.84-1A1.7,1.7,0,0,1,248.78,38.54Z"/><path class="cls-44" d="M246.19,38a2,2,0,1,0-.12-1.56A2,2,0,0,0,246.19,38Zm.31-.16a1.7,1.7,0,1,1,1,.84A1.7,1.7,0,0,1,246.5,37.8Z"/><path class="cls-43" d="M241.43,40.91v-.32a.17.17,0,0,0-.17-.17h-.34a.17.17,0,0,0-.17.17v.34a.34.34,0,0,1-.36.35.35.35,0,0,1-.32-.35l0-1.48,2-.05,0,1.5a.34.34,0,0,1-.36.35A.35.35,0,0,1,241.43,40.91Z"/><path class="cls-44" d="M239.34,39.65a.52.52,0,0,1-.17-.36.52.52,0,0,1,.51-.52l5.43-.14,0,1-5.44.15A.52.52,0,0,1,239.34,39.65Z"/><path class="cls-43" d="M245.85,40.13h-.54a.34.34,0,0,1-.35-.33l0-1.36a.34.34,0,0,1,.33-.35h.54Z"/><path class="cls-44" d="M246.47,41a2.72,2.72,0,1,0-.85-1.9A2.72,2.72,0,0,0,246.47,41Zm3.1-.8A1.7,1.7,0,1,1,250,39,1.69,1.69,0,0,1,249.57,40.21Z"/><path class="cls-44" d="M246.93,40.53a2,2,0,1,0-.64-1.43A2,2,0,0,0,246.93,40.53Zm.24-.25a1.7,1.7,0,1,1,1.21.46A1.7,1.7,0,0,1,247.17,40.28Z"/><path class="cls-44" d="M249.22,38.59a5.75,5.75,0,0,0,2.35,1.15,9.48,9.48,0,0,0,4.55.22c1.16-.31,1.46-1,.75-1.64a7.59,7.59,0,0,0-4-1.47c-1.7-.21-3.19,0-3.79.51C248.72,37.7,248.76,38.14,249.22,38.59Zm.64-.18c-.38-.37-.41-.58-.08-.86a5,5,0,0,1,3.1-.24,7.3,7.3,0,0,1,3.38,1.12c.64.5.42.85-.55,1.11a8.6,8.6,0,0,1-3.74-.24A5.61,5.61,0,0,1,249.86,38.4Z"/><path class="cls-37" d="M215.28,68.34s-.46,3.76-1.57,8.41"/><path class="cls-45" d="M213.75,217.12l-17.38-20.69-.63,28s6.16-7.11,17.53-4.27Z"/><path class="cls-38" d="M254.69,38.2a8.8,8.8,0,0,1,.87-1.51c.23-.26,1.39.67,1.39.67L256.49,39Z"/><path class="cls-46" d="M256.55,38.73s0,.48-2.32.53l-.15.44s1.78.13,2.29-.36l.08,0Z"/><path class="cls-47" d="M194.57,38.24c.39.21.38,1.24,0,1.87a2.26,2.26,0,0,1-3.18.54,2.59,2.59,0,0,1-1.13-2.06c0-.1.08-.1.67,0a4.8,4.8,0,0,0,2.22-.17C193.64,38.32,194,37.93,194.57,38.24Z"/><ellipse class="cls-48" cx="192.95" cy="28.59" rx="0.62" ry="0.72" transform="translate(-0.74 51.66) rotate(-15.22)"/><ellipse class="cls-48" cx="185.8" cy="29.68" rx="0.62" ry="0.72" transform="translate(-1.27 49.82) rotate(-15.22)"/><path class="cls-48" d="M183.39,28.73a3.18,3.18,0,0,1,.6-1.6A3.8,3.8,0,0,1,185.31,26a3.48,3.48,0,0,1,1.72-.42,3.19,3.19,0,0,1,1.65.45c-.57.12-1.08.18-1.56.32a5.64,5.64,0,0,0-1.34.53A10.29,10.29,0,0,0,183.39,28.73Z"/><path class="cls-48" d="M191.2,25.37a2.94,2.94,0,0,1,1.26-.75,3.74,3.74,0,0,1,1.49-.16,3.28,3.28,0,0,1,1.43.48,2.75,2.75,0,0,1,1,1.06c-.48-.15-.88-.33-1.3-.43a6.33,6.33,0,0,0-1.24-.23A15,15,0,0,0,191.2,25.37Z"/><path class="cls-49" d="M190.47,28.78q.73.75,1.37,1.55c.45.54.83,1,1.32,1.57a2,2,0,0,1,.4,1.16,2.07,2.07,0,0,1-.36,1.13,4.38,4.38,0,0,1-1.61,1.39,9.58,9.58,0,0,0,1.1-1.67,1.44,1.44,0,0,0-.14-1.57c-.15-.21-.45-.53-.63-.8s-.39-.58-.56-.88A11.49,11.49,0,0,1,190.47,28.78Z"/><path class="cls-50" d="M162.59,94c-.14-1.31-.29-2.61-.45-3.86C161,80.8,160,75.85,159.82,74.63L159.28,72s5-5.8,7.13-7c1.59-.89.13,21.78-.72,32.55C164.54,96.14,163.49,94.95,162.59,94Z"/><path class="cls-51" d="M171.27,112.52a18.71,18.71,0,0,1-4.13,8s-2.44,10.21-3.18,11.95h0c-.53.14-1,.31-1.56.47,0,0,1.49-6.72,1.25-21.85.05.79.09,1.77.09,2.85,0,2.94,2.73,1,2.73,1s3.31-3.31,3.68-4.6-.69-7.43-.69-7.43S172.16,108.9,171.27,112.52Z"/><path class="cls-52" d="M213.83,76.81l1.27-6.8s12.59,16.15,20.1,20.75Z"/><path class="cls-53" d="M173.89,50.14s.47,9.68.09,13.87a14.79,14.79,0,0,1,3.63,1s-2.33,2.79-2,4.28c0,0,12,10.52,16,21.6,0,0-4-15.89-14.24-23.12,0,0,2.92-2.94,3.83-4,0,0-3.66-.71-5.42-.26C175.75,63.56,176,54.33,173.89,50.14Z"/><path class="cls-54" d="M201.62,64.21a9.4,9.4,0,0,1,2.66-.86l-1.17-1.09-3,1.22Z"/><path class="cls-55" d="M202.79,68a9.28,9.28,0,0,1,1.09,1.33s-7,10.24-8.83,17.12C195.05,86.48,198.1,75.93,202.79,68Z"/><rect class="cls-12" x="80.51" y="143.16" width="4.34" height="100.08"/><rect class="cls-12" x="71.38" y="143.16" width="4.34" height="100.08"/><rect class="cls-12" x="53.23" y="143.16" width="4.33" height="100.08"/><rect class="cls-12" x="44.15" y="143.16" width="4.33" height="100.08"/><rect class="cls-12" x="62.32" y="143.16" width="4.33" height="100.08"/><rect class="cls-12" x="35.07" y="143.16" width="4.33" height="100.08"/><rect class="cls-12" x="26" y="143.16" width="4.34" height="100.08"/><rect class="cls-12" x="16.89" y="143.16" width="4.33" height="100.08"/><rect class="cls-12" x="89.53" y="143.16" width="4.34" height="100.08"/><rect class="cls-12" x="107.89" y="143.16" width="4.34" height="100.08"/><rect class="cls-5" x="108.87" y="143.16" width="4.33" height="100.08"/><rect class="cls-12" x="111.04" y="143.16" width="2.17" height="100.08"/><rect class="cls-12" x="98.6" y="143.16" width="4.34" height="100.08"/><rect class="cls-5" x="99.8" y="143.16" width="4.34" height="100.08"/><rect class="cls-5" x="90.72" y="143.16" width="4.33" height="100.08"/><rect class="cls-5" x="81.65" y="143.16" width="4.34" height="100.08"/><rect class="cls-5" x="72.57" y="143.16" width="4.33" height="100.08"/><rect class="cls-5" x="63.49" y="143.16" width="4.34" height="100.08"/><rect class="cls-5" x="54.42" y="143.16" width="4.34" height="100.08"/><rect class="cls-5" x="45.34" y="143.16" width="4.34" height="100.08"/><rect class="cls-5" x="36.27" y="143.16" width="4.33" height="100.08"/><rect class="cls-5" x="27.19" y="143.16" width="4.34" height="100.08"/><rect class="cls-5" x="18.11" y="143.16" width="4.33" height="100.08"/><rect class="cls-5" x="9.96" y="164.83" width="103.7" height="4.4"/><rect class="cls-5" x="9.96" y="143.16" width="103.7" height="4.4"/><rect class="cls-12" x="54.45" y="169.24" width="4.33" height="1.08"/><polygon class="cls-12" points="104.13 170.32 99.8 171.57 99.8 169.24 104.13 169.24 104.13 170.32"/><polygon class="cls-12" points="113.14 170.32 108.81 171.5 108.81 169.24 113.14 169.24 113.14 170.32"/><rect class="cls-12" x="54.44" y="147.57" width="4.33" height="1.08"/><polygon class="cls-12" points="104.13 148.65 99.8 149.8 99.8 147.57 104.13 147.57 104.13 148.65"/><polygon class="cls-12" points="113.21 148.65 108.88 149.8 108.88 147.57 113.21 147.57 113.21 148.65"/><polygon class="cls-12" points="95.06 170.32 90.72 171.57 90.72 169.24 95.06 169.24 95.06 170.32"/><polygon class="cls-12" points="95.06 148.65 90.72 149.8 90.72 147.57 95.06 147.57 95.06 148.65"/><polygon class="cls-12" points="86.04 170.32 81.7 171.57 81.7 169.24 86.04 169.24 86.04 170.32"/><polygon class="cls-12" points="86.04 148.65 81.71 149.8 81.71 147.57 86.04 147.57 86.04 148.65"/><polygon class="cls-12" points="76.91 170.32 72.57 171.57 72.57 169.24 76.91 169.24 76.91 170.32"/><polygon class="cls-12" points="76.9 148.65 72.57 149.8 72.57 147.57 76.9 147.57 76.9 148.65"/><polygon class="cls-12" points="67.83 170.32 63.49 171.57 63.49 169.24 67.83 169.24 67.83 170.32"/><polygon class="cls-12" points="67.83 148.65 63.5 149.8 63.5 147.57 67.83 147.57 67.83 148.65"/><polygon class="cls-12" points="58.77 170.32 54.43 171.57 54.43 169.24 58.77 169.24 58.77 170.32"/><polygon class="cls-12" points="58.76 148.65 54.43 149.8 54.43 147.57 58.76 147.57 58.76 148.65"/><polygon class="cls-12" points="49.68 170.32 45.34 171.57 45.34 169.24 49.68 169.24 49.68 170.32"/><polygon class="cls-12" points="49.67 148.65 45.34 149.8 45.34 147.57 49.67 147.57 49.67 148.65"/><polygon class="cls-12" points="40.6 170.32 36.26 171.57 36.26 169.24 40.6 169.24 40.6 170.32"/><polygon class="cls-12" points="40.6 148.65 36.27 149.8 36.27 147.57 40.6 147.57 40.6 148.65"/><polygon class="cls-12" points="31.53 170.32 27.2 171.57 27.2 169.24 31.53 169.24 31.53 170.32"/><polygon class="cls-12" points="31.53 148.65 27.2 149.8 27.2 147.57 31.53 147.57 31.53 148.65"/><polygon class="cls-12" points="22.45 170.32 18.12 171.57 18.12 169.24 22.45 169.24 22.45 170.32"/><polygon class="cls-12" points="22.41 148.65 18.08 149.8 18.08 147.57 22.41 147.57 22.41 148.65"/><path class="cls-31" d="M196.66,238.86a29.56,29.56,0,0,0,12.48,1.76"/><path class="cls-56" d="M226,103.36"/><path class="cls-57" d="M129.63,176a10.9,10.9,0,0,1,3.83,5.63c1,3.55,2.41,6.54,4.78,7.55,6.65,2.83,2.16,6.9,7.2,10.39,2.71,1.88,4.43,3.36,5.19,6.48,1,4,1.87,5.24,5.17,7,.65.35,4.79-.68,6.81,3.34,2.77,5.5,3.49,16.6,3.46,18.26h1.52a74.21,74.21,0,0,0-5.4-26.43C155.93,193.56,143.22,178.86,129.63,176Z"/><path class="cls-57" d="M199.82,157.53s.39,13.23-5.66,17.87-3.35,6.67-3.46,9.37a9.65,9.65,0,0,1-4.41,7.55c-2.71,1.62,1.23,6.4-7.17,12.45s-5.67,23.43-4.85,31.4l-1.71.18s-1.79-22.17,1.34-35.65c3.2-13.77,7-23.75,15.92-32S199.82,157.53,199.82,157.53Z"/><path class="cls-57" d="M148.57,137.13s22.13,15,21.9,49.56,0,56.14,0,56.14h-3.92s3-27.56,1.84-35.86-4-8.14-8.88-11.07.81-8.76-2.42-12.45-5.07-1.61-3.46-10.84-6.84-8.76-7.22-16.6S149.72,145.43,148.57,137.13Z"/><g class="cls-58"><path class="cls-59" d="M148.57,137.13a23.52,23.52,0,0,1,5.6,15.33c0,9.5,2.32,8.49,6.46,13.34s2.32,5.56,2.63,13,6.57,12.93,6.87,21.11,4.24-2.73,4.24-2.73l-7.17-56.88-12.33-7.58Z"/></g><g class="cls-60"><path class="cls-61" d="M199.82,157.53s-1.48,7.72-5.23,11.87-7.52,4.15-8.17,8.81.31,6.24-3.75,9.77c-2.42,2.1-2.21,3.45-2.86,7.6S172.65,205.3,172,211c-.34,2.74-1.44-5,.21-18.64,1.19-9.73,6.74-26.44,6.74-26.44l19.83-10.5,1.17,1.69"/></g><g class="cls-62"><path class="cls-63" d="M129.88,176.48a15.75,15.75,0,0,1,11.59,9.81c3.54,8.72,5,5.73,7.22,8.18s2.22,7.58,7.27,10.4c6,3.34,7,3.09,9.09,11l1.23,5.72-10.36,1-27.67-30.4-2.73-18.67,4.12,2.56"/></g><path class="cls-31" d="M165.72,251.18h9.57a7.78,7.78,0,0,0,7.63-6.24l3.72-18.35a4.11,4.11,0,0,0-4-4.93H157.48a3.36,3.36,0,0,0-3.29,4l3.9,19.26A7.78,7.78,0,0,0,165.72,251.18Z"/><g class="cls-64"><path class="cls-65" d="M160.32,221.47s6.08,14.56,25.36,21.11l-.57,7.19a7.78,7.78,0,0,1-4.18,6.29c-3.25,1.69-7.49,3.84-8.09,4-1,.2-20.27-4.57-20.67-5.17S148.4,234,148.4,233.4s0-11.73.4-12.32,11.73-3.78,11.73-3.78l-.44,2.83Z"/></g></g></g></g></svg>