<svg xmlns="http://www.w3.org/2000/svg" xmlns:xlink="http://www.w3.org/1999/xlink" viewBox="0 0 400 363"><defs><style>.cls-1{fill:#77c88a;}.cls-13,.cls-2,.cls-27{fill:none;}.cls-3{fill:#ba5320;}.cls-22,.cls-24,.cls-28,.cls-30,.cls-39,.cls-4,.cls-40,.cls-8{isolation:isolate;}.cls-5{fill-rule:evenodd;mix-blend-mode:multiply;fill:url(#linear-gradient);}.cls-6{opacity:0.7;}.cls-7{fill:url(#linear-gradient-2);}.cls-8{fill:#b2c1d4;opacity:0.12;}.cls-9{fill:url(#linear-gradient-3);}.cls-10{fill:#43c59e;}.cls-11{clip-path:url(#clip-path);}.cls-12{fill:url(#linear-gradient-4);}.cls-13{stroke:#27735b;stroke-width:0.65px;}.cls-13,.cls-27,.cls-40{stroke-miterlimit:10;}.cls-14{fill:#4fbd9a;}.cls-15{clip-path:url(#clip-path-2);}.cls-16{fill:url(#linear-gradient-5);}.cls-17{clip-path:url(#clip-path-3);}.cls-18{fill:url(#linear-gradient-6);}.cls-19{fill:#de6300;}.cls-20{fill:url(#linear-gradient-7);}.cls-21{fill:url(#linear-gradient-8);}.cls-22{opacity:0.25;fill:url(#linear-gradient-9);}.cls-23{fill:#a4a4a5;}.cls-24,.cls-40{fill:#221f1f;}.cls-24{opacity:0.39;}.cls-25{fill:#febf24;}.cls-26{fill:#2a2d36;}.cls-27{stroke:#2a2d36;}.cls-28,.cls-49{fill:#fff;}.cls-28,.cls-39{opacity:0.2;}.cls-29{clip-path:url(#clip-path-4);}.cls-30{opacity:0.1;fill:url(#linear-gradient-10);}.cls-31{fill:#e0e5e9;}.cls-32{clip-path:url(#clip-path-5);}.cls-33{fill:url(#linear-gradient-11);}.cls-34{fill:url(#linear-gradient-12);}.cls-35{fill:#c8ccce;}.cls-36{fill:url(#linear-gradient-13);}.cls-37{fill:#e29805;}.cls-38{clip-path:url(#clip-path-7);}.cls-39{fill:url(#linear-gradient-14);}.cls-40{stroke:#221f1f;opacity:0.17;}.cls-41{opacity:0.05;}.cls-42{fill:#1a2146;}.cls-43{fill:#ba5427;}.cls-44{clip-path:url(#clip-path-9);}.cls-45{fill:#b8c2c9;}.cls-46{fill:#e0e5f1;}.cls-47{fill:#f7b389;}.cls-48{fill:#ec8c5c;}.cls-50{fill:#3b5ba3;}.cls-51{fill:#304d87;}.cls-52{fill:#6b8dc4;}.cls-53{fill:#d3dde3;}.cls-54{fill:#8eafd4;}.cls-55{fill:#4e7bb1;}.cls-56{clip-path:url(#clip-path-10);}.cls-57{fill:#4a4746;}</style><linearGradient id="linear-gradient" x1="152.09" y1="336.57" x2="108.3" y2="336.57" gradientTransform="translate(1.12 0.96) rotate(0.11)" gradientUnits="userSpaceOnUse"><stop offset="0" stop-color="#fff" stop-opacity="0.1"/><stop offset="0.35" stop-color="#999fbb" stop-opacity="0.2"/><stop offset="0.99" stop-color="#38447a" stop-opacity="0.3"/></linearGradient><linearGradient id="linear-gradient-2" x1="-13.96" y1="738.6" x2="-13.96" y2="432.55" gradientTransform="translate(31.31 -411.88) rotate(-16.03)" gradientUnits="userSpaceOnUse"><stop offset="0" stop-color="#c8efff"/><stop offset="0.14" stop-color="#c8efff" stop-opacity="0.9"/><stop offset="1" stop-color="#c8efff" stop-opacity="0.3"/></linearGradient><linearGradient id="linear-gradient-3" x1="-777.01" y1="1.05" x2="-811.2" y2="50.05" gradientTransform="translate(916.84 157.86) rotate(-7.9)" gradientUnits="userSpaceOnUse"><stop offset="0.32" stop-color="#43c59e" stop-opacity="0"/><stop offset="0.44" stop-color="#3dad8b" stop-opacity="0.29"/><stop offset="0.6" stop-color="#369478" stop-opacity="0.6"/><stop offset="0.75" stop-color="#32826a" stop-opacity="0.82"/><stop offset="0.88" stop-color="#2f7761" stop-opacity="0.95"/><stop offset="0.99" stop-color="#2e735e"/></linearGradient><clipPath id="clip-path"><path class="cls-1" d="M80.2,281.83c6.06,2.54,16.49,9.13,19.22,12.5s5,11.41,6.4,13.3,5.7,6.69,6.32,9.59a34.94,34.94,0,0,1,.31,7.55l-.81-.28a21.33,21.33,0,0,0-.71-7.57,12.44,12.44,0,0,0-6.55-7.34c-2.57-1.12-9.17-1.94-12.9-4.44s-23-20.8-23-20.8-3.35-2.22-3.49-4S74.14,279.29,80.2,281.83Z"/></clipPath><linearGradient id="linear-gradient-4" x1="2241.76" y1="397.86" x2="2257.65" y2="371.1" gradientTransform="translate(-1943.97 -769.88) rotate(18.03)" xlink:href="#linear-gradient-3"/><clipPath id="clip-path-2"><path class="cls-2" d="M135.82,211.72s-22.72,15.39-22.49,50.89,0,66.28,0,66.28h4s-3.08-36.92-1.89-45.45,4.08-8.36,9.11-11.36-.83-9,2.48-12.78,5.21-1.66,3.55-11.13,7-9,7.42-17S134.64,220.24,135.82,211.72Z"/></clipPath><linearGradient id="linear-gradient-5" x1="3651.88" y1="238.19" x2="3632" y2="246.01" gradientTransform="matrix(-1, 0, 0, 1, 3759.95, 0)" gradientUnits="userSpaceOnUse"><stop offset="0.32" stop-color="#4fbd9a" stop-opacity="0"/><stop offset="0.39" stop-color="#4cb795" stop-opacity="0.18"/><stop offset="0.53" stop-color="#46ad8e" stop-opacity="0.47"/><stop offset="0.66" stop-color="#42a588" stop-opacity="0.7"/><stop offset="0.79" stop-color="#3fa083" stop-opacity="0.87"/><stop offset="0.9" stop-color="#3e9c81" stop-opacity="0.97"/><stop offset="0.99" stop-color="#3d9b80"/></linearGradient><clipPath id="clip-path-3"><path class="cls-1" d="M74.91,226.05s-.53,17.49,7.48,23.62,4.43,8.82,4.57,12.39a12.75,12.75,0,0,0,5.83,10c3.59,2.14-1.63,8.46,9.48,16.45s7.49,31,6.41,41.53l2.26.23s2.37-29.31-1.77-47.14c-4.23-18.21-9.22-31.41-21-42.27S74.91,226.05,74.91,226.05Z"/></clipPath><linearGradient id="linear-gradient-6" x1="105.5" y1="253.56" x2="90.93" y2="262.27" gradientTransform="matrix(1, 0, 0, 1, 0, 0)" xlink:href="#linear-gradient-5"/><linearGradient id="linear-gradient-7" x1="123.46" y1="330.68" x2="72.46" y2="322.96" gradientUnits="userSpaceOnUse"><stop offset="0.01" stop-color="#dd6c91" stop-opacity="0"/><stop offset="0.99" stop-color="#fadfe7"/></linearGradient><linearGradient id="linear-gradient-8" x1="154.64" y1="332.07" x2="128.46" y2="327.44" xlink:href="#linear-gradient-7"/><linearGradient id="linear-gradient-9" x1="271.61" y1="605.47" x2="368.41" y2="605.47" gradientTransform="translate(0 -431.89)" gradientUnits="userSpaceOnUse"><stop offset="0" stop-color="#b6d4f7"/><stop offset="1" stop-color="#b6d4f7" stop-opacity="0"/></linearGradient><clipPath id="clip-path-4"><path class="cls-2" d="M258.07,136.28l74.16-23.69a2.68,2.68,0,0,1,3.71,1.85l2.57,8.55-38.83,13.18Z"/></clipPath><linearGradient id="linear-gradient-10" x1="305.84" y1="569.15" x2="305.11" y2="547.19" gradientTransform="translate(0 -431.89)" gradientUnits="userSpaceOnUse"><stop offset="0.01"/><stop offset="1"/></linearGradient><clipPath id="clip-path-5"><path class="cls-2" d="M245.5,138.34V224s.62,5.46,7.11,5.46H387.74s2.27-.31,2.27-3.3V144.62s-.62-1.44-3.4-1.44H253.74S245.5,142.56,245.5,138.34Z"/></clipPath><linearGradient id="linear-gradient-11" x1="404.66" y1="519.47" x2="267.09" y2="643.17" gradientTransform="translate(0 -431.89)" gradientUnits="userSpaceOnUse"><stop offset="0" stop-color="#231f20" stop-opacity="0.9"/><stop offset="1" stop-color="#231f20" stop-opacity="0"/></linearGradient><linearGradient id="linear-gradient-12" x1="353.72" y1="628.94" x2="375.08" y2="619.85" gradientTransform="translate(0 -431.89)" gradientUnits="userSpaceOnUse"><stop offset="0" stop-color="#231f20" stop-opacity="0.9"/><stop offset="1" stop-color="#fff" stop-opacity="0"/></linearGradient><linearGradient id="linear-gradient-13" x1="421.22" y1="590.01" x2="360.14" y2="630.67" xlink:href="#linear-gradient-12"/><clipPath id="clip-path-7"><path class="cls-2" d="M299.68,136.28l62.83-21.43s2.26-2.26,2.88,0,6,21.43,6,21.43Z"/></clipPath><linearGradient id="linear-gradient-14" x1="373.48" y1="564.36" x2="297.92" y2="569.2" gradientTransform="translate(0 -431.89)" gradientUnits="userSpaceOnUse"><stop offset="0.01" stop-opacity="0"/><stop offset="1"/></linearGradient><clipPath id="clip-path-9"><path d="M214.14,89.25c.56.37.74-.27,1.54.42,0,0,2,3.3,3.48,1.86a4.48,4.48,0,0,0,1.58-4A20,20,0,0,1,214.14,89.25Z"/></clipPath><clipPath id="clip-path-10"><path class="cls-3" d="M209.4,89.25c.55.37.74-.27,1.54.42.05,0,1.95,3.3,3.48,1.86a4.48,4.48,0,0,0,1.58-4A20.09,20.09,0,0,1,209.4,89.25Z"/></clipPath></defs><title>Asset 11</title><g class="cls-4"><g id="Layer_2" data-name="Layer 2"><g id="Layer_1-2" data-name="Layer 1"><path class="cls-5" d="M145.83,340.91l-30.36-.06c-3.7,0-6.72-1.4-6.71-3.1h0c0-1.71,3-3.09,6.72-3.09l30.36.06c3.7,0,6.72,1.41,6.71,3.11h0C152.55,339.53,149.52,340.92,145.83,340.91Z"/><g class="cls-6"><path class="cls-7" d="M379.51,143.59c8.93,28.91,7.87,61.86-5.49,86.66a82.69,82.69,0,0,1-5.49,8.82h0a90.35,90.35,0,0,1-41.29,32.05l-2.45.93c-24.84,9-49.47,6.27-74.36,5.32-12.69-.49-25.37-.43-38.12,1.83-17.94,3.21-34.58,13.36-50.38,21.8-1.36.7-2.7,1.48-4.13,2.2-7.65,4-15.44,7.79-23.47,11a144.58,144.58,0,0,1-25.5,7.79c-10.47,2.07-22.93,1.84-33.42,0a80.26,80.26,0,0,1-28.56-11.27,98.32,98.32,0,0,1-25.3-24.06,107.61,107.61,0,0,1-13-23A114.22,114.22,0,0,1,1.86,242a91.73,91.73,0,0,1-.65-33.16,73.83,73.83,0,0,1,15.32-33.47,121.13,121.13,0,0,1,16.16-16.72c1-.83,2-1.74,3-2.5C47,147,60,138.77,70.32,128.33A68.54,68.54,0,0,0,80.9,114.69C94.54,91.14,95.8,63,107.79,38.79a4,4,0,0,1,.41-.74h0A65.61,65.61,0,0,1,116,26.29h0A74,74,0,0,1,140,8.1a83.58,83.58,0,0,1,52.13-6.48c14.19,3,26.4,10.26,37.83,19.13,17.56,13.65,33.47,31.05,52.39,42.68,23,14.12,53.51,17,72.25,36.43C365.92,111.5,374.4,126.91,379.51,143.59Z"/><path class="cls-8" d="M53,272.39a67.63,67.63,0,0,1-31.32,14.37,107.55,107.55,0,0,1-13-23,44.24,44.24,0,0,0,29.17-9.93,44.56,44.56,0,0,0,6-62.66A44.79,44.79,0,0,0,16.6,175.39a121.71,121.71,0,0,1,16.16-16.72c1-.83,2-1.74,3-2.5A68,68,0,0,1,62.3,176.06C86.4,205.44,82.19,248.57,53,272.39Z"/><path class="cls-8" d="M201.31,230.08a199.74,199.74,0,0,1,49.14,47.36c-12.69-.49-25.37-.43-38.12,1.84-17.94,3.2-34.58,13.36-50.38,21.79-1.36.7-2.7,1.48-4.12,2.2-7.66,4-15.45,7.79-23.48,11,4.59-83.83-57.79-112.73-63.94-185.92A68.17,68.17,0,0,0,81,114.74C94.64,91.19,95.89,63,107.88,38.84a4.64,4.64,0,0,1,.41-.74C90.1,106.59,122.8,177.29,201.31,230.08Z"/><path class="cls-8" d="M368.53,239.07a90.35,90.35,0,0,1-41.29,32.05c-12.06-10.8-33.37-25.32-70.29-39.65-97.62-37.95-141.7-108.65-140.84-205.2h0A73.2,73.2,0,0,1,140,8.1c-.58,39.75,7.9,103.7,59.95,147.65C271.53,216.3,337.37,204.94,368.53,239.07Z"/></g><path class="cls-1" d="M119.89,326.67S116,305.61,119,301.12s6-5.22,6.8-9.38.67-12.25,4-15.08,7.33-.68,13.55-7,10.52-4.5,11.65-1.27-5.75,4.85-6.61,8.34-.14,11.17-3,14.61-8.63,5.92-8.89,11.36,1.12,9.62-3.63,14.33-8,4.17-8.2,9.94Z"/><path class="cls-9" d="M119.89,326.67S116,305.61,119,301.12s6-5.22,6.8-9.38.67-12.25,4-15.08,7.33-.68,13.55-7,10.52-4.5,11.65-1.27-5.75,4.85-6.61,8.34-.14,11.17-3,14.61-8.63,5.92-8.89,11.36,1.12,9.62-3.63,14.33-8,4.17-8.2,9.94Z"/><path class="cls-10" d="M80.2,281.83c6.06,2.54,16.49,9.13,19.22,12.5s5,11.41,6.4,13.3,5.7,6.69,6.32,9.59a34.94,34.94,0,0,1,.31,7.55l-.81-.28a21.33,21.33,0,0,0-.71-7.57,12.44,12.44,0,0,0-6.55-7.34c-2.57-1.12-9.17-1.94-12.9-4.44s-23-20.8-23-20.8-3.35-2.22-3.49-4S74.14,279.29,80.2,281.83Z"/><path class="cls-1" d="M80.2,281.83c6.06,2.54,16.49,9.13,19.22,12.5s5,11.41,6.4,13.3,5.7,6.69,6.32,9.59a34.94,34.94,0,0,1,.31,7.55l-.81-.28a21.33,21.33,0,0,0-.71-7.57,12.44,12.44,0,0,0-6.55-7.34c-2.57-1.12-9.17-1.94-12.9-4.44s-23-20.8-23-20.8-3.35-2.22-3.49-4S74.14,279.29,80.2,281.83Z"/><g class="cls-11"><path class="cls-12" d="M65.74,281s10.77,2.22,14.93,6.74,8,14.93,8,14.93L79.17,301,62,284.37S62.88,280.45,65.74,281Z"/></g><path class="cls-13" d="M123.43,320.44s2.41-28.7,23-48"/><path class="cls-14" d="M74.91,226.05s-.53,17.49,7.48,23.62,4.43,8.82,4.57,12.39a12.75,12.75,0,0,0,5.83,10c3.59,2.14-1.63,8.46,9.48,16.45s7.49,31,6.41,41.53l2.26.23s2.37-29.31-1.77-47.14c-4.23-18.21-9.22-31.41-21-42.27S74.91,226.05,74.91,226.05Z"/><path class="cls-1" d="M135.82,211.72s-22.72,15.39-22.49,50.89,0,66.28,0,66.28h4s-3.08-36.92-1.89-45.45,4.08-8.36,9.11-11.36-.83-9,2.48-12.78,5.21-1.66,3.55-11.13,7-9,7.42-17S134.64,220.24,135.82,211.72Z"/><g class="cls-15"><path class="cls-16" d="M135.82,211.72a24.17,24.17,0,0,0-5.74,15.74c0,9.75-2.39,8.71-6.64,13.69s-2.39,5.71-2.7,13.39-6.74,13.27-7,21.68-4.36-2.81-4.36-2.81L116.7,215l12.65-7.78Z"/></g><path class="cls-1" d="M74.91,226.05s-.53,17.49,7.48,23.62,4.43,8.82,4.57,12.39a12.75,12.75,0,0,0,5.83,10c3.59,2.14-1.63,8.46,9.48,16.45s7.49,31,6.41,41.53l2.26.23s2.37-29.31-1.77-47.14c-4.23-18.21-9.22-31.41-21-42.27S74.91,226.05,74.91,226.05Z"/><g class="cls-17"><path class="cls-18" d="M74.91,226.05s2,10.2,6.92,15.69,9.93,5.48,10.79,11.65-.41,8.25,5,12.92c3.21,2.78,2.92,4.56,3.78,10s9.46,12.86,10.39,20.37c.45,3.62,1.91-6.67-.28-24.65-1.57-12.86-8.91-35-8.91-35L76.34,223.23l-1.54,2.23"/></g><path class="cls-19" d="M146.24,315.81c-1.05,12.63-12.1,22.88-26.35,24.89h-.06a36.68,36.68,0,0,1-5.07.35c-16.66,0-30.31-11.14-31.48-25.25Z"/><path class="cls-20" d="M119.83,340.71a36.68,36.68,0,0,1-5.07.35c-16.66,0-30.31-11.14-31.48-25.25h21.94S104.57,334.35,119.83,340.71Z"/><path class="cls-21" d="M146.24,315.81c-1.05,12.63-12.1,22.88-26.35,24.89,1.25-.24,20.83-3.65,23.21-24.89Z"/><path class="cls-22" d="M363.11,251.24c-1.84.27-3.68.41-5.59.54-44.62,2.73-83-31.51-85.75-76.33a81.24,81.24,0,0,1,50.07-80.22c5.25,17.8,7.5,37.31,14.67,54.43,8.66,20.74,27.9,37.66,31.1,59.9C369.59,222.93,367.82,237.46,363.11,251.24Z"/><path class="cls-23" d="M245.5,138.34s-1.85-5.57,11-5.57,120.41-3.29,120.41-3.29,1.75,0,1.75,1.44v5.66h2v2.89h1.95v3.71H253.74a17.16,17.16,0,0,1-5.66-1.45A3.92,3.92,0,0,1,245.5,138.34Z"/><path class="cls-24" d="M382.59,144.82l-128.44-1.75s-5.45,0-8-2.88a2.84,2.84,0,0,1-.72-2s-.62,4.23,8.86,4.43c5.46.1,128.23-1,128.23-1v3.19Z"/><path class="cls-25" d="M299.68,136.28l62.83-21.43s2.26-2.26,2.88,0,6,21.43,6,21.43Z"/><path class="cls-26" d="M258.07,136.28l76-24.31s2.89-1.14,3.71,1.85l2.68,8.45-40.58,14Z"/><path class="cls-27" d="M380.53,139.47H252.92s-2.16.1-2.16-1.55,2.16-1.54,2.16-1.54l127.61.31"/><polygon class="cls-28" points="308.54 124.84 333.67 115.98 334.7 118.56 309.36 127.21 308.54 124.84"/><g class="cls-29"><path class="cls-30" d="M352,118.77s-35.84,10.71-44.8,11.53-32.34.72-32.34.72l-18.54,6,52.22,4.53L355,126.59Z"/></g><path class="cls-31" d="M390,144.62v81.57c0,3-2.27,3.3-2.27,3.3h-135a7.57,7.57,0,0,1-3.71-.83,6.22,6.22,0,0,1-3.39-4.63V138.34c0,4.32,8.24,4.84,8.24,4.84H386.61C389.39,143.18,390,144.62,390,144.62Z"/><g class="cls-32"><path class="cls-33" d="M263.84,92.19S275,179.53,304.52,204,395,220,395,220v21.63L230.57,236.7V98.78Z"/></g><g class="cls-32"><path class="cls-34" d="M366.53,173.46H396a2.33,2.33,0,0,1,2.27,2.57v19.16a4.2,4.2,0,0,1-4,3h-27.7s-4.85-.52-4.85-3v-17.1C361.68,178,361.17,173.46,366.53,173.46Z"/></g><path class="cls-35" d="M368.28,172h29.45a2.33,2.33,0,0,1,2.27,2.57v19.16a4.2,4.2,0,0,1-4,3h-27.7s-4.84-.52-4.84-3v-17.1C363.44,176.55,362.82,172,368.28,172Z"/><path class="cls-36" d="M368.28,172h29.45a2.33,2.33,0,0,1,2.27,2.57v19.16a4.2,4.2,0,0,1-4,3h-27.7s-4.84-.52-4.84-3v-17.1C363.44,176.55,362.82,172,368.28,172Z"/><polygon class="cls-37" points="352.31 123.5 363.33 119.69 364.26 122.27 353.34 126.18 352.31 123.5"/><polygon class="cls-37" points="354.17 127.83 364.77 124.02 365.29 125.25 354.68 129.17 354.17 127.83"/><path class="cls-2" d="M368.28,172h29.45a2.33,2.33,0,0,1,2.27,2.57v19.16a4.2,4.2,0,0,1-4,3h-27.7s-4.84-.52-4.84-3v-17.1C363.44,176.55,362.82,172,368.28,172Z"/><g class="cls-38"><path class="cls-39" d="M303.7,131.43s21.94,1.86,28.22,1.86,40.68.72,40.68.72l1.75,3.91H296.28Z"/></g><g class="cls-32"><path class="cls-40" d="M361.07,248v9.78l-20,1.55v-9.79Zm-20-.1v-9.79l20-1.54v9.78Zm20,11.53v9.79l-20,1.54V261Zm0,11.43v9.79l-20,1.65v-9.79Zm0,11.54v9.78l-20,1.55V284Zm0,11.43v9.79l-20,1.54v-9.78Zm0,11.44v9.78l-20,1.54v-9.78Zm0,11.43v9.78l-20,1.55v-9.79ZM361,328.16v9.89l-20,1.54v-9.88Zm0,11.43v9.79l-20,1.54v-9.78Zm-20,22.87v-9.79l20-1.54v9.78Z"/></g><g class="cls-41"><path d="M202,172.89a109,109,0,0,1,16.78-22,108.72,108.72,0,0,0-16.78,22h0m16.79-22,0-.06,0,.06m.12-.12,0,0,0,0m.12-.12h0"/><polygon points="198.17 333.06 200.4 319.21 194.17 317.33 193.18 332 198.17 333.06 198.17 333.06"/><path d="M192.94,330.52a2.14,2.14,0,0,0-1.12.48c-2.21,1.83-8.91,5.1-12.35,5.59-3.68.54-3.87,2.36,1.32,2.36s9-.46,11.3-.4a66.73,66.73,0,0,0,7.39.4c4.37,0,3-5.56,1.44-8.15a1.94,1.94,0,0,0-2.06-1.1l-5.92.82Z"/><polygon points="218.23 320.15 209.53 309.14 203.93 312.46 214.07 323.11 218.23 320.15 218.23 320.15"/><path d="M212.82,322.28a2.23,2.23,0,0,0-.41,1.15c-.14,2.86-2.36,10.17-4.93,12.52s-.94,3,3.33,1c4.69-2.22,5.74-6.94,7.34-8.6a64.64,64.64,0,0,0,5.3-5.18c3-3.21-2.07-6-5-6.57a2,2,0,0,0-2.21.78l-3.39,4.91Z"/><path d="M222.07,86.61s1.7,11.34-1.59,16.56-3.76,6-3.76,6"/><path d="M213.71,114.25a6,6,0,0,0,3,.82,5.88,5.88,0,0,0,5.06-2.87c.06-.09.65-1.07,3.69-5.88,2.14-3.39,2.82-8,2.92-12.07a50.63,50.63,0,0,0-.48-8.52,5.91,5.91,0,0,0-11.68,1.75,39.34,39.34,0,0,1,.39,5.53,24.75,24.75,0,0,1-.45,5.11,6.11,6.11,0,0,1-.67,1.9c-3.36,5.33-3.84,6.15-3.84,6.15a5.89,5.89,0,0,0,2.05,8.08Z"/><path d="M235.49,179.16c-1.24-16.92,4.46-58.95,7.38-75.68a4.16,4.16,0,0,0-4.09-4.86H204a4.15,4.15,0,0,0-4,3.07c-4,15.18-6.51,77.47-6.51,77.47Z"/><path d="M178,143.91c.59-3.16,4.46-11.31,8.82-19.82,4.62-9,9.79-18.49,12.17-22.78a5,5,0,0,1,8.74,4.83c-3.68,6.62-7.47,13.69-10.74,20-3.74,7.2-7.38,11.65-8.85,15.19,2.71,2.37,9.39,2.52,14.73,2.2,1.46-.17,7.12-.57,10.89,2.89a9.47,9.47,0,0,1,3,7.73c-.12,2.68-.51,3.78-2.9,4.94a6.34,6.34,0,0,1-3.34.47c-2.74-.33-3-1.82-3-5a12.31,12.31,0,0,0-1.17-4.57s-8.07,2-14.82,2.82-9.47-.47-11.94-3.26a6.61,6.61,0,0,1-1.61-5.61Z"/><path d="M233.66,206.49s5.11-9.38,1.82-27.33h-42s-.59,13.67.37,27.33Z"/><path d="M186.86,124.09l4.89,1,5.28,1.07c3.27-6.31,7.06-13.38,10.74-20a5,5,0,0,0-8.74-4.83c-2.38,4.29-7.55,13.74-12.17,22.78Z"/><path d="M234.15,102.53a5,5,0,0,1,6-3.64c12.05,3,20.41,5.69,26.24,8.13,13.39,5.64,13.27,9.82,13.23,12-.07,2.44-.54,7.15-29.44,17.68a19,19,0,0,0,1.49,5.2c1.31,2.43-.05,4.75-1.49,7.1a3.71,3.71,0,0,1-3,1.77c-1.77,0-4-2.24-4.28-4.11-1.09-6.74-.9-10.7-.57-11.49h0v0l.1-.19a6.06,6.06,0,0,1,.36-.66l.3-.35.32-.39a6.11,6.11,0,0,1,.63-.51l.1-.09a4.92,4.92,0,0,1,1.1-.55c9.78-4,18.91-10.53,22.93-13.42a51.71,51.71,0,0,0-5.86-2.72,197.87,197.87,0,0,0-24.55-7.65,5,5,0,0,1-3.66-6Z"/><path d="M186.08,121.92l6.69,1.28,5.26,1h0l4.44.85c5.73-11.23,7.1-13.8,7.31-17.65.24-4.34-.93-6.49-3.75-8a5.84,5.84,0,0,0-8,2.27,189.49,189.49,0,0,0-12,20.29Z"/><path d="M167.79,262.05c.62,4.13,2.86,8.55,6,14,5.24,9.1,13.26,19.17,20.45,27.64,5,5.89,9.61,11,12.56,14.48,1.29,1.48,2.26,2.67,2.84,3.49l5.93-7.69c-2.21-3.1-4.26-7.29-6.83-11.2l-.2-.3c-4.84-7.3-10-15.53-14.13-23a7.18,7.18,0,0,1-.43-.75c-4.39-7.92-7.65-14.93-8.27-19-1.1-7.33,9.84-30.14,20.66-50.26,1.23-2.31,2.47-4.58,3.69-6.78a5.68,5.68,0,0,0,.7-2.44c.32-3.71-2.4-8-5.71-9.79-4.06-2.23-9.3-3.39-11.54.67-4.58,8.3-28.41,53-25.7,71Z"/><path d="M194.22,303.7c5,5.89,9.61,11,12.56,14.48.47-4.11,1-8.57,1.47-13.08.1-.87.19-1.73.27-2.62-4.84-7.3-10-15.53-14.13-23-.18,7.4-.2,16-.17,24.23Z"/><path d="M195.31,264.31c2.06-16.8,16.16-61.94,18.35-66.91,1.85-4.25,12-5.15,16.3-3.28a8.39,8.39,0,0,1,4.31,11.06c-5.66,12.9-21.77,47.38-23.38,59.59-.93,7.29-2.19,22-4.49,34.47-1.62,8.73-3.24,17.23-4.44,23.41-1,5.36-1,4.38-1.14,4.92L190.75,326s2.14-41.91,4.56-61.72Z"/><path d="M237.81,108.57a197.87,197.87,0,0,1,24.55,7.65l4.07-9.2c-5.83-2.44-14.19-5.18-26.24-8.13a5,5,0,1,0-2.38,9.68Z"/><path d="M240.12,98.75a5.31,5.31,0,0,0-6.36,4.16c-.86,3.11,1.3,5.55,4.08,7.19,3.43,2,4.58,2.39,19,7.35l8-11.11c-18.42-7.13-19.37-6.82-24.72-7.59Z"/><path d="M216.17,98.12c.26,0,.53,0,.8,0a18.7,18.7,0,0,0,11.42-3.89,50.63,50.63,0,0,0-.48-8.52,5.91,5.91,0,0,0-11.68,1.75,39.34,39.34,0,0,1,.39,5.53,24.75,24.75,0,0,1-.45,5.11Z"/><path d="M199.46,77.15C201.81,88,207.85,95.9,218.21,95.9s16.9-7.83,18.75-18.75c1.74-10.21-8.44-20.22-18.8-20.22s-20.9,10.1-18.7,20.22Z"/><path d="M198.05,327.62l0-.29c2.84-17.57,7.13-44.11,9.31-60.8,1.58-12.15,16.62-48.29,22.28-61.19l.1-.29.05-.15c.91-2.49,3.71-11.72,1-26.21l-.82.15c2.62,14.28-.11,23.34-1,25.77l-.07.21,0,.18c-5.68,12.93-20.76,49.17-22.35,61.42-2.18,16.68-6.47,43.21-9.3,60.77l-.05.3.82.13Z"/><path d="M211.54,98.62c0,2.52,1,6.78,7.65,6.78,4.84,0,10.92-2.05,13.16-5.94l.48-.84Z"/><path d="M230.9,98.62c-1.78,3.09-7.1,5.11-11.71,5.11s-6-2.29-6-5.11Z"/><path d="M205.65,151c0-.06-.25-2.89,2.67-7l-2.73-1.62c-3.46,5.14-3.12,8.87-3.12,9.11l3.18-.45Z"/><path d="M207.81,142.4a4.14,4.14,0,0,0-4.64.76c-1,1.15-.53,2.66,1,3.39a4.15,4.15,0,0,0,4.64-.76c1-1.14.53-2.66-1-3.39Z"/><polygon points="209.72 207.24 214.31 178.83 213.48 178.7 208.89 207.1 209.72 207.24 209.72 207.24"/><path d="M210.17,201.84l.13-.83a4.62,4.62,0,0,1-2.72-1.6,3.81,3.81,0,0,1-.55-2.92l2.91-18-.83-.13-2.91,18a4.63,4.63,0,0,0,.71,3.55,5.36,5.36,0,0,0,3.26,1.94Z"/><path d="M237.63,76.07a6.57,6.57,0,0,1-.07,5.52,2.6,2.6,0,0,1-4.7-.13l-2.43-5.41a2.6,2.6,0,0,1,3-3.59,6.51,6.51,0,0,1,4.17,3.61Z"/><path d="M212.4,78.39a.74.74,0,1,0,.61-.94A.79.79,0,0,0,212.4,78.39Z"/><path d="M220.7,76.28a.81.81,0,0,0,.84.75.87.87,0,1,0-.84-.75Z"/><path d="M223.6,74a5.58,5.58,0,0,0-7-.53"/><path class="cls-42" d="M223.6,74a10.65,10.65,0,0,0-3.46-1,6.71,6.71,0,0,0-1.73.07,18.52,18.52,0,0,0-1.83.44,4.06,4.06,0,0,1,1.61-1.19,4.26,4.26,0,0,1,2-.31,4.67,4.67,0,0,1,1.95.63A4,4,0,0,1,223.6,74Z"/><path d="M213.54,74a5.7,5.7,0,0,0-5.37,3.09"/><path class="cls-42" d="M213.54,74a14.24,14.24,0,0,0-2.95,1.12,7.88,7.88,0,0,0-1.25.85c-.41.32-.75.72-1.17,1.12a3.44,3.44,0,0,1,.67-1.59,3.88,3.88,0,0,1,1.33-1.15,4.53,4.53,0,0,1,1.67-.53A3.64,3.64,0,0,1,213.54,74Z"/><path d="M215.91,77.35a35.27,35.27,0,0,1-1,4.44c-.67,1.92.94,2.87,2.89,3.49"/><path class="cls-43" d="M215.91,77.35a14.21,14.21,0,0,1-.15,2.45c0,.41-.14.81-.22,1.22s-.24.85-.32,1.16a1.76,1.76,0,0,0,.61,1.83,10.5,10.5,0,0,0,2,1.27,5.46,5.46,0,0,1-2.36-.81,2.42,2.42,0,0,1-.89-1,2.35,2.35,0,0,1-.09-1.41c.28-.83.47-1.53.7-2.33S215.64,78.13,215.91,77.35Z"/><path d="M214.14,89.25c.56.37.74-.27,1.54.42,0,0,2,3.3,3.48,1.86a4.48,4.48,0,0,0,1.58-4A20,20,0,0,1,214.14,89.25Z"/><g class="cls-44"><path d="M216.11,89c.1.19.22.46.32.66a5,5,0,0,0,4.63-2.28l-5.19,1.18C216,88.67,216,88.77,216.11,89Z"/></g><path d="M199.94,63.27c5.63-9.12,19.6-9.88,22.32-9.74,1.44.07,4.53.89,5.9,3a23.14,23.14,0,0,0,0-2.81,4.28,4.28,0,0,1,1.2,3.73,16,16,0,0,0,1.44-2.35,3,3,0,0,1-.82,3c3.81.89,8.69,6.28,7,17.34-.73,4.83-11.6,1.14-14.68-3.69a9.93,9.93,0,0,1-6.17,4,20.08,20.08,0,0,0,3.65-5.7c-5.79,3.54-13.54,7.36-14.43,9.72,0,0-1.67-3.79-.41-6.2,0,0-4.6,1.15-5.18,5.74,0,0-5.87-6.34.17-16.1Z"/></g><path class="cls-45" d="M197.26,172.89a108.68,108.68,0,0,1,16.79-22,108.41,108.41,0,0,0-16.79,22h0m16.79-22,.06-.06-.06.06m.13-.12,0,0,0,0m.12-.12h0"/><polygon class="cls-46" points="193.43 333.06 195.66 319.21 189.43 317.33 188.43 332 193.43 333.06 193.43 333.06"/><path class="cls-47" d="M188.2,330.52a2.21,2.21,0,0,0-1.13.48c-2.2,1.83-8.9,5.1-12.34,5.59-3.69.54-3.87,2.36,1.31,2.36s9-.46,11.3-.4a66.8,66.8,0,0,0,7.4.4c4.36,0,3-5.56,1.44-8.15a2,2,0,0,0-2.07-1.1l-5.91.82Z"/><polygon class="cls-46" points="213.48 320.15 204.79 309.14 199.19 312.46 209.33 323.11 213.48 320.15 213.48 320.15"/><path class="cls-47" d="M208.08,322.28a2.14,2.14,0,0,0-.41,1.15c-.15,2.86-2.36,10.17-4.93,12.52s-.94,3,3.32,1c4.69-2.22,5.74-6.94,7.35-8.6a66.45,66.45,0,0,0,5.3-5.18c2.95-3.21-2.07-6-5-6.57a2,2,0,0,0-2.2.78l-3.39,4.91Z"/><path class="cls-48" d="M217.33,86.61S219,98,215.74,103.17s-3.76,6-3.76,6"/><path class="cls-47" d="M209,114.25a5.9,5.9,0,0,0,8.06-2c.07-.09.66-1.07,3.69-5.88,2.14-3.39,2.83-8,2.93-12.07a49.19,49.19,0,0,0-.49-8.52,5.9,5.9,0,0,0-11.67,1.75,39.37,39.37,0,0,1,.38,5.53,24.08,24.08,0,0,1-.45,5.11,5.88,5.88,0,0,1-.66,1.9c-3.36,5.33-3.85,6.15-3.85,6.15a5.88,5.88,0,0,0,2.06,8.08Z"/><path class="cls-49" d="M230.74,179.16c-1.23-16.92,4.46-58.95,7.39-75.68a4.16,4.16,0,0,0-4.1-4.86H199.27a4.14,4.14,0,0,0-4,3.07c-4,15.18-6.51,77.47-6.51,77.47Z"/><path class="cls-47" d="M173.3,143.91c.58-3.16,4.46-11.31,8.82-19.82,4.62-9,9.78-18.49,12.17-22.78a5,5,0,1,1,8.73,4.83c-3.67,6.62-7.46,13.69-10.73,20-3.75,7.2-7.39,11.65-8.86,15.19,2.72,2.37,9.4,2.52,14.74,2.2,1.46-.17,7.12-.57,10.89,2.89a9.5,9.5,0,0,1,3,7.73c-.12,2.68-.51,3.78-2.89,4.94a6.35,6.35,0,0,1-3.34.47c-2.74-.33-3-1.82-3-5a12.22,12.22,0,0,0-1.18-4.57s-8.06,2-14.82,2.82-9.47-.47-11.94-3.26a6.6,6.6,0,0,1-1.6-5.61Z"/><path class="cls-50" d="M228.91,206.49s5.12-9.38,1.83-27.33h-42a272.78,272.78,0,0,0,.37,27.33Z"/><path class="cls-48" d="M182.12,124.09l4.89,1,5.28,1.07c3.27-6.31,7.06-13.38,10.73-20a5,5,0,1,0-8.73-4.83c-2.39,4.29-7.55,13.74-12.17,22.78Z"/><path class="cls-47" d="M229.41,102.53a5,5,0,0,1,6-3.64c12,3,20.41,5.69,26.24,8.13,13.39,5.64,13.27,9.82,13.22,12-.06,2.44-.54,7.15-29.43,17.68a19,19,0,0,0,1.49,5.2c1.31,2.43-.05,4.75-1.49,7.1a3.73,3.73,0,0,1-3,1.77c-1.77,0-4-2.24-4.28-4.11-1.09-6.74-.9-10.7-.57-11.49h0v0l.11-.19a6.06,6.06,0,0,1,.36-.66l.29-.35.33-.39a6,6,0,0,1,.62-.51l.11-.09a5.07,5.07,0,0,1,1.09-.55c9.78-4,18.92-10.53,22.93-13.42a50.1,50.1,0,0,0-5.86-2.72,197.12,197.12,0,0,0-24.54-7.65,5,5,0,0,1-3.66-6Z"/><path class="cls-49" d="M181.33,121.92l6.7,1.28,5.26,1h0l4.44.85c5.72-11.23,7.09-13.8,7.31-17.65.24-4.34-.93-6.49-3.76-8a5.83,5.83,0,0,0-7.94,2.27,188.53,188.53,0,0,0-12,20.29Z"/><path class="cls-50" d="M163.05,262.05c.61,4.13,2.85,8.55,6,14,5.24,9.1,13.25,19.17,20.45,27.64,5,5.89,9.6,11,12.56,14.48,1.28,1.48,2.25,2.67,2.84,3.49l5.93-7.69c-2.21-3.1-4.26-7.29-6.83-11.2l-.2-.3c-4.85-7.3-10-15.53-14.13-23-.17-.25-.3-.5-.44-.75-4.39-7.92-7.64-14.93-8.26-19-1.1-7.33,9.83-30.14,20.65-50.26,1.24-2.31,2.48-4.58,3.7-6.78a6,6,0,0,0,.7-2.44c.31-3.71-2.41-8-5.71-9.79-4.06-2.23-9.31-3.39-11.54.67-4.58,8.3-28.41,53-25.7,71Z"/><path class="cls-51" d="M189.48,303.7c5,5.89,9.6,11,12.56,14.48.47-4.11,1-8.57,1.47-13.08.1-.87.18-1.73.27-2.62-4.85-7.3-10-15.53-14.13-23-.19,7.4-.2,16-.17,24.23Z"/><path class="cls-50" d="M190.56,264.31c2.06-16.8,16.17-61.94,18.36-66.91,1.85-4.25,12-5.15,16.3-3.28a8.39,8.39,0,0,1,4.31,11.06c-5.67,12.9-21.78,47.38-23.38,59.59-.94,7.29-2.19,22-4.5,34.47-1.62,8.73-3.23,17.23-4.44,23.41-1,5.36-1,4.38-1.14,4.92L186,326s2.13-41.91,4.55-61.72Z"/><path class="cls-48" d="M233.07,108.57a197.12,197.12,0,0,1,24.54,7.65l4.08-9.2c-5.83-2.44-14.2-5.18-26.24-8.13a5,5,0,1,0-2.38,9.68Z"/><path class="cls-49" d="M235.38,98.75a5.31,5.31,0,0,0-6.36,4.16c-.86,3.11,1.29,5.55,4.08,7.19,3.42,2,4.57,2.39,19,7.35l8-11.11c-18.42-7.13-19.37-6.82-24.72-7.59Z"/><path class="cls-48" d="M211.42,98.12c.27,0,.54,0,.81,0a18.72,18.72,0,0,0,11.42-3.89,49.19,49.19,0,0,0-.49-8.52,5.9,5.9,0,0,0-11.67,1.75,39.37,39.37,0,0,1,.38,5.53,24.08,24.08,0,0,1-.45,5.11Z"/><path class="cls-47" d="M194.72,77.15C197.07,88,203.11,95.9,213.47,95.9s16.89-7.83,18.75-18.75c1.73-10.21-8.45-20.22-18.8-20.22S192.51,67,194.72,77.15Z"/><path class="cls-52" d="M193.31,327.62l.05-.29c2.84-17.57,7.13-44.11,9.3-60.8,1.59-12.15,16.63-48.29,22.29-61.19l.1-.29,0-.15c.92-2.49,3.71-11.72,1.06-26.21l-.82.15c2.61,14.28-.12,23.34-1,25.77l-.07.21-.06.18c-5.67,12.93-20.75,49.17-22.35,61.42-2.17,16.68-6.46,43.21-9.3,60.77l-.05.3.83.13Z"/><path class="cls-53" d="M206.8,98.62c0,2.52,1,6.78,7.65,6.78,4.84,0,10.92-2.05,13.15-5.94l.49-.84Z"/><path class="cls-47" d="M226.16,98.62c-1.78,3.09-7.1,5.11-11.71,5.11s-6-2.29-6-5.11Z"/><path class="cls-54" d="M200.9,151c0-.06-.25-2.89,2.68-7l-2.73-1.62c-3.47,5.14-3.12,8.87-3.12,9.11l3.17-.45Z"/><path class="cls-55" d="M203.07,142.4a4.14,4.14,0,0,0-4.64.76c-1,1.15-.54,2.66,1,3.39a4.14,4.14,0,0,0,4.64-.76c1-1.14.53-2.66-1-3.39Z"/><polygon class="cls-52" points="204.97 207.24 209.56 178.83 208.74 178.7 204.15 207.1 204.97 207.24 204.97 207.24"/><path class="cls-52" d="M205.43,201.84l.12-.83a4.61,4.61,0,0,1-2.71-1.6,3.77,3.77,0,0,1-.55-2.92l2.9-18-.82-.13-2.91,18a4.59,4.59,0,0,0,.71,3.55,5.36,5.36,0,0,0,3.26,1.94Z"/><path class="cls-47" d="M232.88,76.07a6.49,6.49,0,0,1-.07,5.52,2.6,2.6,0,0,1-4.69-.13l-2.43-5.41a2.6,2.6,0,0,1,3-3.59,6.51,6.51,0,0,1,4.17,3.61Z"/><path class="cls-42" d="M207.66,78.39a.79.79,0,0,0,.84.75.86.86,0,0,0-.23-1.69A.79.79,0,0,0,207.66,78.39Z"/><path class="cls-42" d="M216,76.28a.74.74,0,1,0,1.45-.2.79.79,0,0,0-.84-.75A.8.8,0,0,0,216,76.28Z"/><path class="cls-42" d="M218.85,74a10.51,10.51,0,0,0-3.46-1,6.73,6.73,0,0,0-1.73.07,18.35,18.35,0,0,0-1.82.44,4,4,0,0,1,1.6-1.19,4.3,4.3,0,0,1,2-.31,4.72,4.72,0,0,1,2,.63A3.89,3.89,0,0,1,218.85,74Z"/><path class="cls-42" d="M208.8,74a14.24,14.24,0,0,0-3,1.12,7.06,7.06,0,0,0-1.25.85c-.41.32-.75.72-1.18,1.12a3.55,3.55,0,0,1,.67-1.59,4.07,4.07,0,0,1,1.33-1.15,4.59,4.59,0,0,1,1.67-.53A3.66,3.66,0,0,1,208.8,74Z"/><path class="cls-43" d="M211.17,77.35A15.28,15.28,0,0,1,211,79.8c0,.41-.13.81-.21,1.22s-.25.85-.32,1.16a1.74,1.74,0,0,0,.61,1.83,10.2,10.2,0,0,0,2,1.27,5.5,5.5,0,0,1-2.37-.81,2.46,2.46,0,0,1-.88-1,2.35,2.35,0,0,1-.09-1.41c.27-.83.47-1.53.69-2.33S210.9,78.13,211.17,77.35Z"/><path class="cls-3" d="M209.4,89.25c.55.37.74-.27,1.54.42.05,0,1.95,3.3,3.48,1.86a4.48,4.48,0,0,0,1.58-4A20.09,20.09,0,0,1,209.4,89.25Z"/><g class="cls-56"><path class="cls-49" d="M211.37,89l.32.66a5,5,0,0,0,4.62-2.28l-5.19,1.18Z"/></g><path class="cls-57" d="M195.19,63.27c5.64-9.12,19.61-9.88,22.33-9.74,1.44.07,4.52.89,5.9,3a23.14,23.14,0,0,0,0-2.81,4.28,4.28,0,0,1,1.2,3.73,16,16,0,0,0,1.44-2.35,3,3,0,0,1-.82,3c3.81.89,8.68,6.28,7,17.34-.73,4.83-11.59,1.14-14.68-3.69a9.93,9.93,0,0,1-6.17,4,19.87,19.87,0,0,0,3.65-5.7c-5.79,3.54-13.54,7.36-14.42,9.72,0,0-1.67-3.79-.42-6.2,0,0-4.59,1.15-5.17,5.74,0,0-5.87-6.34.16-16.1Z"/></g></g></g></svg>